<?xml version="1.0" encoding="utf-8"?>
<!-- Generator: Adobe Illustrator 18.1.1, SVG Export Plug-In . SVG Version: 6.00 Build 0)  -->
<svg version="1.1" id="Livello_1" xmlns="http://www.w3.org/2000/svg" xmlns:xlink="http://www.w3.org/1999/xlink" x="0px" y="0px"
	 viewBox="0 0 595.3 841.9" enable-background="new 0 0 595.3 841.9" xml:space="preserve">
<g id="Layer_8">
	<g>
		<polygon fill="#C1DDDD" points="591.4,94.1 516.2,639.3 413.2,638.3 400.7,727.9 89.9,724.1 102.7,630.9 3.4,629.7 66,176.2 
			283.8,178.9 289.1,141.3 214,140.4 220.8,89.6 		"/>
	</g>
</g>
<polygon fill="#405E5E" points="155.5,354.6 439.4,354.6 430.9,417.6 146.2,416.8 "/>
<g id="Layer_9">
	<polygon fill="#405E5E" points="164,628.5 165.5,634.8 163.5,648.3 162.1,641.9 	"/>
	<polygon fill="#405E5E" points="162.1,641.9 163.5,648.3 116.2,648.4 114.7,641.9 	"/>
	<polygon fill="#405E5E" points="164.4,618.2 165.8,624.7 164,638.1 162.4,631.5 	"/>
	<polygon fill="#405E5E" points="162.4,631.5 164,638.1 116.5,638.1 115,631.8 	"/>
	<polygon fill="#405E5E" points="164.7,607.8 166.1,614.4 164.4,627.9 162.9,621.4 	"/>
	<polygon fill="#405E5E" points="162.9,621.4 164.4,627.9 116.9,628 115.4,621.4 	"/>
	<polygon fill="#405E5E" points="311,628.3 312.4,634.7 310.6,648.6 309.1,642.1 	"/>
	<polygon fill="#405E5E" points="309.1,642.1 310.6,648.6 212.6,648.7 211.2,642.2 	"/>
	<polygon fill="#405E5E" points="311.9,617.6 313.3,624.1 311.5,638 310.1,631.5 	"/>
	<polygon fill="#405E5E" points="310.1,631.5 311.5,638 213.5,638.1 212.1,631.6 	"/>
	<polygon fill="#405E5E" points="312.8,607 314.2,613.4 312.4,627.4 311,620.9 	"/>
	<polygon fill="#405E5E" points="311,620.9 312.4,627.4 214.5,627.6 213,621.1 	"/>
</g>
<g id="Layer_7">
	<g>
		<g>
			<g enable-background="new    ">
				<g>
					<polygon fill="#8F9A9E" points="289.1,141.3 289.9,145.8 214.7,145 214,140.4 					"/>
				</g>
				<g>
					<polygon fill="#8F9A9E" points="102.7,630.9 103.6,635.6 4.2,634.3 3.4,629.7 					"/>
				</g>
				<g>
					<polygon fill="#8F9A9E" points="516.2,639.3 517.1,644 414.1,642.8 413.2,638.3 					"/>
				</g>
				<g>
					<polygon fill="#9BA8AB" points="591.4,94.1 592.3,98.8 517.1,644 516.2,639.3 					"/>
				</g>
				<g>
					<polygon fill="#9BA8AB" points="413.2,638.3 414.1,642.8 401.6,732.6 400.7,727.9 					"/>
				</g>
				<g>
					<polygon fill="#8F9A9E" points="400.7,727.9 401.6,732.6 90.6,728.8 89.9,724.1 					"/>
				</g>
			</g>
		</g>
	</g>
</g>
<g id="Layer_4">
	<polygon fill="#4A8080" points="579.9,98.8 581.2,103.5 575.7,137.3 574.7,132.7 	"/>
	<polygon fill="#4A8080" points="574.7,132.7 575.7,137.3 227.1,134 226.1,129.3 	"/>
	<polygon fill="#4A8080" points="529.8,496 530.7,500.7 512.5,636.5 511.5,631.8 	"/>
	<polygon fill="#4A8080" points="511.5,631.8 512.5,636.5 415.6,636.6 414.7,631.9 	"/>
	<polygon fill="#4A8080" points="575.1,139.2 576.3,143.8 550.8,334.1 549.7,329.5 	"/>
	<polygon fill="#4A8080" points="549.7,329.5 550.8,334.1 453.9,334.3 453,329.6 	"/>
	<polygon fill="#4A8080" points="542.6,395.7 543.7,400.4 531.1,495 530.1,490.3 	"/>
	<polygon fill="#4A8080" points="530.1,490.3 531.1,495 434.2,495.3 433.2,490.4 	"/>
	<polygon fill="#4A8080" points="549.7,339.6 550.8,344.3 544.4,391.6 543.4,386.9 	"/>
	<polygon fill="#4A8080" points="543.4,386.9 544.4,391.6 447.5,391.9 446.5,387.2 	"/>
	<polygon fill="#4A8080" points="163,180.3 164,184.8 139.2,370.7 138.3,366 	"/>
	<polygon fill="#4A8080" points="138.3,366 139.2,370.7 45,371 43.9,366.5 	"/>
	<polygon fill="#4A8080" points="137.2,371.3 138.1,376 123.3,486.7 122.2,482 	"/>
	<polygon fill="#4A8080" points="122.2,482 123.3,486.7 29,486.8 28.1,482.3 	"/>
	<polygon fill="#4A8080" points="121.6,487.1 122.7,491.7 104.7,626.9 103.6,622.3 	"/>
	<polygon fill="#4A8080" points="103.6,622.3 104.7,626.9 10.4,627.1 9.3,622.6 	"/>
	<polygon fill="#4A8080" points="471.1,144.7 472.2,149.4 467.6,182.2 466.7,177.7 	"/>
	<polygon fill="#4A8080" points="466.7,177.7 467.6,182.2 358.8,182.5 357.9,177.9 	"/>
	<polygon fill="#4A8080" points="401.3,654.3 402.2,659 393.7,722.8 392.5,717.9 	"/>
	<polygon fill="#4A8080" points="392.5,717.9 393.7,722.8 104.6,719.3 103.5,714.6 	"/>
	<polygon fill="#4A8080" points="456.3,217.3 457.5,222 440.7,347.6 439.5,342.9 	"/>
	<polygon fill="#4A8080" points="439.5,342.9 440.7,347.6 155.5,348.4 154.6,343.7 	"/>
	<polygon fill="#4A8080" points="359.8,350.6 363.5,360 356.7,410.8 353,401.4 	"/>
	<polygon fill="#4A8080" points="353,401.4 356.7,410.8 217.5,411.1 213.8,401.8 	"/>
	<polygon fill="#4A8080" points="427.1,422.1 428.2,426.7 405.1,599.9 404,595.4 	"/>
	<polygon fill="#4A8080" points="404,595.4 405.1,599.9 120,600.5 119.1,596 	"/>
</g>
<g id="Layer_5">
	<polygon fill="#80BCBC" points="579.9,98.8 574.7,132.7 226.1,129.3 231.4,95.6 	"/>
	<polygon fill="#80BCBC" points="529.8,496 511.5,631.8 414.7,631.9 432.9,496.2 	"/>
	<polygon fill="#80BCBC" points="575.1,139.2 549.7,329.5 453,329.6 478.2,139.5 	"/>
	<polygon fill="#80BCBC" points="542.6,395.7 530.1,490.3 433.2,490.4 445.9,396 	"/>
	<polygon fill="#80BCBC" points="549.7,339.6 543.4,386.9 446.5,387.2 452.8,339.7 	"/>
	<polygon fill="#80BCBC" points="163,180.3 138.3,366 43.9,366.5 68.7,180.4 	"/>
	<polygon fill="#80BCBC" points="137.2,371.3 122.2,482 28.1,482.3 42.7,371.5 	"/>
	<polygon fill="#80BCBC" points="121.6,487.1 103.6,622.3 9.3,622.6 27.3,487.4 	"/>
	<polygon fill="#80BCBC" points="471.1,144.7 466.7,177.7 357.9,177.9 362.3,144.9 	"/>
	<polygon fill="#80BCBC" points="401.3,654.3 392.5,717.9 103.5,714.6 116,654.9 	"/>
	<polygon fill="#80BCBC" points="456.3,217.3 439.5,342.9 154.6,343.7 171.2,218.1 	"/>
	<polygon fill="#80BCBC" points="359.8,350.6 353,401.4 213.8,401.8 220.6,351 	"/>
	<polygon fill="#80BCBC" points="427.1,422.1 404,595.4 119.1,596 142,422.7 	"/>
</g>
<g id="Layer_3">
	<g id="nopointer-test_2_">
		<g>
			<g>
				<g>
					<path fill="#FFFFFF" d="M390.8,114.5c-0.2,0.9-0.2,1.7-0.2,2.4h-2v-1.2h-0.2c-0.8,0.8-2,1.5-3.6,1.5c-2.4,0-3.5-1.5-3.2-2.9
						c0.3-2.4,3-3.8,7.4-3.8c0,0,0,0,0.2,0v-0.2c0.2-0.8,0-2.3-2.4-2.3c-1.1,0-2.3,0.3-3.2,0.8l-0.3-1.2c1.1-0.5,2.6-0.9,4.1-0.9
						c3.6,0,4.2,2.1,4.1,4.2L390.8,114.5z M388.6,113.6l0.2-1.7c-0.2,0-0.3,0-0.3,0c-2.3,0-4.7,0.5-4.8,2.3
						c-0.2,1.2,0.8,1.8,1.8,1.7c1.5,0,2.7-0.9,3-1.7C388.5,114.1,388.6,113.8,388.6,113.6"/>
				</g>
				<g>
					<path fill="#FFFFFF" d="M377.3,102.7c2,0,3.3,0.5,3.8,0.6l-0.6,1.5c-0.8-0.3-1.8-0.5-3.2-0.6c-3.8,0-6.7,2.1-7.1,5.9
						c-0.5,3.5,1.7,5.6,5.6,5.6c1.4,0,2.6-0.3,3.5-0.6l0.3,1.5c-0.9,0.3-2.4,0.8-4.4,0.8c-4.7,0-7.9-2.4-7.3-7
						C368.4,105.7,372.3,102.9,377.3,102.7z"/>
				</g>
				<g>
					<path fill="#FFFFFF" d="M411.2,111.3c0,0.3-0.2,0.6-0.2,0.9h-8.3c-0.3,2.4,1.4,3.6,3.6,3.5c1.5,0,2.6-0.3,3.3-0.5l0.2,1.4
						c-0.8,0.3-2.1,0.6-4.1,0.6c-3.6,0-5.6-2-5.1-5c0.5-3,2.7-5.4,6.2-5.4C410.7,106.7,411.3,109.5,411.2,111.3z M402.9,111h6.2
						c0.3-1.2-0.2-3-2.6-3C404.2,107.9,403.2,109.7,402.9,111"/>
				</g>
				<g>
					<path fill="#FFFFFF" d="M400.1,102c0.8,0,1.4,0.2,1.8,0.3l-0.6,1.4c-0.3-0.2-0.8-0.3-1.4-0.3c-1.8,0-2.6,1.4-2.6,2.9l-0.2,0.6
						h2.9l-0.3,1.4H397l-1.1,8.6h-2.1l1.1-8.6h-1.7l0.3-1.4h1.7l0.2-0.5c0.3-1.4,0.8-2.7,1.8-3.6C398,102.1,399.1,102,400.1,102z"/>
				</g>
			</g>
		</g>
		<g>
			<g>
				<g>
					<path fill="#FFFFFF" d="M475.4,224.3c2.1,0,3.3,0.3,3.8,0.6l-0.6,1.4c-0.8-0.3-1.8-0.5-3.3-0.6c-3.9,0-6.7,1.8-7.1,5.4
						c-0.5,3.2,1.8,5.1,5.7,5.1c1.4,0,2.7-0.2,3.6-0.5l0.2,1.4c-0.8,0.3-2.4,0.6-4.5,0.6c-4.7,0-8-2.3-7.4-6.5
						C466.5,227,470.3,224.1,475.4,224.3z"/>
				</g>
				<g>
					<path fill="#FFFFFF" d="M491.6,228l-0.9,6.7c-0.2,0.9-0.2,1.8-0.2,2.6h-2v-1.5l0,0c-0.8,0.8-2,1.8-4.1,1.8
						c-1.8,0-3.9-0.9-3.6-4.1l0.6-5.3h2.1l-0.6,5.1c-0.2,1.8,0.3,3,2.3,2.9c1.5,0,2.6-0.8,3-1.5c0.2-0.3,0.3-0.6,0.3-0.9l0.8-5.6
						L491.6,228z"/>
				</g>
				<g>
					<path fill="#FFFFFF" d="M500.5,227.9c0.3,0,0.5,0,0.6,0.2l-0.2,1.5c-0.2,0-0.5-0.2-0.8-0.2c-1.5,0-2.7,0.9-3.2,2.1
						c-0.2,0.3-0.2,0.5-0.3,0.8l-0.6,4.8H494l0.8-6.3c0.2-1.1,0.2-2,0.3-2.9h2l-0.2,1.8h0.2C497.6,228.6,499.1,227.7,500.5,227.9z"
						/>
				</g>
				<g>
					<polygon fill="#FFFFFF" points="502.2,237.3 503.2,228 505.5,228 504.3,237.1 					"/>
				</g>
				<g>
					<path fill="#FFFFFF" d="M504.4,226.4c-0.8,0-1.2-0.5-1.1-1.1c0.2-0.6,0.8-1.1,1.5-1.1s1.2,0.5,1.2,1.1
						C505.9,226.1,505.3,226.4,504.4,226.4z"/>
				</g>
				<g>
					<path fill="#FFFFFF" d="M514.1,227.7c3.5,0,5.6,2,5.1,4.7c-0.5,3.3-3.6,4.8-6.5,4.8c-3.2,0-5.6-1.8-5.1-4.7
						C507.9,229.5,510.8,227.7,514.1,227.7z M513,236.2c2.1,0,3.8-1.5,4.1-3.5c0.2-1.5-0.6-3.6-3.2-3.6s-3.8,1.8-4.1,3.5
						C509.6,234.5,510.9,236.2,513,236.2"/>
				</g>
				<g>
					<path fill="#FFFFFF" d="M526.2,227.7c1.2,0,2.3,0.3,2.9,0.6l-0.8,1.2c-0.5-0.3-1.2-0.6-2.4-0.5c-1.4,0-2.1,0.6-2.3,1.4
						c-0.2,0.8,0.5,1.2,2.1,1.5c2,0.6,3,1.4,2.7,2.7c-0.2,1.7-2,2.9-4.8,2.9c-1.4,0-2.4-0.2-3.2-0.6l0.8-1.2
						c0.6,0.3,1.7,0.6,2.7,0.6c1.5,0,2.4-0.6,2.6-1.4c0.2-0.8-0.5-1.2-2.1-1.7c-2.1-0.6-3-1.5-2.9-2.6
						C522,228.9,523.6,227.7,526.2,227.7z"/>
				</g>
				<g>
					<polygon fill="#FFFFFF" points="531.2,237.3 532.4,227.9 534.5,227.9 533.3,237.3 					"/>
				</g>
				<g>
					<path fill="#FFFFFF" d="M555.8,227.9l-4.1,6.7c-2,3.2-3.2,4.8-4.8,5.9c-1.2,0.6-2.3,1.1-2.9,1.1l-0.3-1.4
						c0.6-0.2,1.4-0.3,2-0.9c0.6-0.3,1.5-1.1,2-2c0.2-0.2,0.3-0.3,0.3-0.5s0-0.2,0-0.5l-3.3-8.5h2.4l2,5.4c0.2,0.6,0.3,1.4,0.6,2
						l0,0c0.3-0.6,0.8-1.2,0.9-1.8l3-5.4L555.8,227.9z"/>
				</g>
				<g>
					<path fill="#FFFFFF" d="M541,225.3l-0.3,2.6h3.2l-0.2,1.2h-3.2l-0.6,5c-0.2,1.2,0.3,1.8,1.5,1.7c0.6,0,1.1,0,1.2,0l-0.2,1.2
						c-0.5,0.2-1.1,0.2-2,0.3c-1.1,0-1.8-0.2-2.3-0.6c-0.6-0.5-0.6-1.4-0.6-2.4l0.6-5h-1.8l0.2-1.2h1.8l0.3-2.3L541,225.3z"/>
				</g>
				<g>
					<path fill="#FFFFFF" d="M533.5,226.4c-0.8,0-1.2-0.5-1.1-1.1c0.2-0.6,0.8-1.1,1.5-1.1s1.2,0.5,1.2,1.1
						C535,225.9,534.4,226.2,533.5,226.4z"/>
				</g>
			</g>
		</g>
		<g>
			<g>
				<g>
					<path fill="#FFFFFF" d="M472.8,364.1c-0.2,0.8-0.2,1.7,0,2.3h-2v-1.2h-0.2c-0.8,0.8-2.1,1.5-3.9,1.4c-2.4,0-3.6-1.4-3.3-2.7
						c0.3-2.3,3-3.5,7.6-3.6h0.2V360c0.2-0.8,0-2.1-2.6-2.1c-1.1,0-2.3,0.3-3.3,0.8l-0.3-1.2c1.1-0.5,2.6-0.9,4.1-0.8
						c3.6,0,4.4,2,4.1,3.9L472.8,364.1z M470.7,363.2l0.2-1.7c-0.2,0-0.3,0-0.5,0c-2.3,0-4.8,0.5-5,2.1c-0.2,1.1,0.8,1.7,2,1.5
						c1.5,0,2.7-0.8,3-1.5C470.6,363.6,470.6,363.5,470.7,363.2"/>
				</g>
				<g>
					<polygon fill="#FFFFFF" points="463.8,353.2 463.5,354.6 458.5,354.7 457,366.5 454.7,366.3 456.2,354.7 451.1,354.7 
						451.4,353.3 					"/>
				</g>
				<g>
					<path fill="#FFFFFF" d="M483.4,356.7c2.9,0,5,2,4.5,4.7c-0.5,3.3-3.2,5.1-6,5.1c-1.7,0-2.9-0.6-3.6-1.5l0,0l-0.6,5.1h-2.1
						l1.2-10.3c0.2-1.2,0.2-2.1,0.3-3h2v1.7C479.9,357.3,481.5,356.7,483.4,356.7z M481.6,365.3c2.3,0,3.8-1.5,4.1-3.6
						c0.2-1.8-0.8-3.6-3.2-3.5c-1.5,0-3,0.8-3.5,2.1c-0.2,0.2-0.3,0.5-0.3,0.8l-0.2,1.7c0,0.3,0,0.5,0,0.8
						C478.9,364.4,480.1,365.1,481.6,365.3"/>
				</g>
				<g>
					<path fill="#FFFFFF" d="M500.7,361.1c0,0.3-0.2,0.6-0.2,0.8H492c-0.2,2.3,1.5,3.2,3.8,3.3c1.5,0,2.6-0.3,3.5-0.5l0.2,1.2
						c-0.8,0.2-2.3,0.6-4.1,0.5c-3.8,0-5.7-2-5.4-4.7c0.3-2.9,2.7-5.1,6.2-5.1C500.1,356.7,500.8,359.4,500.7,361.1z M492.2,360.6
						h6.3c0.2-1.1-0.2-2.9-2.7-2.7C493.7,357.7,492.5,359.5,492.2,360.6"/>
				</g>
				<g>
					<path fill="#FFFFFF" d="M516.7,354.1l-0.3,2.7h3.2l-0.3,1.4h-3.2l-0.6,5c-0.2,1.2,0.3,1.8,1.5,1.8c0.6,0,1.1,0,1.4,0l-0.2,1.2
						c-0.5,0.2-1.2,0.2-2,0.3c-1.1,0-1.8-0.2-2.3-0.8c-0.5-0.6-0.6-1.4-0.6-2.4l0.6-5.1h-1.8l0.3-1.4h1.8l0.3-2.3L516.7,354.1z"/>
				</g>
				<g>
					<path fill="#FFFFFF" d="M507.5,356.5c1.2,0,2.3,0.3,2.9,0.6l-0.8,1.2c-0.5-0.3-1.2-0.6-2.4-0.5c-1.4,0-2.1,0.6-2.3,1.4
						c-0.2,0.8,0.5,1.2,2.1,1.5c2,0.6,3,1.5,2.9,2.9c-0.2,1.7-2,2.9-4.8,2.9c-1.4,0-2.4-0.2-3.3-0.6l0.8-1.2
						c0.6,0.3,1.7,0.6,2.7,0.8c1.7,0,2.4-0.6,2.6-1.4c0.2-0.8-0.5-1.4-2.1-1.7c-2.1-0.6-3-1.5-2.9-2.7
						C503.2,357.9,504.9,356.5,507.5,356.5z"/>
				</g>
				<g>
					<path fill="#FFFFFF" d="M527.3,356.5c0.3,0,0.5,0,0.6,0.2l-0.2,1.7c-0.2,0-0.5-0.2-0.8-0.2c-1.5,0-2.9,0.9-3.2,2.1
						c-0.2,0.3-0.2,0.5-0.3,0.8l-0.6,5h-2.1l0.9-6.5c0.2-1.1,0.2-2.1,0.3-2.9h2l-0.2,1.8h0.2C524.5,357.3,525.9,356.7,527.3,356.5z"
						/>
				</g>
				<g>
					<path fill="#FFFFFF" d="M540,356.8l-4.2,6.8c-2,3.3-3.2,4.8-4.8,6c-1.2,0.6-2.3,1.1-2.9,1.1l-0.5-1.5c0.6-0.2,1.4-0.3,2.1-0.9
						c0.6-0.3,1.5-1.1,2-2c0.2-0.2,0.3-0.3,0.3-0.5s0-0.3,0-0.5l-3.3-8.8h2.4l2,5.6c0.2,0.6,0.3,1.4,0.6,2l0,0
						c0.3-0.6,0.8-1.2,0.9-2l3-5.6L540,356.8z"/>
				</g>
			</g>
		</g>
		<g id="Assyrian____Reliefs_2_">
			<g>
				<g>
					<path fill="#FFFFFF" d="M450.6,418.6l4.4,15.3h-2.4l-1.4-4.8h-6.3l-2.4,4.8H440l7.9-15.1L450.6,418.6z M445.5,427.4h5.3
						l-1.2-4.4c-0.2-1.1-0.5-2-0.6-2.7l0,0c-0.5,0.9-0.8,1.8-1.2,2.7L445.5,427.4"/>
				</g>
				<g>
					<path fill="#FFFFFF" d="M462.7,422.6c1.4,0,2.4,0.3,3,0.8l-0.8,1.4c-0.5-0.3-1.4-0.8-2.4-0.6c-1.4,0-2.3,0.8-2.3,1.5
						c-0.2,0.9,0.6,1.4,2.3,1.8c2.1,0.6,3.2,1.7,2.9,3.3c-0.2,2-2.1,3.3-5.1,3.3c-1.4,0-2.6-0.3-3.5-0.8l0.8-1.5
						c0.6,0.5,1.8,0.8,2.9,0.8c1.7,0,2.6-0.8,2.6-1.7c0-0.9-0.6-1.5-2.1-2c-2.1-0.6-3.2-1.8-3-3C458,424.1,460,422.6,462.7,422.6z"
						/>
				</g>
				<g>
					<path fill="#FFFFFF" d="M473.1,422.6c1.4,0,2.4,0.3,3,0.8l-0.8,1.4c-0.5-0.3-1.4-0.8-2.4-0.6c-1.4,0-2.3,0.8-2.3,1.5
						c-0.2,0.9,0.5,1.4,2.3,1.8c2.1,0.6,3.2,1.7,2.9,3.3c-0.2,2-2.1,3.3-5.1,3.3c-1.4,0-2.6-0.3-3.5-0.8l0.8-1.5
						c0.6,0.5,1.8,0.8,2.9,0.8c1.7,0,2.6-0.8,2.6-1.7c0-0.9-0.6-1.5-2.1-2c-2.1-0.6-3.2-1.8-3-3
						C468.5,424.1,470.3,422.6,473.1,422.6z"/>
				</g>
				<g>
					<path fill="#FFFFFF" d="M489.9,422.7l-4.4,7.9c-2.1,3.8-3.5,5.6-5.3,6.8c-1.2,0.8-2.4,1.2-3,1.2l-0.5-1.7
						c0.6-0.2,1.4-0.5,2.3-1.1c0.8-0.5,1.7-1.2,2.1-2.3c0.2-0.2,0.3-0.3,0.3-0.5c0-0.2,0-0.3,0-0.5l-3.6-10h2.6l2,6.3
						c0.2,0.8,0.5,1.7,0.6,2.3l0,0c0.3-0.6,0.6-1.5,1.1-2.3l3.3-6.3H489.9z"/>
				</g>
				<g>
					<path fill="#FFFFFF" d="M497.6,422.7c0.3,0,0.5,0,0.6,0.2l-0.2,1.8c-0.3,0-0.5-0.2-0.8-0.2c-1.7,0-3,1.1-3.5,2.6
						c-0.2,0.3-0.2,0.6-0.3,0.9l-0.8,5.7h-2.3l0.9-7.4c0.2-1.2,0.3-2.4,0.3-3.3h2l-0.2,2.1h0.2C494.5,423.6,496.1,422.6,497.6,422.7
						z"/>
				</g>
				<g>
					<polygon fill="#FFFFFF" points="499.3,433.8 500.5,422.7 502.9,422.9 501.6,433.6 					"/>
				</g>
				<g>
					<path fill="#FFFFFF" d="M502,420.9c-0.8,0-1.4-0.6-1.2-1.2c0.2-0.8,0.8-1.2,1.7-1.4c0.9,0,1.4,0.6,1.2,1.4
						C503.4,420.3,502.9,421.1,502,420.9z"/>
				</g>
				<g>
					<path fill="#FFFFFF" d="M514.7,431c-0.2,0.9-0.2,1.8-0.2,2.6h-2.1v-1.4h-0.2c-0.9,0.8-2.3,1.7-4.1,1.7c-2.6,0-3.8-1.7-3.5-3.2
						c0.3-2.6,3.3-4.1,8.2-4.1c0,0,0,0,0.2,0v-0.2c0.2-0.9,0-2.6-2.6-2.6c-1.2,0-2.4,0.3-3.5,0.8l-0.3-1.4c1.2-0.5,2.7-0.9,4.4-1.1
						c3.9,0,4.5,2.3,4.4,4.4L514.7,431z M512.6,430l0.2-1.8c-0.2,0-0.3,0-0.3,0c-2.4,0-5.1,0.5-5.3,2.4c-0.2,1.2,0.8,2,2,1.8
						c1.7,0,2.9-0.9,3.3-1.8C512.4,430.4,512.6,430.1,512.6,430"/>
				</g>
				<g>
					<path fill="#FFFFFF" d="M525.7,422.4c1.8,0,4.4,0.8,3.9,4.7l-0.8,6.5h-2.3l0.8-6.2c0.2-1.8-0.3-3.2-2.6-3.2
						c-1.5,0-2.9,0.9-3.3,2c-0.2,0.3-0.3,0.6-0.3,0.9l-0.9,6.5H518l0.9-7.9c0.2-1.1,0.2-2,0.3-2.9h2.1v1.8l0,0
						C522.1,423.6,523.6,422.6,525.7,422.4z"/>
				</g>
				<g>
					<path fill="#FFFFFF" d="M474.5,454.8c0,0.5-0.2,0.8-0.3,0.9h-8.9c-0.3,2.7,1.5,3.6,3.8,3.8c1.7,0,2.7-0.3,3.6-0.5l0.2,1.4
						c-0.9,0.3-2.3,0.8-4.4,0.8c-3.9,0-6-2.3-5.6-5.4c0.5-3.3,3-5.9,6.7-5.7C474.1,449.6,474.7,452.7,474.5,454.8z M465.4,454.2h6.8
						c0.3-1.2-0.2-3.2-2.9-3.2C467.1,451.1,465.9,452.8,465.4,454.2"/>
				</g>
				<g>
					<path fill="#FFFFFF" d="M460,456.6c0.3,2.1,0.5,3.6,0.9,4.2h-2.4c-0.2-0.5-0.6-1.8-0.8-3.6c-0.3-2.1-1.1-2.9-3.2-3h-2.1
						l-0.9,6.5h-2.3l1.8-15c1.2-0.2,2.9-0.3,4.4-0.5c2.4,0,3.9,0.5,4.8,1.2c0.8,0.8,1.2,1.8,1.1,2.9c-0.2,2-2,3.3-3.9,3.8l0,0
						C459.1,454,459.7,455.1,460,456.6z M455,452.7c2.4,0,4.2-1.2,4.4-2.9c0.2-2-1.4-2.9-3.8-2.9c-1.1,0-2,0.2-2.3,0.2l-0.6,5.4
						L455,452.7"/>
				</g>
				<g>
					<polygon fill="#FFFFFF" points="480.9,444.8 478.9,460.8 476.6,460.8 478.6,444.8 					"/>
				</g>
				<g>
					<polygon fill="#FFFFFF" points="482.8,460.7 484.2,449.9 486.4,449.8 485.2,460.7 					"/>
				</g>
				<g>
					<path fill="#FFFFFF" d="M485.4,448c-0.8,0-1.4-0.6-1.2-1.2c0.2-0.8,0.8-1.2,1.7-1.4c0.9-0.2,1.4,0.6,1.2,1.4
						C487.1,447.5,486.3,448,485.4,448z"/>
				</g>
				<g>
					<path fill="#FFFFFF" d="M509,444.5c0.8,0,1.5,0.2,2,0.3l-0.5,1.5c-0.3-0.2-0.8-0.3-1.4-0.3c-2,0-2.6,1.5-2.9,3.2l-0.2,0.6h3
						l-0.2,1.5h-3l-1.2,9.5h-2.3l1.2-9.5h-1.8l0.2-1.5h1.8l0.2-0.5c0.2-1.5,0.8-2.9,2-3.8C506.7,444.6,507.8,444.5,509,444.5z"/>
				</g>
				<g>
					<path fill="#FFFFFF" d="M500.1,454.6c0,0.5-0.2,0.8-0.3,0.9h-8.9c-0.3,2.7,1.5,3.6,3.8,3.8c1.7,0,2.7-0.3,3.6-0.5l0.2,1.4
						c-0.9,0.3-2.3,0.8-4.4,0.8c-3.9,0-6-2.3-5.6-5.4c0.5-3.3,3-5.9,6.7-5.7C499.6,449.5,500.2,452.7,500.1,454.6z M491,454.2h6.8
						c0.3-1.2-0.2-3.2-2.9-3.2C492.6,451,491.4,452.8,491,454.2"/>
				</g>
				<g>
					<path fill="#FFFFFF" d="M515,449.6c1.4,0,2.4,0.3,3,0.8l-0.8,1.4c-0.5-0.3-1.4-0.8-2.4-0.6c-1.4,0-2.3,0.8-2.3,1.5
						c-0.2,0.9,0.6,1.4,2.3,1.8c2.1,0.6,3.2,1.7,2.9,3.3c-0.2,2-2.1,3.3-5.1,3.3c-1.4,0-2.6-0.3-3.5-0.8l0.8-1.5
						c0.6,0.5,1.8,0.8,2.9,0.8c1.7,0,2.6-0.8,2.6-1.7s-0.6-1.5-2.1-2c-2.1-0.6-3.2-1.8-3-3C510.6,451,512.3,449.5,515,449.6z"/>
				</g>
			</g>
		</g>
		<g>
			<g>
				<g>
					<path fill="#FFFFFF" d="M506.5,550.9l-0.5,3.8h4.4l-0.2,1.8h-4.4l-0.8,7.1c-0.2,1.7,0.3,2.6,2,2.6c0.8,0,1.4,0,1.8-0.2v1.8
						c-0.6,0.2-1.5,0.5-2.7,0.3c-1.4,0-2.4-0.3-3-1.1c-0.8-0.8-1.1-2-0.8-3.5l0.8-7.3h-2.6l0.2-1.8h2.6l0.5-3.2L506.5,550.9z"/>
				</g>
				<g>
					<path fill="#FFFFFF" d="M491.4,554.4c4.1,0,6.8,2.7,6.3,6.8c-0.6,4.7-4.4,7.3-8.5,7.1c-2.3,0-3.9-0.8-5-2.1l0,0l-0.8,7.3h-3
						l1.8-14.5c0.2-1.7,0.3-3,0.3-4.4h2.7l-0.2,2.3l0,0C486.6,555.4,488.7,554.4,491.4,554.4z M489,566.5c3.2,0,5.3-2.1,5.7-5.1
						c0.3-2.7-1.2-5-4.4-4.8c-2.1,0-4.2,1.2-5,3c-0.2,0.3-0.3,0.6-0.5,0.9l-0.3,2.3c0,0.3,0,0.8,0,1.1
						C485.2,565.3,486.7,566.5,489,566.5"/>
				</g>
				<g>
					<path fill="#FFFFFF" d="M479.9,554.7l-5.7,9.5c-2.7,4.5-4.5,7-6.8,8.5c-1.7,1.1-3,1.5-3.8,1.5l-0.6-2.1
						c0.8-0.2,1.8-0.6,2.9-1.2c0.9-0.5,2-1.5,2.9-2.7c0.2-0.3,0.3-0.5,0.3-0.6s0-0.3-0.2-0.6l-4.7-12.2h3.3l2.7,7.9
						c0.2,0.9,0.6,2,0.8,2.7l0,0c0.5-0.8,0.8-1.8,1.4-2.9l4.2-7.9L479.9,554.7z"/>
				</g>
				<g>
					<path fill="#FFFFFF" d="M458.9,554.8h2.7c-0.3,0.9-0.3,2-0.6,3.6l-0.9,7.7c-0.5,3-1.4,5-3.2,6c-1.8,1.2-4.1,1.7-6.2,1.5
						c-2,0-4.1-0.5-5.3-1.1l0.9-1.8c1.1,0.6,2.7,1.1,4.7,1.1c3.2,0,5.6-1.4,5.9-4.7l0.2-1.5l0,0c-1.2,1.2-3,2.3-5.6,2.3
						c-4.1,0-6.8-2.9-6.2-6.5c0.5-4.5,4.4-7.1,8.5-7.1c2.9,0,4.4,1.2,5,2.3l0,0L458.9,554.8z M457.4,562.4l0.3-2.4
						c0-0.5,0.2-0.8,0-1.1c-0.3-1.4-1.8-2.6-3.9-2.6c-2.9,0-5.1,2-5.6,5c-0.3,2.6,1.1,4.8,4.4,4.7c1.8,0,3.8-0.9,4.5-2.6
						C457.4,563.3,457.4,562.9,457.4,562.4"/>
				</g>
				<g>
					<polygon fill="#FFFFFF" points="443.5,549.5 443.2,551.5 433.7,551.7 432.9,557.4 442,557.4 441.7,559.5 432.8,559.4 
						431.9,566.2 442,566.2 441.7,568.1 428.7,568.3 430.8,549.7 					"/>
				</g>
			</g>
		</g>
		<g>
			<g>
				<g>
					<polygon fill="#FFFFFF" points="187.8,667.6 187.5,670.2 176.1,670.2 175.2,677.7 185.8,677.6 185.5,680.2 174.9,680.2 
						173.8,688.6 185.8,688.6 185.5,691 170.1,691.2 172.9,667.6 					"/>
				</g>
				<g>
					<path fill="#FFFFFF" d="M201.8,673.8c2.7,0,7,1.5,6.2,7.1l-1.2,10.1h-3.6l1.1-9.8c0.3-2.7-0.6-5-4.1-5c-2.4,0-4.4,1.5-5.1,3.2
						c-0.3,0.3-0.5,0.9-0.5,1.4l-1.2,10.1h-3.6l1.5-12.4c0.2-1.7,0.3-3.2,0.3-4.5h3.2l-0.2,2.7h0.2
						C196.2,675.5,198.6,673.8,201.8,673.8z"/>
				</g>
				<g>
					<path fill="#FFFFFF" d="M219.7,669.4l-0.6,4.8h5.1l-0.3,2.3h-5.1l-1.1,9.1c-0.2,2.1,0.3,3.3,2.3,3.2c0.9,0,1.7-0.2,2.1-0.3
						l-0.2,2.3c-0.8,0.2-1.8,0.5-3.3,0.5c-1.7,0-2.9-0.5-3.8-1.4c-0.9-0.9-1.1-2.4-0.9-4.4l1.2-9.2h-3l0.3-2.3h3l0.6-4.1
						L219.7,669.4z"/>
				</g>
				<g>
					<path fill="#FFFFFF" d="M236.9,673.7c0.5,0,0.6,0,1.1,0.2l-0.3,2.9c-0.3-0.2-0.8-0.2-1.2-0.2c-2.6,0-4.5,1.7-5.3,3.9
						c-0.2,0.5-0.3,0.9-0.5,1.4l-1.1,8.9H226l1.4-11.6c0.2-2,0.5-3.6,0.5-5.3h3.2l-0.3,3.3h0.2C232.2,675.2,234.5,673.8,236.9,673.7
						z"/>
				</g>
				<g>
					<path fill="#FFFFFF" d="M253.8,686.8c-0.2,1.5-0.3,2.9-0.3,4.1h-3.3l-0.2-2.1h-0.2c-1.4,1.2-3.5,2.4-6.3,2.4
						c-3.9,0-5.7-2.4-5.4-4.8c0.6-4.1,5-6.3,12.5-6.3h0.2v-0.3c0.3-1.4,0.2-3.9-3.9-3.9c-1.8,0-3.8,0.5-5.3,1.2l-0.6-2.1
						c1.8-0.9,4.2-1.5,6.7-1.5c6,0,7.1,3.5,6.8,7L253.8,686.8z M250.6,685.4l0.3-2.9c-0.2,0-0.5,0-0.6,0c-3.8,0-7.9,0.8-8.3,3.8
						c-0.2,2,1.2,3,3,2.9c2.6,0,4.4-1.5,5.1-2.9C250.5,686,250.6,685.7,250.6,685.4"/>
				</g>
				<g>
					<path fill="#FFFFFF" d="M271.2,673.7c2.7,0,6.8,1.5,6.2,7.1l-1.2,10.1h-3.6l1.1-9.8c0.3-2.7-0.6-5-4.1-5
						c-2.4,0-4.4,1.5-5.1,3.2c-0.3,0.3-0.5,0.9-0.5,1.4l-1.2,10.1h-3.6l1.5-12.4c0.2-1.7,0.3-3.2,0.3-4.5h3.2l-0.2,2.7h0.2
						C265.3,675.3,267.9,673.7,271.2,673.7z"/>
				</g>
				<g>
					<path fill="#FFFFFF" d="M317.3,681.5c-0.2,0.6-0.3,1.1-0.3,1.4h-13.9c-0.5,4.1,2.4,5.9,6,5.9c2.6,0,4.2-0.5,5.6-0.9l0.5,2.3
						c-1.4,0.5-3.6,1.1-6.8,1.1c-6,0-9.2-3.5-8.6-8.5c0.6-5,4.7-9.1,10.4-9.1C316.5,673.7,317.6,678.3,317.3,681.5z M303.4,680.8
						h10.4c0.3-2-0.3-5-4.4-4.8C306,675.8,304,678.6,303.4,680.8"/>
				</g>
				<g>
					<path fill="#FFFFFF" d="M293.1,673.7c2.1,0,3.9,0.5,4.8,0.8l-1.1,2.3c-0.8-0.5-2.1-0.8-4.1-0.9c-4.5,0-7.3,2.9-7.9,6.3
						c-0.6,3.9,2.1,6.2,6,6.3c2,0,3.5-0.5,4.5-0.9l0.3,2.3c-1.1,0.3-3.2,0.9-5.9,0.9c-5.9,0-9.4-3.5-8.8-8.6
						C282.1,677.4,286.6,673.7,293.1,673.7z"/>
				</g>
			</g>
		</g>
		<g>
			<g>
				<g>
					<polygon fill="#FFFFFF" points="191.8,496.8 191.5,499.2 180.7,499.2 179.8,506.6 189.8,506.6 189.4,509 179.4,509 
						178.3,519.3 174.8,519.3 177.6,496.8 					"/>
				</g>
				<g>
					<path fill="#FFFFFF" d="M216.3,502.7c5.4,0,8.6,3.3,8,8.3c-0.8,5.9-5.9,8.6-10.4,8.6c-5.1,0-8.6-3.2-8-8.3
						C206.7,505.7,211.1,502.7,216.3,502.7z M214.5,517.4c3.3,0,6-2.6,6.5-6.2c0.3-2.7-0.8-6.2-4.8-6.2c-4.1,0-6.2,3.2-6.7,6.2
						C209.2,514.6,211.1,517.4,214.5,517.4"/>
				</g>
				<g>
					<path fill="#FFFFFF" d="M204,502.5c0.5,0,0.6,0,0.9,0.2l-0.3,2.7c-0.3-0.2-0.8-0.2-1.2-0.2c-2.4,0-4.2,1.7-5.1,3.8
						c-0.2,0.5-0.3,0.9-0.5,1.4l-1.1,8.6h-3.3l1.4-11.2c0.2-2,0.5-3.5,0.5-5h3L198,506h0.2C199.5,504.1,201.6,502.7,204,502.5z"/>
				</g>
				<g>
					<path fill="#FFFFFF" d="M239.1,502.7c2.6,0,6.5,1.4,5.9,7l-1.2,9.7h-3.5l1.2-9.4c0.3-2.6-0.6-4.8-3.8-4.8c-2.3,0-4.2,1.5-5,3
						c-0.2,0.3-0.5,0.9-0.5,1.4l-1.1,9.8h-3.5l1.5-11.9c0.2-1.7,0.3-3,0.3-4.4h3l-0.2,2.7h0.2C233.6,504.1,236.1,502.7,239.1,502.7z
						"/>
				</g>
				<g>
					<path fill="#FFFFFF" d="M255.9,498.2l-0.5,4.7h4.8l-0.3,2.3h-4.8l-1.1,8.6c-0.2,2,0.3,3.2,2.1,3.2c0.9,0,1.5-0.2,2-0.3v2.3
						c-0.8,0.2-1.8,0.5-3.2,0.5c-1.5,0-2.7-0.5-3.5-1.2c-0.8-0.9-1.1-2.4-0.9-4.2l1.1-8.8h-2.9l0.3-2.3h2.9l0.5-3.8L255.9,498.2z"/>
				</g>
				<g>
					<polygon fill="#FFFFFF" points="292.6,496.5 289.9,519 286.6,518.9 287.8,508.4 275.1,508.6 273.9,519 270.5,519 273.3,496.5 
						276.6,496.5 275.4,505.9 288.1,505.9 289.3,496.3 					"/>
				</g>
				<g>
					<path fill="#FFFFFF" d="M309.4,515.1c-0.3,1.4-0.3,2.7-0.2,3.9h-3.2v-2.1h-0.2c-1.2,1.2-3.3,2.4-6,2.4c-3.8,0-5.4-2.3-5.3-4.7
						c0.5-3.8,4.7-6,11.9-6h0.2v-0.3c0.3-1.4,0-3.8-3.8-3.8c-1.8,0-3.6,0.5-5.1,1.2l-0.6-2c1.7-0.9,4.1-1.4,6.3-1.4
						c5.7,0,6.7,3.5,6.3,6.7L309.4,515.1z M306.2,513.4l0.3-2.7c-0.2,0-0.5,0-0.6,0c-3.6,0-7.4,0.8-7.9,3.6c-0.2,2,1.2,2.9,2.9,2.9
						c2.4,0,4.2-1.4,4.8-2.7C306.1,514,306.2,513.7,306.2,513.4"/>
				</g>
				<g>
					<polygon fill="#FFFFFF" points="320.7,495.1 317.8,518.9 314.4,518.9 317.2,495.1 					"/>
				</g>
				<g>
					<polygon fill="#FFFFFF" points="329.8,495.1 326.9,518.9 323.6,518.9 326.5,495.1 					"/>
				</g>
			</g>
		</g>
		<g>
			<g>
				<g>
					<path fill="#FFFFFF" d="M277.2,354.9c1.7,0,2.7,0.3,3.5,0.8L280,357c-0.5-0.3-1.5-0.6-2.9-0.6c-2.1,0-3.2,1.1-3.2,2
						c-0.2,1.2,0.8,2,2.9,2.6c2.6,0.9,3.9,2.1,3.5,4.1c-0.2,2.1-2.4,3.9-6.2,3.9c-1.5,0-3.2-0.5-3.9-0.9l0.8-1.4
						c0.9,0.5,2.1,0.9,3.5,0.9c2.1,0,3.5-0.9,3.6-2.3c0.2-1.2-0.6-2-2.7-2.7c-2.4-0.8-4.1-2-3.8-3.9
						C272,356.5,274.2,354.9,277.2,354.9z"/>
				</g>
				<g>
					<path fill="#FFFFFF" d="M302.9,366.2c-0.2,0.9-0.2,1.7,0,2.3h-2v-1.2l0,0c-0.8,0.8-2,1.5-3.8,1.4c-2.3,0-3.5-1.4-3.2-2.9
						c0.3-2.3,2.9-3.6,7.3-3.6c0,0,0,0,0.2,0V362c0.2-0.8,0-2.3-2.4-2.3c-1.1,0-2.3,0.3-3.2,0.8l-0.3-1.2c1.1-0.5,2.4-0.9,3.9-0.8
						c3.5,0,4.1,2.1,3.8,4.1L302.9,366.2z M301,365.3l0.2-1.7c-0.2,0-0.3,0-0.3,0c-2.1,0-4.5,0.5-4.7,2.3c-0.2,1.2,0.8,1.7,1.8,1.7
						c1.5,0,2.6-0.8,2.9-1.7C301,365.6,301,365.4,301,365.3"/>
				</g>
				<g>
					<path fill="#FFFFFF" d="M292.7,363.2c0,0.3-0.2,0.6-0.2,0.8h-8c-0.2,2.4,1.4,3.5,3.5,3.5c1.5,0,2.4-0.3,3.3-0.5l0.2,1.2
						c-0.8,0.3-2.1,0.6-3.9,0.6c-3.5,0-5.4-2-5.1-4.8c0.3-2.9,2.7-5.3,6-5.3C292.2,358.6,292.8,361.4,292.7,363.2z M284.5,362.7h6
						c0.2-1.1-0.2-2.9-2.6-2.9C285.9,360,284.8,361.7,284.5,362.7"/>
				</g>
				<g>
					<path fill="#FFFFFF" d="M260.3,380.9c1.2,1.2,2,2.6,1.7,4.8c-0.3,2.1-1.4,4.1-2.9,5.3c-1.7,1.4-4.1,2-7.3,2
						c-1.5,0-2.7,0-3.8-0.2l1.5-13.3c1.4-0.2,2.9-0.3,4.4-0.3C257,379,259,379.6,260.3,380.9z M252.1,391.4c4.4,0,7.1-2.1,7.6-5.7
						c0.5-3.2-1.5-5.3-5.9-5.3c-1.1,0-2,0.2-2.4,0.2l-1.2,10.7C250.6,391.6,251.4,391.4,252.1,391.4"/>
				</g>
				<g>
					<path fill="#FFFFFF" d="M269.8,382.8c0.3,0,0.5,0,0.6,0.2l-0.2,1.7c-0.2,0-0.5-0.2-0.8-0.2c-1.5,0-2.7,0.9-3,2.3
						c-0.2,0.3-0.2,0.5-0.3,0.8l-0.6,5.1h-2.1l0.9-6.7c0.2-1.2,0.2-2.1,0.3-3h1.8l-0.2,2h0.2C267.3,383.7,268.5,382.8,269.8,382.8z"
						/>
				</g>
				<g>
					<path fill="#FFFFFF" d="M292.2,382.8h1.8c-0.2,0.8-0.2,1.5-0.5,2.6l-0.8,5.6c-0.3,2.3-1.1,3.5-2.1,4.5
						c-1.2,0.8-2.9,1.2-4.4,1.2c-1.4,0-2.9-0.3-3.6-0.9l0.8-1.4c0.8,0.5,1.8,0.8,3.2,0.8c2.1,0,3.9-0.9,4.1-3.3l0.2-1.1l0,0
						c-0.8,0.9-2,1.7-3.8,1.5c-2.9,0-4.7-2-4.4-4.7c0.5-3.3,3.2-5.1,5.7-5.1c2,0,2.9,0.9,3.5,1.7l0,0L292.2,382.8z M291.1,388.6
						l0.2-1.7c0-0.3,0-0.6,0-0.8c-0.2-1.1-1.2-2-2.7-1.8c-2,0-3.6,1.4-3.9,3.6c-0.2,2,0.8,3.5,3,3.5c1.2,0,2.6-0.8,3-1.8
						C291,389.2,291.1,388.9,291.1,388.6"/>
				</g>
				<g>
					<path fill="#FFFFFF" d="M279.8,390.4c-0.2,0.8-0.2,1.7,0,2.3h-2v-1.2l0,0c-0.8,0.8-2,1.5-3.8,1.4c-2.3,0-3.5-1.4-3.2-2.9
						c0.3-2.3,2.9-3.6,7.3-3.6c0,0,0,0,0.2,0v-0.2c0.2-0.8,0-2.3-2.4-2.3c-1.1,0-2.3,0.3-3.2,0.8l-0.3-1.2c1.1-0.5,2.4-0.9,3.9-0.8
						c3.5,0,4.2,2.1,3.8,4.1L279.8,390.4z M278,389.5l0.2-1.7c-0.2,0-0.3,0-0.3,0c-2.1,0-4.5,0.5-4.7,2.3c-0.2,1.2,0.8,1.7,1.8,1.7
						c1.5,0,2.6-0.8,2.9-1.7C277.8,389.9,277.8,389.6,278,389.5"/>
				</g>
				<g>
					<path fill="#FFFFFF" d="M302.3,382.7c3.3,0,5.3,2,5,5c-0.5,3.6-3.5,5.1-6.3,5.1c-3.2,0-5.3-2-5-5
						C296.3,384.6,299.2,382.7,302.3,382.7z M301.1,391.4c2,0,3.6-1.5,3.9-3.8c0.2-1.7-0.5-3.8-2.9-3.8s-3.8,1.8-4.1,3.8
						C297.8,389.9,299.2,391.6,301.1,391.4"/>
				</g>
				<g>
					<path fill="#FFFFFF" d="M316.2,382.7c1.5,0,3.9,0.9,3.6,4.2l-0.8,5.7H317l0.6-5.6c0.2-1.5-0.3-2.9-2.3-2.9
						c-1.4,0-2.6,0.9-3,1.8c-0.2,0.2-0.3,0.5-0.3,0.8l-0.8,5.7h-2.1l0.8-7.1c0.2-1.1,0.2-1.8,0.2-2.6h1.8v1.7l0,0
						C312.8,383.6,314.3,382.7,316.2,382.7z"/>
				</g>
				<g>
					<path fill="#FFFFFF" d="M327.1,382.7c1.2,0,2.1,0.3,2.7,0.6l-0.8,1.2c-0.5-0.3-1.2-0.6-2.3-0.6c-1.2,0-2,0.6-2.1,1.4
						c-0.2,0.8,0.5,1.2,2.1,1.7c1.8,0.6,2.9,1.5,2.7,2.9c-0.2,1.7-2,3-4.7,3c-1.2,0-2.4-0.3-3.2-0.6l0.8-1.4
						c0.6,0.3,1.5,0.6,2.6,0.8c1.5,0,2.3-0.6,2.3-1.5c0.2-0.9-0.3-1.4-2-1.7c-2-0.6-2.9-1.5-2.7-2.7
						C323,383.9,324.7,382.7,327.1,382.7z"/>
				</g>
			</g>
		</g>
		<g>
			<g>
				<g>
					<path fill="#FFFFFF" d="M268.6,278.2c-0.2,0.6-0.3,1.1-0.3,1.4h-11.9c-0.5,3.8,2.1,5.3,5.1,5.3c2.3,0,3.6-0.3,4.8-0.9l0.3,2
						c-1.2,0.5-3.2,0.9-5.9,0.9c-5.3,0-8-3.2-7.4-7.7c0.6-4.5,4.1-8.5,9.1-8.3C267.9,270.8,268.9,275.3,268.6,278.2z M256.5,277.5
						h9.1c0.2-1.8-0.3-4.5-3.8-4.7C258.8,272.9,257,275.5,256.5,277.5"/>
				</g>
				<g>
					<path fill="#FFFFFF" d="M249.1,280.9c0.5,3,0.8,5.1,1.1,6H247c-0.3-0.6-0.6-2.6-1.1-5.3c-0.3-3-1.5-4.2-4.4-4.1h-2.9l-1.2,9.5
						h-3l2.6-21.3c1.7-0.3,3.8-0.5,5.9-0.5c3.3,0,5.3,0.5,6.7,1.8c1.1,1.1,1.7,2.4,1.5,4.2c-0.3,2.9-2.6,4.8-5.1,5.6v0.2
						C247.9,277,249,278.7,249.1,280.9z M242.3,275.3c3.3,0,5.4-1.7,5.9-4.1c0.3-2.7-1.7-3.9-4.8-3.9c-1.5,0-2.6,0.2-3,0.3l-0.9,7.9
						L242.3,275.3"/>
				</g>
				<g>
					<path fill="#FFFFFF" d="M283.7,283.1c-0.3,1.4-0.3,2.7-0.2,3.8h-2.9v-2h-0.2c-1.2,1.2-3,2.3-5.4,2.3c-3.5,0-5-2.1-4.7-4.4
						c0.5-3.8,4.4-5.9,10.7-5.9h0.2v-0.3c0.2-1.2,0.2-3.6-3.3-3.6c-1.5,0-3.3,0.5-4.7,1.2l-0.5-1.8c1.5-0.9,3.6-1.4,5.9-1.4
						c5.1,0,6,3.3,5.6,6.3L283.7,283.1z M281,281.5l0.3-2.7c-0.2,0-0.3,0-0.5,0c-3.2,0-6.8,0.6-7.1,3.6c-0.2,1.8,1.1,2.7,2.6,2.7
						c2.3,0,3.8-1.2,4.4-2.7C280.7,282.1,280.9,281.8,281,281.5"/>
				</g>
				<g>
					<path fill="#FFFFFF" d="M297.6,270.8c0.3,0,0.6,0,0.9,0.2l-0.3,2.7c-0.3-0.2-0.6-0.2-1.1-0.2c-2.1,0-3.8,1.5-4.7,3.6
						c-0.2,0.5-0.3,0.8-0.3,1.4l-1.1,8.2h-3l1.2-10.7c0.2-1.8,0.5-3.3,0.5-4.8h2.7l-0.3,3h0.2C293.7,272.2,295.7,270.8,297.6,270.8z
						"/>
				</g>
				<g>
					<polygon fill="#FFFFFF" points="327.6,264.9 325,286.7 322,286.7 323.2,276.6 311.6,276.6 310.5,286.7 307.3,286.7 
						309.9,265.1 313.1,265.1 312,274.1 323.5,274.1 324.6,265.1 					"/>
				</g>
				<g>
					<path fill="#FFFFFF" d="M342.7,282.9c-0.3,1.4-0.3,2.7-0.2,3.8h-2.9v-2h-0.2c-1.2,1.2-3,2.3-5.4,2.3c-3.5,0-5-2.1-4.7-4.4
						c0.5-3.8,4.4-5.9,10.7-5.9h0.2v-0.3c0.2-1.2,0.2-3.6-3.3-3.6c-1.5,0-3.3,0.5-4.7,1.2l-0.5-1.8c1.5-0.9,3.6-1.4,5.9-1.4
						c5.1,0,6,3.3,5.6,6.3L342.7,282.9z M339.8,281.4l0.3-2.7c-0.2,0-0.3,0-0.5,0c-3.2,0-6.8,0.6-7.1,3.6c-0.2,1.8,1.1,2.7,2.6,2.7
						c2.3,0,3.8-1.2,4.4-2.7C339.8,282,340,281.7,339.8,281.4"/>
				</g>
				<g>
					<polygon fill="#FFFFFF" points="353.1,263.7 350.3,286.5 347.2,286.7 349.9,263.7 					"/>
				</g>
				<g>
					<polygon fill="#FFFFFF" points="361.3,263.7 358.7,286.5 355.5,286.7 358.3,263.7 					"/>
				</g>
			</g>
		</g>
		<g>
			<g>
				<g>
					<path fill="#FFFFFF" d="M392,142.6c1.5,0,2.4,0.3,2.7,0.5l-0.6,1.1c-0.6-0.3-1.4-0.5-2.4-0.3c-2.9,0-5,1.5-5.3,3.9
						c-0.3,2.3,1.2,3.9,4.1,3.9c0.9,0,2-0.2,2.6-0.5l0.2,1.1c-0.6,0.2-1.8,0.5-3.3,0.5c-3.3,0-5.7-1.7-5.4-4.8
						C385.3,144.7,388.2,142.6,392,142.6z"/>
				</g>
				<g>
					<path fill="#FFFFFF" d="M403.6,145.5l-0.6,5c-0.2,0.8-0.2,1.4-0.2,1.8h-1.4l0.2-1.1l0,0c-0.5,0.6-1.5,1.4-3,1.2
						c-1.4,0-2.9-0.6-2.6-3l0.6-4.1h1.5l-0.5,3.8c-0.3,1.4,0.3,2.3,1.7,2.1c1.1,0,1.8-0.6,2.3-1.2c0.2-0.2,0.2-0.5,0.3-0.6l0.5-4.2
						L403.6,145.5z"/>
				</g>
				<g>
					<path fill="#FFFFFF" d="M415.4,143.4l-0.2,2h2.3l-0.2,0.9h-2.3l-0.5,3.6c-0.2,0.9,0,1.4,0.9,1.4c0.5,0,0.8,0,0.9,0l-0.2,0.9
						c-0.3,0.2-0.8,0.2-1.4,0.2c-0.8,0-1.4-0.3-1.7-0.5c-0.5-0.5-0.5-1.1-0.5-1.8l0.5-3.8h-1.4l0.2-0.9h1.4l0.2-1.7L415.4,143.4z"/>
				</g>
				<g>
					<path fill="#FFFFFF" d="M408.9,145.4c0.9,0,1.7,0.2,2.1,0.3l-0.6,0.9c-0.3-0.2-0.9-0.5-1.7-0.3c-0.9,0-1.5,0.5-1.7,1.1
						c-0.2,0.6,0.3,0.9,1.4,1.1c1.4,0.5,2.1,1.1,2.1,2c-0.2,1.2-1.4,2.1-3.5,2c-0.9,0-1.8-0.2-2.4-0.5l0.6-0.9
						c0.5,0.3,1.2,0.6,2,0.5c1.2,0,1.8-0.5,1.8-1.1c0.2-0.6-0.3-0.9-1.4-1.2c-1.5-0.3-2.1-1.1-2.1-2
						C405.7,146.3,406.9,145.5,408.9,145.4z"/>
				</g>
				<g>
					<path fill="#FFFFFF" d="M423,145.4c2.4,0,4.1,1.5,3.6,3.6c-0.3,2.6-2.7,3.6-4.8,3.8c-2.3,0-4.1-1.4-3.6-3.6
						C418.6,146.7,420.5,145.4,423,145.4z M422.1,151.5c1.5,0,2.9-1.1,2.9-2.7c0.2-1.2-0.5-2.7-2.3-2.6c-1.8,0-2.9,1.4-3,2.7
						C419.6,150.5,420.5,151.7,422.1,151.5"/>
				</g>
				<g>
					<path fill="#FFFFFF" d="M438.5,145.4c1.2,0,2.7,0.6,2.4,3l-0.6,4.1h-1.5l0.6-3.9c0.3-1.4-0.5-2.1-1.7-2.1
						c-0.9,0-1.7,0.6-2.1,1.2c-0.2,0.2-0.2,0.5-0.3,0.6l-0.3,4.2h-1.5l0.6-4.1c0.2-1.1-0.5-2-1.7-1.8c-0.9,0-1.8,0.8-2.1,1.4
						c-0.2,0.2-0.2,0.5-0.3,0.6l-0.6,4.1h-1.5l0.6-5c0.2-0.8,0.2-1.4,0.2-1.8h1.4l-0.2,1.1l0,0c0.6-0.6,1.5-1.4,2.9-1.2
						c1.2,0,2,0.5,2.4,1.4l0,0c0.3-0.3,0.8-0.6,1.1-0.9C437.2,145.5,437.8,145.2,438.5,145.4z"/>
				</g>
				<g>
					<path fill="#FFFFFF" d="M380.6,160l-0.8,6.3c-0.3,2.6-2,3.3-4.1,3.3c-0.6,0-1.2-0.2-1.7-0.2l0.5-1.1c0.3,0.2,0.8,0.2,1.2,0.3
						c1.4,0,2.3-0.5,2.4-2.4l0.8-6.3L380.6,160z"/>
				</g>
				<g>
					<path fill="#FFFFFF" d="M411.6,165.8c0,0.3-0.2,0.5-0.2,0.6h-6c-0.2,1.7,1.1,2.4,2.7,2.4c1.1,0,1.8-0.2,2.4-0.3l0.2,0.9
						c-0.6,0.2-1.5,0.5-3,0.5c-2.7,0-4.2-1.5-3.8-3.5c0.2-2.1,2.1-3.8,4.5-3.8C411.3,162.4,411.9,164.5,411.6,165.8z M405.6,165.5
						h4.5c0.2-0.8-0.2-2.1-2-2C406.6,163.5,405.9,164.5,405.6,165.5"/>
				</g>
				<g>
					<path fill="#FFFFFF" d="M403.5,162.7l-3.6,6.8h-1.4l-0.9-3.3c-0.2-0.8-0.5-1.5-0.5-2.3l0,0c-0.3,0.8-0.6,1.5-1.1,2.3l-1.8,3.3
						h-1.4l-1.8-6.8h1.7l0.6,3.5c0.2,0.8,0.3,1.5,0.5,2.3l0,0c0.3-0.8,0.8-1.4,1.1-2.1l1.8-3.6h1.4l0.9,3.5c0.2,0.9,0.5,1.5,0.5,2.3
						l0,0c0.3-0.8,0.6-1.4,0.9-2.1l1.7-3.5L403.5,162.7z"/>
				</g>
				<g>
					<path fill="#FFFFFF" d="M389.6,165.8c0,0.3-0.2,0.5-0.2,0.6h-6c-0.2,1.7,1.1,2.4,2.7,2.4c1.1,0,1.8-0.2,2.4-0.3l0.2,0.9
						c-0.6,0.2-1.5,0.5-2.9,0.5c-2.7,0-4.2-1.5-3.8-3.5c0.2-2.1,2-3.8,4.5-3.8C389.3,162.6,389.7,164.5,389.6,165.8z M383.5,165.5
						h4.5c0.2-0.8-0.2-2.1-2-2C384.6,163.5,383.8,164.7,383.5,165.5"/>
				</g>
				<g>
					<polygon fill="#FFFFFF" points="416,159.4 414.8,169.5 413.3,169.7 414.5,159.4 					"/>
				</g>
				<g>
					<polygon fill="#FFFFFF" points="420.2,159.4 419,169.5 417.5,169.5 418.6,159.6 					"/>
				</g>
				<g>
					<path fill="#FFFFFF" d="M429,165.8c0,0.3-0.2,0.5-0.2,0.6h-6c-0.2,1.7,1.1,2.4,2.7,2.4c1.1,0,1.8-0.2,2.4-0.3l0.2,0.9
						c-0.6,0.2-1.5,0.5-2.9,0.5c-2.7,0-4.2-1.5-3.8-3.5c0.2-2.1,2-3.8,4.5-3.8C428.7,162.4,429.3,164.5,429,165.8z M423,165.5h4.5
						c0.2-0.8-0.2-2.1-2-2C424.2,163.5,423.3,164.5,423,165.5"/>
				</g>
				<g>
					<path fill="#FFFFFF" d="M435.2,162.6c0.2,0,0.3,0,0.5,0l-0.2,1.2c-0.2,0-0.3,0-0.6,0c-1.1,0-2,0.8-2.3,1.7
						c0,0.2-0.2,0.3-0.2,0.6l-0.5,3.6h-1.5l0.5-4.7c0.2-0.8,0.2-1.5,0.2-2.1h1.4l-0.2,1.4h0.2C433.4,163,434.3,162.4,435.2,162.6z"
						/>
				</g>
				<g>
					<path fill="#FFFFFF" d="M444.3,162.6l-2.9,5c-1.4,2.4-2.4,3.6-3.5,4.2c-0.9,0.5-1.7,0.8-2.1,0.9l-0.2-1.1
						c0.5,0,0.9-0.3,1.5-0.8c0.5-0.3,1.1-0.8,1.4-1.5c0.2-0.2,0.2-0.2,0.2-0.3c0,0,0-0.2,0-0.3l-2.4-6.3h1.7l1.4,4.1
						c0.2,0.5,0.3,1.1,0.3,1.4l0,0c0.3-0.5,0.5-0.9,0.8-1.4l2.3-4.1L444.3,162.6z"/>
				</g>
			</g>
		</g>
		<g>
			<g>
				<g>
					<path fill="#FFFFFF" d="M93.1,252.2c0,0.3-0.2,0.6-0.2,0.8h-7.9c-0.2,2.4,1.4,3.5,3.5,3.5c1.5,0,2.4-0.3,3.2-0.5l0.2,1.2
						c-0.8,0.3-2.1,0.6-3.8,0.6c-3.5,0-5.3-2-5-4.8s2.6-5.3,5.9-5.3C92.7,247.7,93.4,250.4,93.1,252.2z M85.1,251.8h6
						c0.2-1.1-0.2-2.9-2.6-2.9C86.6,249,85.6,250.6,85.1,251.8"/>
				</g>
				<g>
					<polygon fill="#FFFFFF" points="83.3,244.2 83.2,245.6 78.3,245.6 76.8,257.7 74.8,257.7 76.4,245.6 71.5,245.6 71.7,244.2 
											"/>
				</g>
				<g>
					<path fill="#FFFFFF" d="M108.7,247.7c1.5,0,3.6,0.9,3.3,4.2l-0.8,5.7h-2l0.6-5.4c0.2-1.8-0.5-3-2.1-2.9c-1.2,0-2.3,0.8-2.6,1.7
						c-0.2,0.3-0.3,0.6-0.3,0.9l-0.8,5.9h-2l0.8-5.7c0.2-1.5-0.5-2.7-2-2.6c-1.4,0-2.4,0.9-2.7,1.8c-0.2,0.3-0.3,0.6-0.3,0.9
						l-0.8,5.7h-2l0.8-7.1c0.2-1.1,0.2-1.8,0.2-2.6H98v1.5l0,0c0.8-0.9,1.8-1.8,3.8-1.8c1.5,0,2.6,0.8,3,2l0,0
						c0.5-0.5,0.9-0.9,1.5-1.4C106.7,247.8,107.5,247.7,108.7,247.7z"/>
				</g>
				<g>
					<path fill="#FFFFFF" d="M121.5,247.7c2.7,0,4.5,2,4.2,5c-0.5,3.5-3,5.1-5.7,5.1c-1.5,0-2.7-0.6-3.3-1.5l-0.6,5.3h-2l1.2-10.6
						c0.2-1.2,0.2-2.3,0.3-3.2h1.8v1.7l0,0C118.2,248.3,119.7,247.7,121.5,247.7z M119.7,256.5c2.1,0,3.5-1.5,3.9-3.8
						c0.2-2-0.8-3.6-2.9-3.6c-1.4,0-2.9,0.9-3.3,2.1c-0.2,0.2-0.2,0.5-0.3,0.8l-0.2,1.7c0,0.3,0,0.5,0,0.8
						C117.2,255.7,118.4,256.5,119.7,256.5"/>
				</g>
				<g>
					<polygon fill="#FFFFFF" points="69.2,268.2 69.1,269.8 62.4,269.6 62,274 68.2,274 68,275.5 62,275.5 61.2,280.3 68,280.3 
						67.9,281.8 59.1,281.8 60.6,268.2 					"/>
				</g>
				<g>
					<path fill="#FFFFFF" d="M80.3,272l-4.4,4.7l3.3,5H77l-1.4-2.3c-0.3-0.6-0.6-1.2-1.1-1.7l0,0c-0.5,0.6-0.9,1.1-1.4,1.8l-1.8,2.3
						h-2.3l4.5-5l-3.3-4.8h2.3l1.4,2.1c0.3,0.6,0.6,1.1,1.1,1.7l0,0c0.5-0.6,0.9-1.1,1.2-1.5l1.8-2.1L80.3,272z"/>
				</g>
				<g>
					<path fill="#FFFFFF" d="M85,267.5l-0.8,6c0.5-0.5,1.1-0.9,1.7-1.4c0.6-0.3,1.4-0.5,2.3-0.6c1.5,0,3.8,0.9,3.5,4.2l-0.8,5.7
						h-2.1l0.6-5.6c0.2-1.5-0.3-2.9-2.3-2.9c-1.4,0-2.6,0.8-2.9,1.8c-0.2,0.3-0.2,0.5-0.3,0.8l-0.8,5.7H81l1.7-14.4L85,267.5z"/>
				</g>
				<g>
					<polygon fill="#FFFFFF" points="94.2,281.7 95.4,272 97.5,272 96.3,281.7 					"/>
				</g>
				<g>
					<path fill="#FFFFFF" d="M96.6,270.4c-0.8,0-1.2-0.6-1.1-1.2c0.2-0.6,0.8-1.1,1.5-1.2c0.8,0,1.2,0.6,1.1,1.2
						C98,269.8,97.4,270.4,96.6,270.4z"/>
				</g>
				<g>
					<path fill="#FFFFFF" d="M106.7,271.7c2.9,0,4.5,2,4.2,5c-0.5,3.5-3.2,5.1-5.6,5.1c-1.7,0-2.9-0.6-3.6-1.8l0,0l-0.2,1.5h-1.8
						c0.2-0.6,0.3-1.7,0.5-2.4l1.5-11.8h2l-0.8,6C103.6,272.5,105.1,271.7,106.7,271.7z M105.1,280.5c2.1,0,3.5-1.5,3.9-3.6
						c0.2-2-0.8-3.6-2.9-3.6c-1.4,0-2.9,0.8-3.3,2.1c0,0.2-0.2,0.5-0.3,0.8l-0.2,1.7c0,0.2,0,0.5,0,0.6
						C102.4,279.6,103.6,280.5,105.1,280.5"/>
				</g>
				<g>
					<polygon fill="#FFFFFF" points="112.9,281.5 114.1,272 116.1,271.9 114.9,281.7 					"/>
				</g>
				<g>
					<path fill="#FFFFFF" d="M130.8,271.7c1.2,0,2.1,0.3,2.7,0.6l-0.8,1.2c-0.5-0.3-1.2-0.6-2.3-0.5c-1.2,0-2,0.6-2.1,1.4
						s0.5,1.2,2,1.7c1.8,0.6,2.9,1.5,2.6,2.9c-0.2,1.7-1.8,3-4.5,3c-1.2,0-2.3-0.3-3-0.6l0.8-1.4c0.6,0.3,1.5,0.6,2.6,0.8
						c1.5,0,2.3-0.6,2.3-1.5c0.2-0.9-0.3-1.4-2-1.7c-2-0.6-2.9-1.5-2.7-2.7C126.5,272.9,128.4,271.7,130.8,271.7z"/>
				</g>
				<g>
					<path fill="#FFFFFF" d="M122.3,269.2l-0.3,2.7h2.9l-0.3,1.4h-2.9l-0.6,5.1c-0.2,1.2,0.2,2,1.4,2c0.6,0,0.9,0,1.2,0l-0.2,1.4
						c-0.5,0.2-1.1,0.2-1.8,0.3c-0.9,0-1.7-0.2-2.1-0.8c-0.5-0.6-0.6-1.4-0.5-2.6l0.6-5.3h-1.8l0.3-1.4h1.8l0.3-2.3L122.3,269.2z"/>
				</g>
				<g>
					<path fill="#FFFFFF" d="M115.2,270.2c-0.8,0-1.2-0.6-1.1-1.2c0.2-0.6,0.8-1.1,1.5-1.2c0.8,0,1.2,0.6,1.1,1.2
						C116.7,269.9,116.1,270.4,115.2,270.2z"/>
				</g>
			</g>
		</g>
		<g>
			<g>
				<g>
					<path fill="#FFFFFF" d="M54.9,406.7c2.3,0,3.8,0.5,4.5,0.9l-0.9,2c-0.6-0.3-2-0.9-3.9-1.1c-2.9,0-4.2,1.7-4.4,3
						c-0.2,1.8,0.9,2.7,3.8,3.8c3.6,1.4,5.1,2.9,4.8,5.7c-0.3,3-3.2,5.6-8.2,5.6c-2.1,0-4.2-0.5-5.3-1.2l0.9-2.1
						c1.1,0.8,2.9,1.2,4.8,1.2c2.9,0,4.7-1.4,5-3.3c0.2-1.8-0.8-2.9-3.5-3.9c-3.3-1.2-5.3-2.7-5-5.4C47.8,409,50.7,406.7,54.9,406.7
						z"/>
				</g>
				<g>
					<path fill="#FFFFFF" d="M67.1,405.8l-1.1,8.6l0,0c0.6-0.8,1.4-1.2,2.1-1.8c0.9-0.5,2-0.8,3-0.8c2.1,0,5.1,1.2,4.7,5.9l-1.1,8.3
						H72l0.9-8c0.3-2.3-0.5-4.2-3.2-4.2c-1.8,0-3.5,1.1-4.1,2.6c-0.2,0.3-0.3,0.8-0.5,1.2l-1.1,8.5h-2.9l2.6-20.6L67.1,405.8z"/>
				</g>
				<g>
					<path fill="#FFFFFF" d="M106.9,412c3.8,0,6.2,2.9,5.7,7.1c-0.6,5-4.2,7.6-7.9,7.6c-2,0-3.6-0.9-4.5-2.1l0,0l-0.9,7.6h-2.7
						l2-15.3c0.2-1.8,0.3-3.2,0.3-4.5h2.6l-0.2,2.4l0,0C102.5,413.1,104.3,412.1,106.9,412z M104.5,424.7c3,0,5-2.3,5.3-5.4
						c0.3-2.7-1.1-5.3-3.9-5.3c-2,0-3.9,1.2-4.7,3.2c-0.2,0.3-0.3,0.8-0.5,1.1l-0.3,2.4c0,0.3,0,0.8,0,1.1
						C100.8,423.5,102.5,424.7,104.5,424.7"/>
				</g>
				<g>
					<path fill="#FFFFFF" d="M87.8,412.1c4.4,0,7.1,2.9,6.7,7.3c-0.6,5.1-4.8,7.6-8.5,7.4c-4.2,0.2-7.1-2.7-6.7-7.3
						C79.8,414.9,83.6,412,87.8,412.1z M86.2,424.8c2.7,0,5-2.3,5.3-5.4c0.3-2.4-0.6-5.4-3.9-5.4c-3.3,0-5.1,2.9-5.4,5.4
						C81.8,422.6,83.5,424.8,86.2,424.8"/>
				</g>
			</g>
		</g>
		<g>
			<g>
				<g>
					<path fill="#FFFFFF" d="M45.1,507.2c1.4,0.3,2.9,1.2,2.7,3c-0.2,1.1-0.8,1.8-1.5,2.6c-1.2,0.8-2.9,1.2-5.4,1.2
						c-1.4,0-2.4,0-3-0.2l1.5-12.2c0.9-0.2,2.3-0.3,3.6-0.2c2,0,3.2,0.3,3.9,0.9c0.8,0.5,1.1,1.2,1.1,2.3
						C47.8,505.6,46.7,506.8,45.1,507.2L45.1,507.2z M41.6,512.7c2,0,3.9-0.6,4.1-2.4c0.2-1.7-1.5-2.3-3.6-2.4h-1.7l-0.5,4.7
						C40.2,512.7,40.8,512.8,41.6,512.7 M41.1,502.8l-0.6,3.9h1.8c2.1,0,3.5-0.9,3.5-2.1c0.3-1.4-1.1-2.1-3-2
						C42,502.5,41.4,502.5,41.1,502.8"/>
				</g>
				<g>
					<path fill="#FFFFFF" d="M55.6,504.7c0.3,0,0.3,0,0.6,0.2l-0.2,1.5c-0.2,0-0.5,0-0.6-0.2c-1.4,0-2.6,0.9-2.9,2.1
						c-0.2,0.2-0.2,0.5-0.2,0.8l-0.5,4.7h-2l0.8-6c0.2-1.1,0.2-2,0.3-2.7h1.7l-0.2,1.8h0.2C53.2,505.4,54.4,504.8,55.6,504.7z"/>
				</g>
				<g>
					<polygon fill="#FFFFFF" points="57.3,513.9 58.4,504.8 60.3,505 59.1,513.9 					"/>
				</g>
				<g>
					<path fill="#FFFFFF" d="M66.2,502.2l-0.3,2.6h2.9l-0.2,1.2h-2.9l-0.6,4.8c-0.2,1.1,0.3,1.7,1.4,1.8c0.5,0,0.9,0,1.2,0l-0.2,1.2
						c-0.5,0.2-1.1,0.2-1.8,0.3c-0.9,0-1.7-0.2-2-0.6c-0.5-0.5-0.6-1.4-0.5-2.3l0.6-4.8h-1.7l0.2-1.2h1.7l0.2-2.1L66.2,502.2z"/>
				</g>
				<g>
					<path fill="#FFFFFF" d="M59.4,503.4c-0.8,0-1.1-0.5-1.1-1.1c0.2-0.6,0.8-1.1,1.4-0.9c0.8,0,1.1,0.5,1.1,1.1
						C60.8,502.8,60.2,503.4,59.4,503.4z"/>
				</g>
				<g>
					<polygon fill="#FFFFFF" points="69.9,513.7 70.9,505 72.9,505 71.8,513.9 					"/>
				</g>
				<g>
					<path fill="#FFFFFF" d="M72,503.3c-0.8,0-1.1-0.5-1.1-1.1c0.2-0.6,0.8-1.1,1.4-0.9c0.8,0,1.1,0.5,1.1,1.1
						C73.3,503,72.7,503.3,72,503.3z"/>
				</g>
				<g>
					<path fill="#FFFFFF" d="M79.5,504.7c1.1,0,2,0.2,2.6,0.6l-0.8,1.2c-0.5-0.3-1.1-0.6-2.1-0.5c-1.2,0-2,0.6-2,1.2
						c-0.2,0.8,0.5,1.1,2,1.5c1.8,0.6,2.7,1.4,2.6,2.7c-0.2,1.5-1.8,2.7-4.4,2.7c-1.2,0-2.3-0.2-2.9-0.6l0.8-1.2
						c0.5,0.3,1.5,0.6,2.4,0.6c1.4,0,2.3-0.6,2.3-1.4c0.2-0.8-0.3-1.2-1.8-1.5c-1.8-0.5-2.7-1.5-2.6-2.6
						C75.6,505.9,77.1,504.8,79.5,504.7z"/>
				</g>
				<g>
					<path fill="#FFFFFF" d="M87.4,500.7l-0.6,5.6c0.5-0.5,1.1-0.8,1.7-1.2c0.6-0.5,1.4-0.5,2.1-0.5c1.5,0,3.6,0.8,3.3,3.8l-0.6,5.3
						h-2l0.6-5.1c0.3-1.4-0.3-2.7-2.3-2.6c-1.2,0-2.4,0.8-2.7,1.7c-0.2,0.2-0.2,0.5-0.3,0.8l-0.6,5.3h-2l1.5-13.2L87.4,500.7z"/>
				</g>
				<g>
					<path fill="#FFFFFF" d="M63.7,533.8c0.8,0.8,1.5,1.4,2.3,2.1h-2.3c-0.3-0.3-0.8-0.8-1.2-1.4c-1.5,1.1-3,1.4-4.7,1.5
						c-2.9,0-4.5-1.5-4.2-3.3c0.2-1.7,1.5-2.9,3.5-3.6l0,0c-0.6-0.9-1.1-1.8-0.9-2.6c0.2-1.5,1.7-3.2,4.2-3.2c1.8,0,3.2,1.1,3,2.6
						c-0.3,1.4-1.2,2.3-3.8,3.3l0,0c1.1,1.2,2.4,2.6,3.2,3.5c0.9-0.8,1.4-2.1,2-3.6h1.8C65.8,531.1,65,532.6,63.7,533.8z M58.2,535
						c1.4,0,2.4-0.5,3.3-1.1c-0.8-0.9-2.3-2.3-3.6-3.9c-0.9,0.5-2.1,1.2-2.3,2.6C55.3,533.8,56.4,534.9,58.2,535 M60,524.5
						c-1.2,0-2,0.9-2.1,1.8c-0.2,0.9,0.3,1.5,0.9,2.3c1.7-0.8,2.7-1.4,2.7-2.4C61.5,525.2,61.2,524.3,60,524.5"/>
				</g>
				<g>
					<path fill="#FFFFFF" d="M49.1,548.9c3.2,0,5,1.8,4.7,4.5c-0.5,3.3-3.3,4.7-5.9,4.7c-2.9,0-5-1.7-4.7-4.5
						C43.6,550.8,46.1,548.9,49.1,548.9z M48.1,557.1c1.8,0,3.5-1.4,3.8-3.5c0.2-1.5-0.5-3.5-2.7-3.5c-2.3,0-3.5,1.7-3.8,3.5
						C45.1,555.6,46.1,557,48.1,557.1"/>
				</g>
				<g>
					<path fill="#FFFFFF" d="M38.4,545.5c1.5,0,2.6,0.3,3.2,0.6l-0.8,1.2c-0.5-0.3-1.4-0.6-2.7-0.6c-2.1,0-3,1.1-3,1.8
						c-0.2,1.2,0.8,1.8,2.7,2.4c2.4,0.8,3.6,1.8,3.3,3.6c-0.2,2-2.1,3.6-5.7,3.6c-1.5,0-3-0.3-3.6-0.9l0.8-1.4
						c0.8,0.5,2,0.8,3.3,0.9c2,0,3.3-0.9,3.3-2.1c0-1.2-0.6-1.8-2.6-2.4c-2.3-0.8-3.8-1.8-3.5-3.5C33.4,547,35.5,545.5,38.4,545.5z"
						/>
				</g>
				<g>
					<path fill="#FFFFFF" d="M65.9,549.1l-0.8,6.5c-0.2,0.9-0.2,1.7-0.2,2.4h-1.8v-1.5l0,0c-0.6,0.8-1.8,1.7-3.8,1.7
						c-1.7,0-3.6-0.8-3.2-3.9l0.6-5.1h2l-0.6,4.8c-0.2,1.7,0.3,2.9,2.1,2.7c1.4,0,2.4-0.8,2.7-1.5c0.2-0.3,0.3-0.5,0.3-0.8l0.6-5.4
						L65.9,549.1z"/>
				</g>
				<g>
					<path fill="#FFFFFF" d="M71.8,546.5l-0.3,2.6h2.9l-0.2,1.2h-2.9l-0.6,4.8c-0.2,1.1,0.2,1.7,1.4,1.8c0.5,0,0.9,0,1.2,0l-0.2,1.2
						c-0.5,0.2-1.1,0.2-1.8,0.3c-0.9,0-1.7-0.2-2-0.6c-0.5-0.5-0.6-1.4-0.5-2.3l0.6-4.8h-1.7l0.2-1.2h1.7l0.2-2.1L71.8,546.5z"/>
				</g>
				<g>
					<path fill="#FFFFFF" d="M78.9,544.9l-0.6,5.6c0.5-0.5,1.1-0.8,1.7-1.2c0.6-0.5,1.4-0.5,2.1-0.5c1.5,0,3.6,0.8,3.3,3.8l-0.6,5.3
						h-2l0.6-5.1c0.3-1.4-0.3-2.7-2.3-2.6c-1.2,0-2.4,0.8-2.7,1.7c-0.2,0.2-0.2,0.5-0.3,0.8l-0.6,5.3h-2l1.5-13.2L78.9,544.9z"/>
				</g>
				<g>
					<path fill="#FFFFFF" d="M62.7,575.1c0,0.3-0.2,0.6-0.2,0.8H55c-0.2,2.1,1.4,3.2,3.3,3.2c1.4,0,2.3-0.3,3-0.5l0.2,1.2
						c-0.8,0.2-2,0.6-3.6,0.5c-3.3,0-5.1-1.8-4.8-4.4c0.3-2.7,2.4-4.8,5.6-4.8C62.3,570.9,62.9,573.6,62.7,575.1z M55.2,574.8h5.7
						c0.2-1.1-0.2-2.6-2.4-2.6C56.6,572.2,55.5,573.7,55.2,574.8"/>
				</g>
				<g>
					<path fill="#FFFFFF" d="M53.1,567.7l-5.7,12.4h-2l-1.1-6.5c-0.3-1.7-0.5-2.9-0.5-4.1l0,0c-0.5,1.2-0.9,2.4-1.7,4.1l-3,6.5h-2
						l-2.4-12.4h2.1L38,574c0.3,1.5,0.5,3.2,0.6,4.4c0.5-1.2,1.1-2.7,1.7-4.4l2.7-6.2h2l1.1,6.3c0.3,1.5,0.5,3,0.6,4.2l0,0
						c0.6-1.4,1.1-2.7,1.7-4.4l2.7-6.2L53.1,567.7z"/>
				</g>
				<g>
					<path fill="#FFFFFF" d="M77.3,568.6l-0.3,2.6h2.9l-0.2,1.2h-2.9l-0.6,4.8c-0.2,1.1,0.2,1.7,1.4,1.8c0.5,0,0.9,0,1.2,0l-0.2,1.2
						c-0.5,0.2-1.1,0.2-1.8,0.3c-0.9,0-1.7-0.2-2-0.6c-0.5-0.5-0.6-1.4-0.5-2.3l0.6-4.8h-1.7l0.2-1.2h1.7l0.2-2.1L77.3,568.6z"/>
				</g>
				<g>
					<path fill="#FFFFFF" d="M69.1,571c1.1,0,2,0.2,2.6,0.6l-0.8,1.2c-0.3-0.3-1.1-0.6-2.1-0.5c-1.2,0-2,0.6-2,1.2
						c-0.2,0.8,0.5,1.1,2,1.5c1.8,0.6,2.7,1.4,2.6,2.7c-0.2,1.5-1.8,2.7-4.4,2.7c-1.2,0-2.3-0.2-2.9-0.6l0.8-1.2
						c0.5,0.3,1.5,0.6,2.4,0.6c1.4,0,2.3-0.6,2.3-1.4c0.2-0.8-0.3-1.2-1.8-1.5c-1.8-0.5-2.7-1.5-2.6-2.6
						C65.2,572.1,66.8,571,69.1,571z"/>
				</g>
				<g>
					<polygon fill="#FFFFFF" points="41.4,602.2 42.3,593.4 44.3,593.2 43.4,602.3 					"/>
				</g>
				<g>
					<path fill="#FFFFFF" d="M41,589.8l-5.7,12.4h-2l-1.1-6.5c-0.3-1.7-0.5-2.9-0.5-4.1l0,0c-0.5,1.2-0.9,2.4-1.7,4.1l-3,6.5h-2
						l-2.4-12.4h2.1l1.1,6.3c0.3,1.5,0.5,3.2,0.6,4.4c0.5-1.2,1.1-2.7,1.7-4.4l2.9-6.2h2l1.1,6.3c0.3,1.5,0.5,3,0.6,4.2
						c0.6-1.4,1.1-2.7,1.7-4.4l2.7-6.2L41,589.8z"/>
				</g>
				<g>
					<path fill="#FFFFFF" d="M43.6,591.9c-0.8,0-1.1-0.5-1.1-1.1c0.2-0.6,0.8-1.1,1.4-0.9c0.8,0,1.1,0.5,1.1,1.1
						S44.3,591.7,43.6,591.9z"/>
				</g>
				<g>
					<polygon fill="#FFFFFF" points="50.2,589.2 48.5,602.3 46.6,602.3 48.1,589.2 					"/>
				</g>
				<g>
					<path fill="#FFFFFF" d="M61.5,599.9c-0.2,0.8-0.2,1.7-0.2,2.3h-1.8v-1.5l0,0c-0.8,0.9-2.1,1.8-3.8,1.7c-2.6,0-4.4-1.8-4.1-4.5
						c0.3-3,2.7-4.8,5.4-4.8c1.7,0,2.7,0.6,3.2,1.4l0,0l0.6-5.3h2L61.5,599.9z M59.6,598.5l0.2-1.5c0-0.2,0-0.5,0-0.6
						c-0.2-1.1-1.2-2-2.7-1.8c-2,0-3.3,1.5-3.6,3.3c-0.2,1.8,0.6,3.3,2.7,3.3c1.4,0,2.7-0.8,3-2C59.7,599,59.7,598.8,59.6,598.5"/>
				</g>
				<g>
					<polygon fill="#FFFFFF" points="68,589.2 66.5,602.2 64.6,602.2 66.1,589 					"/>
				</g>
				<g>
					<polygon fill="#FFFFFF" points="69.7,602.2 70.9,593.4 72.9,593.2 71.7,602.2 					"/>
				</g>
				<g>
					<path fill="#FFFFFF" d="M72,591.7c-0.8,0-1.1-0.5-1.1-1.1c0.2-0.6,0.8-1.1,1.4-0.9c0.8,0,1.1,0.5,1.1,1.1
						C73.3,591.4,72.7,591.7,72,591.7z"/>
				</g>
				<g>
					<path fill="#FFFFFF" d="M80.6,588.9c0.8,0,1.2,0.2,1.7,0.2l-0.5,1.2c-0.3-0.2-0.6-0.3-1.2-0.3c-1.7,0-2.3,1.2-2.4,2.6l-0.2,0.5
						h2.6l-0.2,1.2h-2.6l-0.9,7.6h-2l0.9-7.6h-1.5l0.2-1.2H76v-0.5c0.2-1.2,0.6-2.4,1.7-3.2C78.6,589.2,79.7,588.9,80.6,588.9z"/>
				</g>
				<g>
					<path fill="#FFFFFF" d="M90.9,597.2c0,0.3-0.2,0.6-0.2,0.8h-7.6c-0.2,2.1,1.4,3.2,3.3,3.2c1.4,0,2.3-0.3,3-0.5l0.2,1.2
						c-0.8,0.2-2,0.6-3.6,0.5c-3.3,0-5.1-1.8-4.8-4.4c0.3-2.7,2.4-4.8,5.6-4.8C90.4,593.1,91,595.5,90.9,597.2z M83.3,596.9H89
						c0.2-1.1-0.2-2.6-2.4-2.6C84.5,594.3,83.6,595.7,83.3,596.9"/>
				</g>
			</g>
		</g>
	</g>
	<g>
		<polygon fill="#405E5E" points="181,619.7 179.4,630.6 185.9,630.4 185.8,631.8 177.5,631.8 179,619.8 		"/>
		<polygon fill="#405E5E" points="187.9,631.8 189.1,623.2 191.1,623 189.9,631.8 		"/>
		<path fill="#405E5E" d="M198.9,618.9c0.8,0,1.2,0.2,1.7,0.2l-0.5,1.2c-0.3-0.2-0.6-0.3-1.2-0.3c-1.7,0-2.3,1.2-2.4,2.6l-0.2,0.5
			h2.6l-0.2,1.2h-2.6l-0.9,7.4h-2l0.9-7.4h-1.5l0.2-1.2h1.5l0.2-0.5c0.3-1.2,0.6-2.3,1.7-3C197,619.1,197.9,618.9,198.9,618.9z"/>
		<path fill="#405E5E" d="M190.2,621.7c-0.8,0-1.1-0.5-1.1-1.1c0.2-0.6,0.8-0.9,1.4-0.9c0.8,0,1.1,0.5,1.1,1.1
			C191.5,621.2,190.9,621.5,190.2,621.7z"/>
		<path fill="#405E5E" d="M203.5,620.6l-0.3,2.4h2.9l-0.2,1.2H203l-0.6,4.7c-0.2,1.1,0.2,1.7,1.4,1.7c0.5,0,0.9,0,1.2,0l-0.2,1.2
			c-0.5,0.2-1.1,0.2-1.8,0.3c-0.9,0-1.7-0.2-2-0.6c-0.5-0.5-0.5-1.2-0.5-2.3l0.6-4.7h-1.7l0.2-1.2h1.7l0.3-2.1L203.5,620.6z"/>
	</g>
</g>
<g id="Layer_6">
</g>
<g id="Layer_2">
</g>
<g>
	<circle fill="#4A8080" cx="377.9" cy="512.4" r="21.8"/>
	<g>
		<path fill="#FFFFFF" d="M382.8,513c-1.6,1.9-4.6,5-7.2,5c-2,0-3-2.4-3-4.1c0-4.2,4.3-8.4,6.4-8.4c0.6,0,1.5,0.2,1.5,1
			c0,1.7-3.4,4.8-4.9,5.8c-0.3,1.4,0.2,2.2,1.8,2.2c1.8,0,3.6-1.8,5-2.8L382.8,513z M379.5,503.4c0-1.4,1.7-2.7,3-2.7
			c0.6,0,1.1,0.5,1.1,1.1c0,1.4-1.3,3.1-2.8,3.1C380,504.9,379.5,504.2,379.5,503.4z"/>
	</g>
</g>
<g>
	<polygon fill="#80BCBC" points="242,412.3 239.8,425.9 317.5,425.8 319.3,411.8 	"/>
	<polygon fill="#4A8080" points="317.8,422.6 319.1,428.9 317.3,442.8 315.8,436.3 	"/>
	<polygon fill="#4A8080" points="315.8,436.3 317.3,442.8 239.6,443 238.2,436.5 	"/>
	<polygon fill="#4A8080" points="318.7,411.8 320,418.3 318.2,432.3 316.8,425.8 	"/>
	<polygon fill="#4A8080" points="316.8,425.8 318.2,432.3 240.5,432.4 239.2,425.9 	"/>
	<polygon fill="#4A8080" points="319.6,401.3 320.9,407.6 319.1,421.7 317.8,415.2 	"/>
	<polygon fill="#4A8080" points="317.8,415.2 319.1,421.7 241.6,421.8 240.1,415.3 	"/>
	<polygon fill="#80BCBC" points="242.2,401.7 240.1,415.3 317.8,415.2 319.6,401.3 	"/>
</g>
<g>
	<polygon fill="#4A8080" points="454.3,220.1 455.7,226.4 453.9,240.3 452.4,233.8 	"/>
	<polygon fill="#4A8080" points="452.4,233.8 453.9,240.3 376.2,240.5 374.8,234 	"/>
	<polygon fill="#4A8080" points="455.2,209.3 456.6,215.8 454.8,229.7 453.4,223.2 	"/>
	<polygon fill="#4A8080" points="453.4,223.2 454.8,229.7 377.1,229.9 375.7,223.4 	"/>
	<polygon fill="#4A8080" points="456.1,198.7 457.5,205.1 455.7,219.1 454.3,212.6 	"/>
	<polygon fill="#4A8080" points="454.3,212.6 455.7,219.1 378.1,219.3 376.6,212.8 	"/>
	<polygon fill="#80BCBC" points="378.8,199.2 376.6,212.8 454.3,212.6 456.1,198.7 	"/>
</g>
<g>
	<polygon fill="#80BCBC" points="170.8,207.7 168.7,221.3 246.3,221.2 248.2,207.3 	"/>
	<polygon fill="#80BCBC" points="169.9,218.3 167.7,231.9 245.4,231.8 247.3,217.9 	"/>
	<polygon fill="#4A8080" points="247.3,218 248.6,224.4 246.8,238.3 245.3,231.8 	"/>
	<polygon fill="#4A8080" points="245.3,231.8 246.8,238.3 169.1,238.4 167.7,231.9 	"/>
	<polygon fill="#4A8080" points="248.2,207.3 249.5,213.8 247.7,227.7 246.3,221.2 	"/>
	<polygon fill="#4A8080" points="246.3,221.2 247.7,227.7 170,227.8 168.7,221.3 	"/>
	<polygon fill="#4A8080" points="249.1,196.7 250.4,203.1 248.6,217.1 247.3,210.6 	"/>
	<polygon fill="#4A8080" points="247.3,210.6 248.6,217.1 171.1,217.3 169.6,210.8 	"/>
	<polygon fill="#80BCBC" points="171.7,197.2 169.6,210.8 247.3,210.6 249.1,196.7 	"/>
</g>
<g>
	<path fill="#FFFFFF" d="M182.2,389.1c1.3-0.3,2.6,0.9,2.4,2.3c-0.1,1.7-2.6,2.2-3.6,0.9C180,391.1,180.8,389.4,182.2,389.1
		L182.2,389.1z"/>
	<path fill="#FFFFFF" d="M179.5,394.3c1-0.9,2.5-0.6,3.7-0.7c1-0.1,2.2,0.1,2.8,1c0.7,1.2,0.9,2.6,1.4,4c0.3,1.1,0.9,2.2,0.6,3.4
		c-0.5,0.2-1.2,0.2-1.4-0.4c-0.6-1.6-1-3.2-1.5-4.8c-0.1-0.3-0.3-0.4-0.5-0.6c0.7,3.2,1.8,6.3,2.7,9.5c-0.8,0-1.6,0-2.3,0
		c-0.1,2.3,0,4.5,0,6.8c0,0.5-0.3,1.1-0.9,1.1c-0.6,0-1-0.5-0.9-1c0-2.3,0-4.5,0-6.8c-0.1,0-0.4,0-0.5,0c0,2.3,0,4.7,0,7
		c-0.1,1.1-1.7,1-1.8,0c0-2.3,0-4.7,0-7c-0.8,0-1.6,0-2.4,0c0.7-3.1,1.6-6.2,2.3-9.3c-0.1,0.1-0.3,0.2-0.4,0.2
		c-0.6,1.7-0.9,3.4-1.5,5.1c-0.2,0.8-1.5,0.7-1.6-0.1c0.1-1.3,0.6-2.5,1-3.7C178.5,396.6,178.6,395.3,179.5,394.3L179.5,394.3z"/>
</g>
<g>
	<path fill="#FFFFFF" d="M399.2,357.7c1.5-0.5,3.1,1.2,2.4,2.6c-0.4,1.4-2.5,1.8-3.4,0.6C397.2,359.9,397.8,358,399.2,357.7
		L399.2,357.7z"/>
	<path fill="#FFFFFF" d="M396,362.4c1.3-0.5,2.8-0.3,4.2-0.3c1.2,0,2.6-0.2,3.6,0.7c0.8,0.6,0.8,1.6,0.8,2.5c0,1.9,0,3.9,0,5.8
		c0,0.4-0.2,1.1-0.7,1.1c-0.6,0.2-1.1-0.5-1-1.1c0-1.9,0-3.7,0-5.6c-0.2,0-0.5,0-0.6,0c0,5.4,0,10.7,0,16.1c0.1,1.3-2.1,1.6-2.2,0.3
		c0-3.2,0-6.5,0-9.7c-0.1,0-0.4,0-0.5,0c0,2.8,0,5.6,0,8.4c0,0.6,0,1.2-0.3,1.8c-0.7,0.6-2.1,0.3-2.1-0.8c0-5.4,0-10.7,0-16.1
		c-0.1,0-0.4,0-0.5,0c0,1.8,0,3.6,0,5.3c0,0.6-0.3,1.5-1,1.3c-0.4,0-0.7-0.5-0.7-0.9c0-2.3,0-4.5,0-6.8
		C394.8,363.6,395.2,362.7,396,362.4L396,362.4z"/>
</g>
<g>
	<g>
		<path fill="#FFFFFF" d="M171.6,364.8c0.4-0.7-0.3-1.2-0.3-1.2l-2.5-1.8c-0.2-0.1-1.1-0.7-1.6-0.1c-0.4,0.5-0.3,1,0.1,1.4l1.7,1.2
			c0.1,0,0.1,0.1,0,0.2l-1,1.4c0,0.1-0.1,0.2-0.1,0.2c-0.9,1.9,0.5,2.6,0.9,2.7c0.1,0,0.2,0,0.3,0c0.5,0,2.3,0,4,0
			c2,0,1.9-1.2,1.9-1.2V364c0,0,0,0,0-0.1c0-0.1-0.1-0.9-0.9-0.9c-0.6,0-0.7,0.5-0.7,0.7c0,0.1,0,0.2,0,0.3v1.5
			c0,0.1-0.1,0.1-0.1,0.1h-2.3c-0.1,0-0.1,0,0-0.1C171.3,365.2,171.5,365,171.6,364.8z"/>
		<circle fill="#FFFFFF" cx="177.5" cy="367.2" r="1.8"/>
		<path fill="#FFFFFF" d="M179.3,370c0-0.4-0.3-0.7-0.7-0.7h-10.8c-0.4,0-0.7,0.3-0.7,0.7c0,0.4,0.3,0.7,0.7,0.7h10.8
			C179,370.8,179.3,370.4,179.3,370z"/>
	</g>
	<g>
		<path fill="#FFFFFF" d="M199,373.2l-1.8,0.7l-2.3-5.5h-5.7v-1.1h4v-1.7h-4.3l-0.1-3.4c0.9,0,1.7-0.8,1.7-1.8c0-1-0.8-1.8-1.7-1.8
			c-0.8,0-1.5,0.6-1.7,1.3l-0.1,0l0,0.3c0,0.1,0,0.1,0,0.2c0,0.1,0,0.3,0,0.4l0.5,9.1l6.2,0.1l2.3,5.8l3.3-1.1L199,373.2z"/>
		<path fill="#FFFFFF" d="M186.3,373.6c-1-1-1.6-2.4-1.7-3.8c0-1.5,0.5-2.8,1.5-3.9l-1.6-1.5c-2.9,3-2.8,7.9,0.2,10.8
			c1.5,1.4,3.4,2.1,5.3,2.1c2,0,4-0.8,5.5-2.3l-1.6-1.5C191.9,375.6,188.4,375.6,186.3,373.6z"/>
	</g>
</g>
</svg>
