<?xml version="1.0" encoding="utf-8"?>
<!-- Generator: Adobe Illustrator 16.0.0, SVG Export Plug-In . SVG Version: 6.00 Build 0)  -->
<!DOCTYPE svg PUBLIC "-//W3C//DTD SVG 1.1//EN" "http://www.w3.org/Graphics/SVG/1.1/DTD/svg11.dtd">
<svg version="1.1" id="Livello_1" xmlns="http://www.w3.org/2000/svg" xmlns:xlink="http://www.w3.org/1999/xlink" x="0px" y="0px"
	 width="612px" height="792px" viewBox="0 0 612 792" enable-background="new 0 0 612 792" xml:space="preserve">
<g id="Layer_8">
	<g>
		<polygon fill="#C1DDDD" points="606.685,63.526 529.138,626.51 422.674,625.488 409.823,718.077 88.974,714.134 102.116,617.894 
			-0.404,616.579 64.292,148.375 289.193,151.15 294.598,112.303 217.05,111.427 224.061,58.999 		"/>
	</g>
</g>
<polygon fill="#405E5E" points="156.589,332.531 449.837,332.531 441.075,397.665 147.097,396.789 "/>
<g id="Layer_9">
	<polygon fill="#405E5E" points="165.352,615.412 166.958,621.837 164.914,635.856 163.454,629.284 	"/>
	<polygon fill="#405E5E" points="163.454,629.284 164.914,635.856 115.99,636.002 114.53,629.284 	"/>
	<polygon fill="#405E5E" points="165.791,604.751 167.25,611.468 165.352,625.343 163.745,618.479 	"/>
	<polygon fill="#405E5E" points="163.745,618.479 165.352,625.343 116.429,625.343 114.822,618.771 	"/>
	<polygon fill="#405E5E" points="166.082,594.09 167.542,600.807 165.791,614.827 164.33,608.109 	"/>
	<polygon fill="#405E5E" points="164.33,608.109 165.791,614.827 116.721,614.827 115.26,608.109 	"/>
	<polygon fill="#405E5E" points="317.232,615.265 318.694,621.837 316.795,636.149 315.188,629.432 	"/>
	<polygon fill="#405E5E" points="315.188,629.432 316.795,636.149 215.59,636.294 214.129,629.576 	"/>
	<polygon fill="#405E5E" points="318.109,604.166 319.569,610.884 317.672,625.195 316.211,618.479 	"/>
	<polygon fill="#405E5E" points="316.211,618.479 317.672,625.195 216.466,625.343 215.151,618.623 	"/>
	<polygon fill="#405E5E" points="319.132,593.213 320.446,599.785 318.694,614.242 317.232,607.524 	"/>
	<polygon fill="#405E5E" points="317.232,607.524 318.694,614.242 217.634,614.534 216.027,607.817 	"/>
</g>
<g id="Layer_7">
	<g>
		<g>
			<g enable-background="new    ">
				<g>
					<polygon fill="#8F9A9E" points="294.598,112.303 295.473,116.977 217.78,116.1 217.05,111.427 					"/>
				</g>
				<g>
					<polygon fill="#8F9A9E" points="102.116,617.894 102.993,622.714 0.472,621.399 -0.404,616.579 					"/>
				</g>
				<g>
					<polygon fill="#8F9A9E" points="529.138,626.51 530.015,631.476 423.696,630.161 422.674,625.488 					"/>
				</g>
				<g>
					<polygon fill="#9BA8AB" points="606.685,63.526 607.707,68.491 530.015,631.476 529.138,626.51 					"/>
				</g>
				<g>
					<polygon fill="#9BA8AB" points="422.674,625.488 423.696,630.161 410.698,722.897 409.823,718.077 					"/>
				</g>
				<g>
					<polygon fill="#8F9A9E" points="409.823,718.077 410.698,722.897 89.557,718.954 88.974,714.134 					"/>
				</g>
			</g>
		</g>
	</g>
</g>
<g id="Layer_4">
	<polygon fill="#4A8080" points="594.856,68.491 596.171,73.311 590.476,108.214 589.453,103.395 	"/>
	<polygon fill="#4A8080" points="589.453,103.395 590.476,108.214 230.632,104.709 229.609,99.89 	"/>
	<polygon fill="#4A8080" points="543.157,478.571 544.034,483.391 525.342,623.589 524.317,618.771 	"/>
	<polygon fill="#4A8080" points="524.317,618.771 525.342,623.589 425.158,623.736 424.281,618.916 	"/>
	<polygon fill="#4A8080" points="589.891,110.113 591.205,114.932 564.772,311.355 563.75,306.682 	"/>
	<polygon fill="#4A8080" points="563.75,306.682 564.772,311.355 464.733,311.647 463.856,306.682 	"/>
	<polygon fill="#4A8080" points="556.301,375.029 557.47,379.849 544.472,477.55 543.45,472.731 	"/>
	<polygon fill="#4A8080" points="543.45,472.731 544.472,477.55 444.434,477.842 443.412,472.731 	"/>
	<polygon fill="#4A8080" points="563.75,317.052 564.772,321.871 558.199,370.794 557.178,365.975 	"/>
	<polygon fill="#4A8080" points="557.178,365.975 558.199,370.794 458.161,371.086 457.14,366.267 	"/>
	<polygon fill="#4A8080" points="164.33,152.611 165.352,157.284 139.795,349.18 138.919,344.361 	"/>
	<polygon fill="#4A8080" points="138.919,344.361 139.795,349.18 42.532,349.473 41.363,344.799 	"/>
	<polygon fill="#4A8080" points="137.75,349.764 138.626,354.729 123.438,468.933 122.27,464.114 	"/>
	<polygon fill="#4A8080" points="122.27,464.114 123.438,468.933 26.03,469.08 25.153,464.406 	"/>
	<polygon fill="#4A8080" points="121.686,469.37 122.708,474.19 104.161,613.805 102.993,608.986 	"/>
	<polygon fill="#4A8080" points="102.993,608.986 104.161,613.805 6.752,613.95 5.73,609.276 	"/>
	<polygon fill="#4A8080" points="482.55,115.808 483.72,120.627 478.898,154.509 478.023,149.835 	"/>
	<polygon fill="#4A8080" points="478.023,149.835 478.898,154.509 366.595,154.801 365.572,150.128 	"/>
	<polygon fill="#4A8080" points="410.406,641.99 411.429,646.955 402.666,712.819 401.352,707.708 	"/>
	<polygon fill="#4A8080" points="401.352,707.708 402.666,712.819 104.016,709.17 102.993,704.35 	"/>
	<polygon fill="#4A8080" points="467.216,190.727 468.53,195.692 451.151,325.375 449.837,320.557 	"/>
	<polygon fill="#4A8080" points="449.837,320.557 451.151,325.375 156.589,326.106 155.713,321.287 	"/>
	<polygon fill="#4A8080" points="367.617,328.443 371.415,338.082 364.405,390.655 360.607,380.871 	"/>
	<polygon fill="#4A8080" points="360.607,380.871 364.405,390.655 220.701,390.947 216.904,381.31 	"/>
	<polygon fill="#4A8080" points="437.132,402.338 438.301,407.011 414.35,585.91 413.183,581.237 	"/>
	<polygon fill="#4A8080" points="413.183,581.237 414.35,585.91 119.934,586.495 119.058,581.821 	"/>
</g>
<g id="Layer_5">
	<polygon fill="#80BCBC" points="594.856,68.491 589.453,103.395 229.609,99.89 235.013,65.133 	"/>
	<polygon fill="#80BCBC" points="543.157,478.571 524.317,618.771 424.281,618.916 443.119,478.717 	"/>
	<polygon fill="#80BCBC" points="589.891,110.113 563.75,306.682 463.856,306.682 489.853,110.405 	"/>
	<polygon fill="#80BCBC" points="556.301,375.029 543.45,472.731 443.412,472.731 456.557,375.322 	"/>
	<polygon fill="#80BCBC" points="563.75,317.052 557.178,365.975 457.14,366.267 463.564,317.198 	"/>
	<polygon fill="#80BCBC" points="164.33,152.611 138.919,344.361 41.363,344.799 67.066,152.757 	"/>
	<polygon fill="#80BCBC" points="137.75,349.764 122.27,464.114 25.153,464.406 40.195,350.056 	"/>
	<polygon fill="#80BCBC" points="121.686,469.37 102.993,608.986 5.73,609.276 24.277,469.663 	"/>
	<polygon fill="#80BCBC" points="482.55,115.808 478.023,149.835 365.572,150.128 370.246,116.1 	"/>
	<polygon fill="#80BCBC" points="410.406,641.99 401.352,707.708 102.993,704.35 115.844,642.722 	"/>
	<polygon fill="#80BCBC" points="467.216,190.727 449.837,320.557 155.713,321.287 172.8,191.603 	"/>
	<polygon fill="#99C9C9" points="367.617,328.443 360.607,380.871 216.904,381.31 223.914,328.881 	"/>
	<polygon fill="#80BCBC" points="437.132,402.338 413.183,581.237 119.058,581.821 142.715,402.922 	"/>
</g>
<g id="Layer_3">
	<g id="nopointer-test_2_">
		<g>
			<g>
				<g>
					<path fill="#FFFFFF" d="M399.6,84.702c-0.145,0.876-0.145,1.753-0.145,2.483h-2.047v-1.168h-0.145
						c-0.877,0.876-2.045,1.606-3.651,1.606c-2.481,0-3.651-1.606-3.358-3.066c0.292-2.483,3.066-3.943,7.594-3.943c0,0,0,0,0.146,0
						v-0.292c0.147-0.876,0-2.336-2.481-2.336c-1.17,0-2.337,0.291-3.359,0.876l-0.292-1.168c1.167-0.583,2.629-0.876,4.233-0.876
						c3.651,0,4.383,2.19,4.236,4.381L399.6,84.702z M397.408,83.68l0.147-1.753c-0.147,0-0.292,0-0.292,0
						c-2.337,0-4.818,0.584-4.966,2.336c-0.146,1.168,0.877,1.899,1.899,1.753c1.606,0,2.773-0.876,3.066-1.753
						C397.264,84.263,397.408,83.972,397.408,83.68"/>
				</g>
				<g>
					<path fill="#FFFFFF" d="M385.726,72.435c2.046,0,3.358,0.583,3.943,0.583l-0.583,1.607c-0.877-0.292-1.898-0.585-3.36-0.585
						c-3.941,0-6.863,2.191-7.301,6.134c-0.584,3.651,1.752,5.841,5.841,5.841c1.46,0,2.629-0.292,3.651-0.584l0.292,1.607
						c-0.877,0.292-2.483,0.876-4.528,0.876c-4.818,0-8.177-2.483-7.592-7.156C376.526,75.501,380.47,72.726,385.726,72.435z"/>
				</g>
				<g>
					<path fill="#FFFFFF" d="M420.63,81.343c0,0.292-0.146,0.584-0.146,0.876h-8.616c-0.293,2.483,1.459,3.651,3.651,3.651
						c1.604,0,2.629-0.292,3.358-0.584l0.146,1.46c-0.875,0.292-2.189,0.584-4.236,0.584c-3.649,0-5.841-2.045-5.256-5.112
						c0.583-3.066,2.774-5.549,6.426-5.549C420.192,76.523,420.775,79.445,420.63,81.343z M412.16,81.051h6.426
						c0.292-1.168-0.147-3.066-2.629-3.066C413.475,77.838,412.45,79.736,412.16,81.051"/>
				</g>
				<g>
					<path fill="#FFFFFF" d="M409.239,71.704c0.875,0,1.459,0.146,1.898,0.292l-0.584,1.46c-0.293-0.146-0.877-0.292-1.462-0.292
						c-1.897,0-2.627,1.461-2.627,3.067l-0.147,0.584h3.066l-0.292,1.459h-2.774l-1.167,8.909h-2.191l1.169-8.909h-1.754
						l0.292-1.459h1.753l0.146-0.584c0.293-1.46,0.875-2.774,1.899-3.651C407.048,71.85,408.217,71.704,409.239,71.704z"/>
				</g>
			</g>
		</g>
		<g>
			<g>
				<g>
					<path fill="#FFFFFF" d="M491.313,198.029c2.189,0,3.359,0.292,3.942,0.583l-0.583,1.46c-0.877-0.292-1.899-0.584-3.359-0.584
						c-4.09,0-6.864,1.899-7.302,5.55c-0.585,3.359,1.897,5.257,5.841,5.257c1.461,0,2.775-0.146,3.65-0.583l0.147,1.459
						c-0.877,0.292-2.483,0.585-4.673,0.585c-4.82,0-8.325-2.337-7.595-6.718C482.112,200.803,486.056,197.883,491.313,198.029z"/>
				</g>
				<g>
					<path fill="#FFFFFF" d="M508.107,201.825l-0.877,6.865c-0.145,0.876-0.145,1.898-0.145,2.628h-2.045v-1.606l0,0
						c-0.877,0.876-2.044,1.898-4.235,1.898c-1.899,0-4.089-0.876-3.651-4.235l0.585-5.404h2.189l-0.583,5.258
						c-0.146,1.898,0.293,3.066,2.337,3.066c1.604,0,2.627-0.876,3.066-1.605c0.146-0.292,0.292-0.585,0.292-0.877l0.875-5.841
						L508.107,201.825z"/>
				</g>
				<g>
					<path fill="#FFFFFF" d="M517.31,201.68c0.29,0,0.582,0,0.582,0.145l-0.145,1.607c-0.147,0-0.585-0.146-0.877-0.146
						c-1.607,0-2.774,0.876-3.359,2.19c-0.145,0.292-0.145,0.584-0.292,0.877l-0.583,4.965h-2.046l0.877-6.572
						c0.146-1.168,0.146-2.044,0.292-3.066h2.045l-0.146,1.898h0.146C514.241,202.41,515.848,201.534,517.31,201.68z"/>
				</g>
				<g>
					<polygon fill="#FFFFFF" points="519.062,211.464 520.083,201.825 522.42,201.825 521.251,211.172 					"/>
				</g>
				<g>
					<path fill="#FFFFFF" d="M521.251,200.22c-0.875,0-1.168-0.585-1.168-1.168c0.146-0.584,0.875-1.168,1.607-1.168
						c0.729,0,1.167,0.584,1.167,1.168C522.857,199.927,522.273,200.22,521.251,200.22z"/>
				</g>
				<g>
					<path fill="#FFFFFF" d="M531.327,201.534c3.651,0,5.843,2.044,5.258,4.819c-0.585,3.359-3.651,4.965-6.718,4.965
						c-3.358,0-5.84-1.898-5.258-4.82C524.902,203.432,527.969,201.534,531.327,201.534z M530.16,210.296
						c2.191,0,3.943-1.605,4.235-3.651c0.146-1.606-0.585-3.65-3.358-3.65c-2.629,0-3.943,1.898-4.236,3.65
						C526.654,208.544,527.969,210.296,530.16,210.296"/>
				</g>
				<g>
					<path fill="#FFFFFF" d="M543.742,201.534c1.167,0,2.337,0.291,3.066,0.583l-0.877,1.168c-0.585-0.292-1.167-0.584-2.481-0.584
						c-1.462,0-2.191,0.584-2.337,1.46c-0.147,0.877,0.585,1.169,2.189,1.607c2.044,0.584,3.066,1.46,2.776,2.775
						c-0.147,1.752-2.045,3.066-4.966,3.066c-1.462,0-2.483-0.146-3.358-0.583l0.875-1.168c0.584,0.292,1.754,0.584,2.775,0.584
						c1.605,0,2.482-0.584,2.629-1.461c0.146-0.876-0.584-1.168-2.191-1.752c-2.191-0.584-3.066-1.607-3.066-2.629
						C539.507,202.702,541.113,201.534,543.742,201.534z"/>
				</g>
				<g>
					<polygon fill="#FFFFFF" points="548.998,211.464 550.168,201.68 552.357,201.68 551.189,211.464 					"/>
				</g>
				<g>
					<path fill="#FFFFFF" d="M574.409,201.68l-4.234,6.864c-2.044,3.359-3.358,4.965-4.965,6.134
						c-1.17,0.584-2.337,1.167-3.067,1.167l-0.292-1.459c0.585-0.146,1.46-0.292,2.045-0.877c0.584-0.292,1.606-1.167,2.044-2.044
						c0.147-0.146,0.292-0.292,0.292-0.583c0-0.146,0-0.146,0-0.585l-3.358-8.762h2.481l2.047,5.549
						c0.145,0.584,0.29,1.46,0.582,2.044l0,0c0.293-0.584,0.877-1.168,0.877-1.898l3.066-5.549H574.409z"/>
				</g>
				<g>
					<path fill="#FFFFFF" d="M559.076,199.051l-0.292,2.629h3.358l-0.146,1.168h-3.359l-0.584,5.111
						c-0.146,1.168,0.292,1.899,1.606,1.753c0.585,0,1.169,0,1.169,0l-0.146,1.168c-0.583,0.146-1.168,0.146-2.045,0.291
						c-1.167,0-1.896-0.145-2.336-0.583c-0.585-0.583-0.585-1.46-0.585-2.483l0.585-5.111h-1.897l0.146-1.169h1.898l0.293-2.336
						L559.076,199.051z"/>
				</g>
				<g>
					<path fill="#FFFFFF" d="M551.335,200.22c-0.875,0-1.167-0.585-1.167-1.168c0.145-0.584,0.875-1.168,1.606-1.168
						c0.729,0,1.167,0.584,1.167,1.168C552.941,199.635,552.212,199.927,551.335,200.22z"/>
				</g>
			</g>
		</g>
		<g>
			<g>
				<g>
					<path fill="#FFFFFF" d="M484.304,342.316c-0.146,0.876-0.146,1.752,0,2.337h-2.046v-1.168h-0.146
						c-0.877,0.876-2.189,1.607-4.089,1.46c-2.483,0-3.65-1.46-3.358-2.775c0.292-2.337,3.066-3.651,7.885-3.651h0.147v-0.292
						c0.145-0.877,0-2.191-2.629-2.191c-1.17,0-2.337,0.292-3.359,0.877l-0.292-1.168c1.169-0.585,2.629-0.877,4.235-0.877
						c3.651,0,4.526,2.045,4.234,4.089L484.304,342.316z M482.112,341.44l0.146-1.753c-0.146,0-0.291,0-0.583,0
						c-2.337,0-4.966,0.584-5.112,2.19c-0.146,1.168,0.877,1.753,2.046,1.607c1.604,0,2.774-0.876,3.066-1.607
						C481.967,341.878,481.967,341.732,482.112,341.44"/>
				</g>
				<g>
					<polygon fill="#FFFFFF" points="474.957,331.072 474.665,332.531 469.553,332.678 467.947,344.799 465.61,344.653 
						467.216,332.678 461.812,332.678 462.252,331.218 					"/>
				</g>
				<g>
					<path fill="#FFFFFF" d="M495.256,334.722c3.068,0,5.112,2.045,4.673,4.82c-0.583,3.358-3.358,5.258-6.133,5.258
						c-1.752,0-3.066-0.584-3.651-1.607l0,0l-0.585,5.258h-2.189l1.168-10.661c0.146-1.168,0.146-2.19,0.292-3.067h2.044v1.753
						C491.604,335.307,493.211,334.722,495.256,334.722z M493.358,343.631c2.337,0,3.943-1.607,4.233-3.651
						c0.147-1.899-0.875-3.651-3.358-3.651c-1.605,0-3.066,0.876-3.651,2.19c-0.146,0.146-0.29,0.585-0.29,0.876l-0.147,1.753
						c0,0.292,0,0.584,0,0.876C490.582,342.755,491.751,343.485,493.358,343.631"/>
				</g>
				<g>
					<path fill="#FFFFFF" d="M513.073,339.25c0,0.292-0.146,0.583-0.146,0.876h-8.763c-0.145,2.336,1.607,3.359,3.943,3.359
						c1.607,0,2.63-0.292,3.651-0.583l0.146,1.167c-0.875,0.146-2.337,0.585-4.234,0.585c-3.943,0-5.842-2.044-5.55-4.82
						c0.292-3.066,2.774-5.257,6.425-5.257C512.489,334.722,513.219,337.497,513.073,339.25z M504.312,338.812h6.57
						c0.147-1.168-0.145-3.066-2.774-2.775C505.916,335.745,504.602,337.643,504.312,338.812"/>
				</g>
				<g>
					<path fill="#FFFFFF" d="M529.575,332.094l-0.292,2.774h3.358l-0.292,1.46h-3.359l-0.582,5.112
						c-0.147,1.168,0.292,1.898,1.604,1.898c0.585,0,1.169,0,1.462,0l-0.147,1.168c-0.583,0.146-1.167,0.146-2.044,0.292
						c-1.168,0-1.897-0.146-2.337-0.876c-0.583-0.584-0.583-1.461-0.583-2.483l0.583-5.258h-1.897l0.293-1.461h1.896l0.293-2.336
						L529.575,332.094z"/>
				</g>
				<g>
					<path fill="#FFFFFF" d="M520.083,334.577c1.168,0,2.337,0.292,3.067,0.583l-0.877,1.168c-0.583-0.292-1.168-0.583-2.482-0.583
						c-1.46,0-2.191,0.583-2.337,1.459c-0.145,0.877,0.585,1.168,2.189,1.607c2.047,0.583,3.069,1.607,3.069,3.066
						c-0.147,1.753-2.045,3.067-4.966,3.067c-1.462,0-2.484-0.146-3.359-0.584l0.875-1.168c0.585,0.292,1.754,0.585,2.776,0.876
						c1.752,0,2.481-0.583,2.629-1.459c0.146-0.877-0.585-1.461-2.191-1.753c-2.191-0.584-3.066-1.606-3.066-2.774
						C515.702,336.036,517.454,334.577,520.083,334.577z"/>
				</g>
				<g>
					<path fill="#FFFFFF" d="M540.528,334.577c0.293,0,0.585,0,0.585,0.145l-0.147,1.753c-0.145,0-0.582-0.146-0.875-0.146
						c-1.606,0-3.066,0.876-3.358,2.19c-0.147,0.292-0.147,0.585-0.293,0.876l-0.584,5.112h-2.191l0.877-6.718
						c0.146-1.168,0.146-2.19,0.292-3.067h2.044l-0.145,1.899h0.145C537.607,335.307,539.069,334.722,540.528,334.577z"/>
				</g>
				<g>
					<path fill="#FFFFFF" d="M553.672,334.868l-4.381,7.01c-2.045,3.359-3.359,4.966-4.966,6.134
						c-1.168,0.585-2.337,1.168-3.066,1.168l-0.585-1.607c0.585-0.146,1.462-0.291,2.191-0.876c0.585-0.292,1.606-1.168,2.044-2.044
						c0.147-0.146,0.293-0.292,0.293-0.585c0-0.291,0-0.291,0-0.583l-3.359-9.054h2.482l2.046,5.841
						c0.146,0.584,0.29,1.46,0.583,2.044l0,0c0.292-0.584,0.877-1.168,0.877-2.044l3.066-5.841L553.672,334.868z"/>
				</g>
			</g>
		</g>
		<g id="Assyrian____Reliefs_2_">
			<g>
				<g>
					<path fill="#FFFFFF" d="M461.375,398.688l4.528,15.771h-2.484l-1.459-4.966h-6.573l-2.481,4.966h-2.629l8.178-15.627
						L461.375,398.688z M456.117,407.742h5.403l-1.168-4.525c-0.146-1.17-0.584-2.047-0.584-2.776l0,0
						c-0.585,0.876-0.875,1.897-1.168,2.776L456.117,407.742"/>
				</g>
				<g>
					<path fill="#FFFFFF" d="M473.788,402.777c1.462,0,2.483,0.292,3.066,0.875l-0.875,1.461c-0.585-0.292-1.462-0.877-2.483-0.582
						c-1.46,0-2.337,0.875-2.337,1.604c-0.146,0.875,0.585,1.46,2.337,1.899c2.191,0.584,3.358,1.752,3.066,3.358
						c-0.146,2.044-2.189,3.358-5.256,3.358c-1.462,0-2.629-0.292-3.651-0.877l0.875-1.606c0.585,0.585,1.899,0.877,3.068,0.877
						c1.752,0,2.627-0.877,2.627-1.752c0-0.877-0.583-1.606-2.189-2.044c-2.191-0.585-3.358-1.899-3.066-3.068
						C468.97,404.384,471.014,402.777,473.788,402.777z"/>
				</g>
				<g>
					<path fill="#FFFFFF" d="M484.597,402.777c1.459,0,2.481,0.292,3.066,0.875l-0.877,1.461c-0.585-0.292-1.46-0.877-2.482-0.582
						c-1.462,0-2.337,0.875-2.337,1.604c-0.146,0.875,0.583,1.46,2.337,1.899c2.189,0.584,3.359,1.752,3.066,3.358
						c-0.146,2.044-2.191,3.358-5.258,3.358c-1.46,0-2.629-0.292-3.651-0.877l0.877-1.606c0.585,0.585,1.897,0.877,3.066,0.877
						c1.753,0,2.63-0.877,2.63-1.752c0-0.877-0.585-1.606-2.192-2.044c-2.189-0.585-3.358-1.899-3.066-3.068
						C479.775,404.384,481.675,402.777,484.597,402.777z"/>
				</g>
				<g>
					<path fill="#FFFFFF" d="M501.975,402.922l-4.527,8.18c-2.191,3.943-3.651,5.841-5.403,7.01
						c-1.17,0.875-2.484,1.169-3.066,1.169l-0.585-1.754c0.585-0.145,1.46-0.584,2.337-1.169c0.875-0.583,1.752-1.168,2.189-2.335
						c0.146-0.147,0.292-0.292,0.292-0.585c0-0.145,0-0.292,0-0.584l-3.651-10.369h2.629l2.045,6.572
						c0.147,0.877,0.585,1.752,0.585,2.337l0,0c0.292-0.585,0.584-1.606,1.169-2.337l3.358-6.572h2.629V402.922z"/>
				</g>
				<g>
					<path fill="#FFFFFF" d="M509.859,402.922c0.293,0,0.585,0,0.585,0.147l-0.146,1.897c-0.291,0-0.583-0.146-0.876-0.146
						c-1.752,0-3.066,1.169-3.65,2.629c-0.146,0.292-0.146,0.585-0.293,0.875l-0.877,5.843h-2.336l0.877-7.593
						c0.146-1.169,0.292-2.483,0.292-3.358h2.044l-0.145,2.189h0.145C506.648,403.799,508.4,402.777,509.859,402.922z"/>
				</g>
				<g>
					<polygon fill="#FFFFFF" points="511.612,414.312 512.927,402.922 515.41,403.069 514.096,414.168 					"/>
				</g>
				<g>
					<path fill="#FFFFFF" d="M514.388,401.025c-0.877,0-1.461-0.585-1.169-1.169c0.147-0.877,0.877-1.168,1.752-1.461
						c0.877,0,1.462,0.584,1.169,1.461C515.848,400.44,515.41,401.17,514.388,401.025z"/>
				</g>
				<g>
					<path fill="#FFFFFF" d="M527.531,411.394c-0.146,0.875-0.146,1.899-0.146,2.629h-2.191v-1.46h-0.146
						c-0.877,0.875-2.336,1.75-4.235,1.75c-2.629,0-3.943-1.75-3.651-3.358c0.292-2.629,3.358-4.233,8.47-4.233c0,0,0,0,0.147,0
						v-0.146c0.145-0.877,0-2.629-2.629-2.629c-1.168,0-2.482,0.29-3.651,0.875l-0.293-1.46c1.17-0.584,2.776-0.877,4.528-1.169
						c4.089,0,4.674,2.339,4.526,4.528L527.531,411.394z M525.342,410.371l0.145-1.898c-0.145,0-0.292,0-0.292,0
						c-2.481,0-5.258,0.584-5.403,2.481c-0.147,1.169,0.877,2.044,2.045,1.899c1.752,0,3.066-0.875,3.358-1.899
						C525.194,410.809,525.342,410.517,525.342,410.371"/>
				</g>
				<g>
					<path fill="#FFFFFF" d="M538.922,402.632c1.899,0,4.528,0.875,4.089,4.818l-0.875,6.718h-2.337l0.875-6.426
						c0.147-1.898-0.29-3.358-2.627-3.358c-1.607,0-3.068,0.877-3.359,2.044c-0.146,0.293-0.292,0.583-0.292,0.877l-0.877,6.718
						h-2.337l0.877-8.179c0.146-1.168,0.146-2.045,0.293-3.066h2.189v1.898l0,0C535.125,403.799,536.732,402.777,538.922,402.632z"
						/>
				</g>
				<g>
					<path fill="#FFFFFF" d="M486.056,436.074c0,0.585-0.146,0.875-0.292,0.875h-9.201c-0.291,2.774,1.606,3.653,3.943,3.943
						c1.754,0,2.776-0.29,3.651-0.584l0.146,1.461c-0.877,0.293-2.337,0.878-4.528,0.878c-4.088,0-6.133-2.339-5.84-5.551
						c0.582-3.358,3.066-6.135,6.862-5.841C485.618,430.672,486.201,433.883,486.056,436.074z M476.709,435.345h7.011
						c0.292-1.169-0.147-3.358-3.067-3.358C478.461,432.276,477.146,434.03,476.709,435.345"/>
				</g>
				<g>
					<path fill="#FFFFFF" d="M471.014,437.826c0.293,2.191,0.585,3.651,0.875,4.381h-2.481c-0.146-0.584-0.585-1.898-0.877-3.65
						c-0.29-2.191-1.167-3.066-3.359-3.066h-2.189l-0.877,6.717h-2.336l1.898-15.479c1.168-0.146,3.066-0.293,4.526-0.585
						c2.484,0,4.091,0.585,4.966,1.169c0.877,0.875,1.169,1.897,1.169,3.064c-0.146,2.047-2.044,3.359-4.088,3.943l0,0
						C470.137,435.197,470.722,436.365,471.014,437.826z M465.903,433.883c2.481,0,4.381-1.167,4.526-3.066
						c0.146-2.044-1.46-3.066-3.944-3.066c-1.167,0-2.044,0.146-2.336,0.146l-0.585,5.55L465.903,433.883"/>
				</g>
				<g>
					<polygon fill="#FFFFFF" points="492.628,425.704 490.582,442.207 488.245,442.207 490.292,425.704 					"/>
				</g>
				<g>
					<polygon fill="#FFFFFF" points="494.673,442.062 495.987,430.962 498.324,430.816 497.154,442.062 					"/>
				</g>
				<g>
					<path fill="#FFFFFF" d="M497.302,429.064c-0.877,0-1.462-0.584-1.169-1.169c0.145-0.877,0.877-1.167,1.752-1.46
						c0.877-0.292,1.461,0.583,1.169,1.46C499.054,428.48,498.177,429.064,497.302,429.064z"/>
				</g>
				<g>
					<path fill="#FFFFFF" d="M521.69,425.413c0.875,0,1.604,0.146,2.044,0.291l-0.584,1.608c-0.293-0.146-0.877-0.294-1.46-0.294
						c-2.047,0-2.629,1.608-3.068,3.358l-0.146,0.585h3.066l-0.145,1.606h-3.067l-1.169,9.784h-2.337l1.17-9.784h-1.899l0.146-1.606
						h1.898l0.146-0.585c0.147-1.604,0.877-3.064,2.046-3.941C519.354,425.559,520.376,425.413,521.69,425.413z"/>
				</g>
				<g>
					<path fill="#FFFFFF" d="M512.489,435.782c0,0.583-0.146,0.877-0.293,0.877h-9.199c-0.292,2.774,1.604,3.649,3.941,3.943
						c1.754,0,2.776-0.294,3.651-0.585l0.147,1.46c-0.878,0.292-2.337,0.875-4.528,0.875c-4.089,0-6.133-2.335-5.841-5.548
						c0.583-3.359,3.066-6.133,6.862-5.843C511.904,430.524,512.636,433.883,512.489,435.782z M503.143,435.345h7.01
						c0.292-1.169-0.146-3.358-3.066-3.358C504.749,432.131,503.435,434.03,503.143,435.345"/>
				</g>
				<g>
					<path fill="#FFFFFF" d="M527.823,430.672c1.46,0,2.481,0.29,3.066,0.875l-0.875,1.459c-0.585-0.29-1.462-0.875-2.483-0.582
						c-1.46,0-2.337,0.877-2.337,1.606c-0.146,0.875,0.585,1.46,2.337,1.899c2.191,0.582,3.358,1.75,3.066,3.358
						c-0.146,2.044-2.189,3.359-5.256,3.359c-1.462,0-2.629-0.295-3.651-0.878l0.875-1.606c0.585,0.585,1.899,0.875,3.066,0.875
						c1.754,0,2.629-0.875,2.629-1.75c0-0.879-0.585-1.608-2.189-2.046c-2.191-0.583-3.358-1.897-3.068-3.066
						C523.295,432.131,525.049,430.524,527.823,430.672z"/>
				</g>
			</g>
		</g>
		<g>
			<g>
				<g>
					<path fill="#FFFFFF" d="M519.062,535.236l-0.585,3.941h4.526l-0.146,1.898h-4.526l-0.877,7.303
						c-0.145,1.752,0.293,2.629,2.045,2.629c0.877,0,1.459,0,1.899-0.147v1.899c-0.585,0.147-1.607,0.585-2.776,0.292
						c-1.46,0-2.482-0.292-3.066-1.167c-0.875-0.877-1.168-2.047-0.875-3.651l0.875-7.595h-2.629l0.146-1.898h2.629l0.583-3.359
						L519.062,535.236z"/>
				</g>
				<g>
					<path fill="#FFFFFF" d="M503.435,538.887c4.235,0,7.01,2.774,6.572,7.01c-0.585,4.819-4.528,7.593-8.764,7.301
						c-2.337,0-4.089-0.875-5.11-2.189l0,0l-0.877,7.595h-3.067l1.899-15.042c0.146-1.754,0.293-3.068,0.293-4.528h2.773
						l-0.145,2.337l0,0C498.469,539.909,500.66,538.887,503.435,538.887z M500.951,551.445c3.36,0,5.404-2.189,5.842-5.256
						c0.293-2.776-1.169-5.113-4.527-4.966c-2.189,0-4.381,1.167-5.111,3.066c-0.145,0.292-0.292,0.585-0.584,0.875l-0.293,2.337
						c0,0.292,0,0.877,0,1.169C497.154,550.131,498.614,551.445,500.951,551.445"/>
				</g>
				<g>
					<path fill="#FFFFFF" d="M491.604,539.178l-5.841,9.785c-2.774,4.674-4.674,7.155-7.01,8.763
						c-1.752,1.169-3.066,1.606-3.943,1.606l-0.585-2.191c0.877-0.146,1.899-0.583,3.068-1.167c0.875-0.585,2.044-1.607,3.066-2.774
						c0.146-0.292,0.292-0.585,0.292-0.585c0-0.146,0-0.292-0.146-0.584l-4.818-12.561h3.358l2.774,8.179
						c0.146,0.877,0.584,2.045,0.877,2.774l0,0c0.585-0.875,0.875-1.897,1.46-3.066l4.381-8.177L491.604,539.178z"/>
				</g>
				<g>
					<path fill="#FFFFFF" d="M469.992,539.324h2.773c-0.292,0.877-0.292,2.045-0.584,3.651l-0.875,7.885
						c-0.585,3.068-1.462,5.113-3.359,6.135c-1.899,1.168-4.235,1.752-6.427,1.607c-2.045,0-4.234-0.585-5.403-1.17l0.877-1.896
						c1.167,0.582,2.774,1.167,4.818,1.167c3.358,0,5.843-1.46,6.135-4.818l0.146-1.606l0,0c-1.168,1.167-3.066,2.336-5.841,2.336
						c-4.235,0-7.01-3.066-6.428-6.718c0.585-4.673,4.528-7.302,8.765-7.302c3.066,0,4.526,1.167,5.11,2.337l0,0L469.992,539.324z
						 M468.385,547.211l0.293-2.483c0-0.585,0.145-0.877,0-1.167c-0.293-1.462-1.899-2.629-4.089-2.629
						c-3.068,0-5.258,2.044-5.843,5.11c-0.292,2.629,1.169,4.966,4.528,4.82c1.896,0,3.943-0.877,4.673-2.629
						C468.385,548.086,468.385,547.648,468.385,547.211"/>
				</g>
				<g>
					<polygon fill="#FFFFFF" points="454.072,533.774 453.78,535.818 443.85,536.111 443.119,541.953 452.466,541.953 
						452.174,544.143 442.975,543.998 442.098,551.008 452.466,551.008 452.174,553.052 438.738,553.197 440.93,534.066 					"/>
				</g>
			</g>
		</g>
		<g>
			<g>
				<g>
					<polygon fill="#FFFFFF" points="190.033,655.719 189.74,658.493 177.911,658.493 177.035,666.233 187.987,666.088 
						187.55,668.715 176.743,668.715 175.574,677.479 187.987,677.479 187.55,679.961 171.777,680.107 174.552,655.719 					"/>
				</g>
				<g>
					<path fill="#FFFFFF" d="M204.49,662.145c2.775,0,7.156,1.606,6.426,7.303l-1.168,10.368h-3.651l1.168-10.076
						c0.292-2.776-0.584-5.113-4.235-5.113c-2.482,0-4.527,1.607-5.258,3.359c-0.292,0.292-0.583,0.877-0.583,1.462l-1.168,10.368
						h-3.651l1.605-12.853c0.146-1.752,0.292-3.358,0.292-4.673h3.359l-0.146,2.775h0.146
						C198.648,663.896,201.131,662.145,204.49,662.145z"/>
				</g>
				<g>
					<path fill="#FFFFFF" d="M222.892,657.616l-0.585,4.966h5.258l-0.292,2.337h-5.258l-1.168,9.347
						c-0.146,2.191,0.292,3.358,2.337,3.358c0.877,0,1.753-0.146,2.19-0.292l-0.146,2.336c-0.877,0.147-1.899,0.585-3.359,0.585
						c-1.753,0-3.067-0.585-3.943-1.46c-0.876-0.877-1.168-2.483-0.876-4.527l1.168-9.492h-3.067l0.292-2.337h3.067l0.584-4.235
						L222.892,657.616z"/>
				</g>
				<g>
					<path fill="#FFFFFF" d="M240.708,662.145c0.585,0,0.585,0,1.168,0.146l-0.292,3.066c-0.292-0.146-0.877-0.146-1.168-0.146
						c-2.629,0-4.674,1.752-5.404,4.089c-0.146,0.585-0.292,0.877-0.583,1.462l-1.168,9.199h-3.651l1.461-11.976
						c0.145-2.045,0.583-3.651,0.583-5.403h3.359l-0.292,3.358h0.146C235.889,663.604,238.226,662.145,240.708,662.145z"/>
				</g>
				<g>
					<path fill="#FFFFFF" d="M258.087,675.58c-0.146,1.606-0.292,3.066-0.292,4.235h-3.36l-0.145-2.191h-0.146
						c-1.461,1.169-3.651,2.483-6.573,2.483c-4.088,0-5.841-2.483-5.549-4.965c0.585-4.236,5.112-6.572,12.852-6.572h0.146v-0.293
						c0.292-1.46,0.146-4.089-4.089-4.089c-1.899,0-3.943,0.585-5.404,1.168l-0.584-2.189c1.898-0.877,4.381-1.607,6.864-1.607
						c6.134,0,7.301,3.651,7.01,7.155L258.087,675.58z M254.874,674.12l0.292-3.068c-0.146,0-0.584,0-0.584,0
						c-3.942,0-8.178,0.877-8.616,3.943c-0.146,2.044,1.168,3.066,3.066,3.066c2.629,0,4.527-1.604,5.258-3.066
						C254.728,674.703,254.874,674.41,254.874,674.12"/>
				</g>
				<g>
					<path fill="#FFFFFF" d="M276.05,662.145c2.775,0,7.01,1.606,6.425,7.303l-1.167,10.368h-3.651l1.168-10.076
						c0.292-2.776-0.584-5.113-4.236-5.113c-2.482,0-4.527,1.607-5.257,3.359c-0.292,0.292-0.584,0.877-0.584,1.462l-1.168,10.368
						h-3.651l1.606-12.853c0.146-1.752,0.292-3.358,0.292-4.673h3.359l-0.146,2.775h0.146
						C270.062,663.751,272.691,662.145,276.05,662.145z"/>
				</g>
				<g>
					<path fill="#FFFFFF" d="M323.66,670.177c-0.147,0.585-0.292,1.167-0.292,1.46h-14.312c-0.585,4.235,2.481,6.135,6.133,6.135
						c2.629,0,4.381-0.585,5.843-0.877l0.582,2.336c-1.459,0.585-3.65,1.168-7.01,1.168c-6.133,0-9.491-3.651-8.907-8.762
						c0.584-5.111,4.819-9.347,10.806-9.347C322.929,662.145,324.098,666.817,323.66,670.177z M309.348,669.447h10.807
						c0.292-2.047-0.293-5.113-4.526-4.966C311.977,664.188,309.931,667.11,309.348,669.447"/>
				</g>
				<g>
					<path fill="#FFFFFF" d="M298.687,662.145c2.19,0,4.089,0.583,4.966,0.875l-1.169,2.337c-0.875-0.583-2.189-0.875-4.236-0.875
						c-4.673,0-7.592,3.066-8.177,6.57c-0.585,4.091,2.191,6.427,6.133,6.572c2.044,0,3.651-0.585,4.673-0.877l0.292,2.337
						c-1.167,0.292-3.359,0.877-6.133,0.877c-6.133,0-9.639-3.651-9.054-8.909C287.441,665.94,291.969,662.145,298.687,662.145z"/>
				</g>
			</g>
		</g>
		<g>
			<g>
				<g>
					<polygon fill="#FFFFFF" points="194.122,479.448 193.83,481.931 182.73,481.931 181.708,489.525 192.077,489.525 
						191.639,492.007 181.27,492.007 180.248,502.668 176.597,502.668 179.518,479.448 					"/>
				</g>
				<g>
					<path fill="#FFFFFF" d="M219.387,485.437c5.549,0,8.908,3.358,8.323,8.614c-0.876,6.136-6.133,8.909-10.806,8.909
						c-5.258,0-8.909-3.358-8.325-8.616C209.456,488.648,213.983,485.437,219.387,485.437z M217.634,500.624
						c3.359,0,6.134-2.629,6.718-6.426c0.292-2.774-0.876-6.425-4.964-6.425c-4.236,0-6.426,3.358-6.864,6.425
						C212.085,497.85,213.983,500.624,217.634,500.624"/>
				</g>
				<g>
					<path fill="#FFFFFF" d="M206.681,485.289c0.584,0,0.584,0,0.877,0.147l-0.292,2.774c-0.292-0.147-0.876-0.147-1.168-0.147
						c-2.483,0-4.381,1.754-5.257,3.943c-0.146,0.585-0.292,0.877-0.584,1.462l-1.168,8.907h-3.359l1.461-11.536
						c0.146-2.045,0.583-3.651,0.583-5.113h3.067l-0.292,3.359h0.146C202.007,486.896,204.199,485.437,206.681,485.289z"/>
				</g>
				<g>
					<path fill="#FFFFFF" d="M242.898,485.437c2.629,0,6.719,1.46,6.134,7.155l-1.168,10.076h-3.651l1.168-9.639
						c0.292-2.629-0.583-4.966-3.942-4.966c-2.336,0-4.382,1.606-5.112,3.068c-0.146,0.292-0.583,0.875-0.583,1.46l-1.168,10.076
						h-3.651l1.606-12.268c0.146-1.752,0.292-3.066,0.292-4.526h3.067l-0.146,2.774h0.146
						C237.35,486.896,239.832,485.437,242.898,485.437z"/>
				</g>
				<g>
					<path fill="#FFFFFF" d="M260.278,480.908l-0.584,4.818h4.965l-0.292,2.337h-4.966l-1.168,8.909
						c-0.146,2.044,0.292,3.358,2.19,3.358c0.877,0,1.607-0.145,2.045-0.292v2.337c-0.877,0.146-1.899,0.584-3.36,0.584
						c-1.606,0-2.774-0.584-3.65-1.167c-0.877-0.877-1.168-2.483-0.877-4.383l1.168-9.055h-3.066l0.292-2.336h3.066l0.584-3.943
						L260.278,480.908z"/>
				</g>
				<g>
					<polygon fill="#FFFFFF" points="298.247,479.156 295.473,502.376 291.969,502.23 293.284,491.424 280.139,491.569 
						278.972,502.376 275.32,502.376 278.241,479.156 281.746,479.156 280.431,488.795 293.574,488.795 294.743,478.864 					"/>
				</g>
				<g>
					<path fill="#FFFFFF" d="M315.628,498.287c-0.292,1.46-0.292,2.774-0.147,4.089h-3.358v-2.189h-0.146
						c-1.169,1.167-3.36,2.481-6.135,2.481c-3.943,0-5.548-2.337-5.403-4.818c0.584-3.943,4.818-6.135,12.268-6.135h0.145v-0.291
						c0.293-1.461,0-3.943-3.943-3.943c-1.896,0-3.651,0.583-5.256,1.168l-0.584-2.045c1.752-0.877,4.236-1.459,6.573-1.459
						c5.84,0,6.862,3.65,6.57,6.862L315.628,498.287z M312.268,496.535l0.292-2.776c-0.146,0-0.583,0-0.583,0
						c-3.65,0-7.594,0.877-8.179,3.651c-0.146,2.046,1.169,3.068,3.066,3.068c2.483,0,4.381-1.462,4.966-2.776
						C312.122,497.12,312.268,496.827,312.268,496.535"/>
				</g>
				<g>
					<polygon fill="#FFFFFF" points="327.164,477.694 324.243,502.23 320.738,502.23 323.66,477.694 					"/>
				</g>
				<g>
					<polygon fill="#FFFFFF" points="336.656,477.694 333.59,502.23 330.23,502.23 333.151,477.694 					"/>
				</g>
			</g>
		</g>
		<g>
			<g>
				<g>
					<path fill="#FFFFFF" d="M282.33,332.824c1.752,0,2.774,0.292,3.65,0.876l-0.73,1.314c-0.583-0.292-1.607-0.583-3.066-0.583
						c-2.19,0-3.359,1.168-3.359,2.044c-0.146,1.168,0.876,2.044,3.066,2.629c2.629,0.876,4.089,2.19,3.651,4.235
						c-0.146,2.19-2.483,4.088-6.426,4.088c-1.606,0-3.359-0.583-4.089-0.876l0.876-1.46c0.876,0.584,2.191,0.877,3.651,0.877
						c2.19,0,3.651-0.877,3.651-2.337c0.146-1.168-0.584-2.044-2.775-2.775c-2.483-0.876-4.235-2.044-3.942-4.089
						C276.926,334.577,279.263,332.824,282.33,332.824z"/>
				</g>
				<g>
					<path fill="#FFFFFF" d="M308.908,344.507c-0.145,0.876-0.145,1.753,0,2.337h-2.044v-1.168l0,0
						c-0.875,0.876-2.044,1.607-3.944,1.46c-2.336,0-3.649-1.46-3.358-3.067c0.292-2.336,3.068-3.65,7.594-3.65c0,0,0,0,0.147,0
						v-0.146c0.146-0.877,0-2.336-2.484-2.336c-1.167,0-2.337,0.291-3.359,0.876l-0.292-1.168c1.169-0.584,2.484-0.876,4.089-0.876
						c3.651,0,4.236,2.19,3.944,4.235L308.908,344.507z M306.864,343.631l0.147-1.753c-0.147,0-0.293,0-0.293,0
						c-2.191,0-4.673,0.584-4.82,2.337c-0.145,1.168,0.877,1.753,1.899,1.753c1.606,0,2.629-0.877,3.066-1.753
						C306.864,343.923,306.864,343.777,306.864,343.631"/>
				</g>
				<g>
					<path fill="#FFFFFF" d="M298.247,341.44c0,0.292-0.145,0.583-0.145,0.876h-8.324c-0.145,2.483,1.459,3.651,3.651,3.651
						c1.607,0,2.482-0.292,3.359-0.585l0.147,1.168c-0.877,0.292-2.191,0.584-4.09,0.584c-3.651,0-5.548-2.045-5.256-4.965
						c0.29-3.066,2.774-5.403,6.133-5.403C297.81,336.767,298.395,339.542,298.247,341.44z M289.778,341.002h6.133
						c0.147-1.168-0.145-3.066-2.627-3.066C291.237,338.082,290.215,339.833,289.778,341.002"/>
				</g>
				<g>
					<path fill="#FFFFFF" d="M264.806,359.695c1.168,1.168,2.044,2.629,1.752,4.965c-0.292,2.19-1.461,4.235-3.066,5.403
						c-1.753,1.46-4.236,2.044-7.595,2.044c-1.606,0-2.774,0-3.942-0.146l1.605-13.729c1.461-0.146,3.067-0.291,4.527-0.291
						C261.446,357.797,263.491,358.381,264.806,359.695z M256.335,370.502c4.527,0,7.302-2.19,7.886-5.842
						c0.585-3.359-1.606-5.404-6.134-5.404c-1.168,0-2.044,0.146-2.482,0.146l-1.169,11.1
						C254.874,370.794,255.605,370.502,256.335,370.502"/>
				</g>
				<g>
					<path fill="#FFFFFF" d="M274.736,361.739c0.292,0,0.584,0,0.584,0.146l-0.146,1.753c-0.146,0-0.585-0.146-0.877-0.146
						c-1.606,0-2.774,0.876-3.067,2.337c-0.146,0.292-0.146,0.583-0.292,0.876l-0.584,5.258h-2.19l0.876-6.865
						c0.146-1.168,0.146-2.19,0.292-3.066h1.898l-0.146,2.044h0.146C272.107,362.616,273.275,361.739,274.736,361.739z"/>
				</g>
				<g>
					<path fill="#FFFFFF" d="M297.81,361.739h1.899c-0.147,0.877-0.147,1.607-0.584,2.629l-0.877,5.842
						c-0.29,2.337-1.167,3.651-2.189,4.673c-1.169,0.876-3.066,1.168-4.528,1.168c-1.459,0-3.066-0.292-3.651-0.876l0.877-1.461
						c0.877,0.585,1.899,0.876,3.359,0.876c2.191,0,4.089-0.876,4.236-3.358l0.145-1.168l0,0c-0.875,0.876-2.044,1.753-3.943,1.607
						c-3.066,0-4.818-2.044-4.526-4.82c0.584-3.359,3.359-5.258,5.84-5.258c2.044,0,3.068,0.877,3.651,1.753l0,0L297.81,361.739z
						 M296.643,367.727l0.145-1.752c0-0.292,0-0.584,0-0.877c-0.145-1.168-1.167-2.044-2.774-1.898c-2.044,0-3.651,1.46-4.089,3.651
						c-0.147,2.044,0.875,3.651,3.066,3.651c1.167,0,2.629-0.876,3.066-1.899C296.495,368.312,296.643,368.02,296.643,367.727"/>
				</g>
				<g>
					<path fill="#FFFFFF" d="M284.958,369.48c-0.146,0.876-0.146,1.752,0,2.337h-2.044v-1.168l0,0
						c-0.876,0.876-2.044,1.606-3.943,1.46c-2.337,0-3.65-1.46-3.359-3.067c0.292-2.336,3.067-3.651,7.594-3.651c0,0,0,0,0.146,0
						v-0.146c0.146-0.876,0-2.336-2.483-2.336c-1.168,0-2.336,0.292-3.359,0.876l-0.292-1.167c1.168-0.584,2.482-0.877,4.088-0.877
						c3.651,0,4.382,2.19,3.943,4.236L284.958,369.48z M283.206,368.603l0.146-1.752c-0.146,0-0.292,0-0.292,0
						c-2.19,0-4.673,0.584-4.819,2.337c-0.146,1.168,0.876,1.752,1.898,1.752c1.607,0,2.629-0.876,3.067-1.752
						C282.914,369.042,282.914,368.75,283.206,368.603"/>
				</g>
				<g>
					<path fill="#FFFFFF" d="M308.179,361.593c3.358,0,5.403,2.045,5.112,5.112c-0.584,3.651-3.65,5.258-6.572,5.258
						c-3.358,0-5.403-2.045-5.111-5.112C302.045,363.492,304.967,361.593,308.179,361.593z M307.012,370.502
						c2.044,0,3.65-1.607,4.088-3.943c0.146-1.752-0.584-3.943-3.066-3.943c-2.483,0-3.943,1.898-4.235,3.943
						C303.652,369.042,304.967,370.794,307.012,370.502"/>
				</g>
				<g>
					<path fill="#FFFFFF" d="M322.636,361.593c1.607,0,4.091,0.877,3.651,4.382l-0.875,5.842h-2.044l0.582-5.842
						c0.147-1.607-0.29-3.067-2.337-3.067c-1.459,0-2.627,0.876-3.066,1.899c-0.145,0.146-0.292,0.584-0.292,0.876l-0.875,5.841
						h-2.191l0.877-7.302c0.146-1.168,0.146-1.898,0.146-2.629h1.898v1.753l0,0C319.132,362.47,320.592,361.593,322.636,361.593z"/>
				</g>
				<g>
					<path fill="#FFFFFF" d="M333.882,361.593c1.169,0,2.191,0.292,2.774,0.584l-0.875,1.168c-0.585-0.292-1.17-0.584-2.337-0.584
						c-1.17,0-2.045,0.584-2.191,1.46c-0.146,0.876,0.584,1.168,2.191,1.753c1.897,0.584,3.066,1.606,2.774,3.066
						c-0.146,1.752-2.045,3.067-4.819,3.067c-1.169,0-2.483-0.292-3.358-0.584l0.875-1.46c0.585,0.292,1.606,0.584,2.629,0.876
						c1.606,0,2.337-0.583,2.337-1.606c0.147-0.877-0.292-1.46-2.045-1.753c-2.044-0.583-3.066-1.606-2.773-2.774
						C329.647,362.762,331.399,361.593,333.882,361.593z"/>
				</g>
			</g>
		</g>
		<g>
			<g>
				<g>
					<path fill="#FFFFFF" d="M273.421,253.67c-0.146,0.584-0.292,1.168-0.292,1.461h-12.267c-0.583,3.942,2.191,5.403,5.257,5.403
						c2.336,0,3.651-0.292,4.965-0.876l0.292,2.044c-1.168,0.584-3.359,0.876-6.134,0.876c-5.403,0-8.325-3.359-7.594-7.886
						c0.583-4.673,4.235-8.762,9.347-8.616C272.691,246.077,273.713,250.75,273.421,253.67z M260.862,252.94h9.347
						c0.146-1.899-0.292-4.673-3.943-4.82C263.345,248.267,261.446,250.895,260.862,252.94"/>
				</g>
				<g>
					<path fill="#FFFFFF" d="M253.269,256.445c0.583,3.066,0.876,5.257,1.167,6.133h-3.358c-0.292-0.583-0.584-2.628-1.168-5.403
						c-0.292-3.066-1.606-4.381-4.527-4.234h-3.066l-1.168,9.784h-3.066l2.628-22.052c1.753-0.292,3.943-0.583,6.134-0.583
						c3.359,0,5.403,0.583,6.864,1.898c1.168,1.168,1.753,2.483,1.606,4.381c-0.292,3.068-2.629,4.966-5.258,5.842v0.146
						C252.099,252.502,253.122,254.254,253.269,256.445z M246.258,250.75c3.359,0,5.549-1.753,6.133-4.236
						c0.292-2.774-1.752-4.089-4.965-4.089c-1.607,0-2.629,0.145-3.067,0.292l-0.876,8.178L246.258,250.75"/>
				</g>
				<g>
					<path fill="#FFFFFF" d="M289.048,258.782c-0.292,1.46-0.292,2.774-0.147,3.943h-3.065v-2.044h-0.146
						c-1.168,1.168-3.067,2.336-5.55,2.336c-3.65,0-5.111-2.19-4.818-4.527c0.583-3.944,4.527-6.134,11.099-6.134h0.145v-0.292
						c0.147-1.168,0.147-3.65-3.358-3.65c-1.606,0-3.358,0.584-4.819,1.167l-0.583-1.898c1.606-0.876,3.65-1.46,6.133-1.46
						c5.257,0,6.134,3.359,5.842,6.572L289.048,258.782z M286.273,257.029l0.291-2.775c-0.145,0-0.291,0-0.583,0
						c-3.36,0-7.01,0.584-7.302,3.651c-0.146,1.899,1.168,2.775,2.629,2.775c2.336,0,3.942-1.168,4.527-2.775
						C285.98,257.76,286.126,257.467,286.273,257.029"/>
				</g>
				<g>
					<path fill="#FFFFFF" d="M303.36,246.077c0.292,0,0.583,0,0.875,0.145l-0.292,2.775c-0.291-0.146-0.583-0.146-1.167-0.146
						c-2.191,0-3.943,1.607-4.818,3.651c-0.147,0.584-0.292,0.876-0.292,1.46l-1.169,8.471h-3.066l1.169-11.1
						c0.145-1.898,0.583-3.359,0.583-4.966h2.776l-0.292,3.068h0.145C299.417,247.536,301.461,246.077,303.36,246.077z"/>
				</g>
				<g>
					<polygon fill="#FFFFFF" points="334.321,239.942 331.692,262.433 328.624,262.433 329.793,252.063 317.817,252.063 
						316.65,262.433 313.437,262.433 316.065,240.089 319.424,240.089 318.255,249.436 330.085,249.436 331.253,240.089 					"/>
				</g>
				<g>
					<path fill="#FFFFFF" d="M349.946,258.49c-0.293,1.46-0.293,2.774-0.146,3.943h-3.066v-2.045h-0.147
						c-1.167,1.168-3.066,2.337-5.548,2.337c-3.651,0-5.113-2.191-4.82-4.527c0.584-3.943,4.527-6.134,11.098-6.134h0.147v-0.292
						c0.146-1.168,0.146-3.651-3.358-3.651c-1.607,0-3.359,0.584-4.82,1.168l-0.583-1.899c1.604-0.876,3.651-1.46,6.133-1.46
						c5.258,0,6.133,3.359,5.841,6.572L349.946,258.49z M346.879,257.029l0.293-2.775c-0.146,0-0.293,0-0.585,0
						c-3.358,0-7.01,0.584-7.302,3.651c-0.146,1.899,1.169,2.775,2.629,2.775c2.336,0,3.943-1.168,4.527-2.775
						C346.879,257.613,347.172,257.321,346.879,257.029"/>
				</g>
				<g>
					<polygon fill="#FFFFFF" points="360.754,238.774 357.833,262.287 354.619,262.433 357.396,238.774 					"/>
				</g>
				<g>
					<polygon fill="#FFFFFF" points="369.078,238.774 366.449,262.287 363.091,262.433 366.01,238.774 					"/>
				</g>
			</g>
		</g>
		<g>
			<g>
				<g>
					<path fill="#FFFFFF" d="M404.565,120.044c1.168,0,1.899,0.291,2.189,0.438l-0.438,0.876c-0.438-0.292-1.167-0.438-1.898-0.292
						c-2.337,0-4.089,1.168-4.382,3.213c-0.292,1.898,1.022,3.212,3.359,3.212c0.731,0,1.606-0.146,2.191-0.438l0.146,0.876
						c-0.438,0.146-1.46,0.438-2.774,0.438c-2.774,0-4.674-1.459-4.381-3.942C399.016,121.796,401.352,120.044,404.565,120.044z"/>
				</g>
				<g>
					<path fill="#FFFFFF" d="M414.058,122.38l-0.438,4.089c-0.146,0.584-0.146,1.168-0.146,1.46h-1.169l0.146-0.876l0,0
						c-0.439,0.438-1.169,1.168-2.483,1.022c-1.167,0-2.337-0.438-2.189-2.482l0.438-3.359h1.167l-0.438,3.066
						c-0.292,1.168,0.293,1.899,1.46,1.753c0.877,0,1.462-0.438,1.899-1.023c0.145-0.146,0.145-0.438,0.292-0.438l0.438-3.505
						L414.058,122.38z"/>
				</g>
				<g>
					<path fill="#FFFFFF" d="M423.696,120.773l-0.146,1.607h1.897l-0.146,0.73h-1.898l-0.438,2.92c-0.147,0.73,0,1.169,0.729,1.169
						c0.438,0,0.585,0,0.729,0l-0.145,0.73c-0.293,0.146-0.585,0.146-1.17,0.146c-0.582,0-1.167-0.292-1.459-0.438
						c-0.438-0.438-0.438-0.876-0.438-1.46l0.438-3.066h-1.168l0.146-0.73h1.167l0.147-1.46L423.696,120.773z"/>
				</g>
				<g>
					<path fill="#FFFFFF" d="M418.293,122.38c0.73,0,1.46,0.146,1.752,0.292l-0.438,0.731c-0.292-0.146-0.729-0.438-1.459-0.292
						c-0.732,0-1.17,0.438-1.462,0.876c-0.146,0.438,0.292,0.731,1.169,0.877c1.168,0.438,1.752,0.876,1.752,1.606
						c-0.146,1.022-1.169,1.753-2.921,1.606c-0.729,0-1.46-0.146-1.899-0.438l0.439-0.729c0.438,0.292,1.022,0.438,1.607,0.438
						c1.021,0,1.459-0.438,1.459-0.876c0.146-0.438-0.292-0.73-1.167-1.022c-1.169-0.292-1.754-0.876-1.754-1.606
						C415.664,123.11,416.687,122.38,418.293,122.38z"/>
				</g>
				<g>
					<path fill="#FFFFFF" d="M429.977,122.38c1.899,0,3.358,1.168,2.921,2.92c-0.292,2.19-2.191,2.921-3.943,3.066
						c-1.899,0-3.358-1.167-2.921-2.92C426.325,123.403,427.932,122.38,429.977,122.38z M429.246,127.345
						c1.168,0,2.337-0.876,2.337-2.19c0.146-1.022-0.439-2.19-1.898-2.19c-1.46,0-2.337,1.168-2.482,2.19
						C427.055,126.469,427.932,127.491,429.246,127.345"/>
				</g>
				<g>
					<path fill="#FFFFFF" d="M442.682,122.38c1.022,0,2.191,0.438,1.899,2.483l-0.439,3.359h-1.167l0.438-3.214
						c0.292-1.168-0.438-1.752-1.46-1.752c-0.729,0-1.462,0.438-1.752,1.022c-0.147,0.146-0.147,0.438-0.293,0.438l-0.292,3.505
						h-1.169l0.439-3.359c0.145-0.877-0.439-1.607-1.462-1.46c-0.729,0-1.46,0.583-1.752,1.168
						c-0.147,0.146-0.147,0.438-0.292,0.438l-0.438,3.359h-1.17l0.439-4.088c0.146-0.585,0.146-1.168,0.146-1.461h1.167
						l-0.145,0.876l0,0c0.438-0.438,1.169-1.167,2.336-1.022c1.022,0,1.607,0.438,1.899,1.169l0,0
						c0.292-0.292,0.583-0.438,0.875-0.731C441.513,122.38,442.098,122.234,442.682,122.38z"/>
				</g>
				<g>
					<path fill="#FFFFFF" d="M395.219,134.355l-0.584,5.112c-0.293,2.19-1.607,2.775-3.359,2.775c-0.438,0-1.021-0.146-1.459-0.146
						l0.438-0.876c0.292,0.145,0.584,0.145,1.021,0.292c1.17,0,1.899-0.438,1.899-1.898l0.583-5.112L395.219,134.355z"/>
				</g>
				<g>
					<path fill="#FFFFFF" d="M420.63,139.028c0,0.292-0.146,0.438-0.146,0.438h-4.965c-0.147,1.46,0.875,1.898,2.189,1.898
						c0.877,0,1.461-0.145,1.898-0.291l0.146,0.729c-0.438,0.146-1.167,0.438-2.481,0.438c-2.191,0-3.507-1.168-3.066-2.921
						c0.145-1.752,1.752-3.066,3.65-3.066C420.338,136.254,420.775,138.006,420.63,139.028z M415.664,138.883h3.651
						c0.146-0.585-0.146-1.753-1.606-1.607C416.541,137.13,415.957,138.006,415.664,138.883"/>
				</g>
				<g>
					<path fill="#FFFFFF" d="M413.912,136.546l-2.921,5.549h-1.168l-0.731-2.775c-0.146-0.584-0.438-1.168-0.438-1.898l0,0
						c-0.292,0.584-0.438,1.168-0.875,1.898l-1.462,2.775h-1.167l-1.462-5.549h1.462l0.438,2.92
						c0.146,0.583,0.292,1.168,0.438,1.898l0,0c0.292-0.583,0.585-1.168,0.877-1.752l1.46-2.921h1.169l0.729,2.921
						c0.146,0.73,0.438,1.168,0.438,1.898l0,0c0.293-0.584,0.439-1.168,0.73-1.752l1.461-2.921L413.912,136.546z"/>
				</g>
				<g>
					<path fill="#FFFFFF" d="M402.521,139.028c0,0.292-0.147,0.438-0.147,0.438h-4.966c-0.145,1.46,0.877,1.898,2.191,1.898
						c0.877,0,1.46-0.145,1.899-0.291l0.146,0.729c-0.438,0.146-1.168,0.438-2.337,0.438c-2.189,0-3.504-1.168-3.066-2.921
						c0.146-1.752,1.606-3.066,3.651-3.066C402.229,136.4,402.666,138.006,402.521,139.028z M397.556,138.883h3.651
						c0.145-0.585-0.147-1.753-1.607-1.607C398.431,137.13,397.848,138.152,397.556,138.883"/>
				</g>
				<g>
					<polygon fill="#FFFFFF" points="424.134,133.771 423.259,142.096 421.944,142.242 422.967,133.771 					"/>
				</g>
				<g>
					<polygon fill="#FFFFFF" points="427.64,133.771 426.617,142.096 425.448,142.096 426.325,134.063 					"/>
				</g>
				<g>
					<path fill="#FFFFFF" d="M434.795,139.028c0,0.292-0.146,0.438-0.146,0.438h-4.965c-0.146,1.46,0.877,1.898,2.191,1.898
						c0.875,0,1.459-0.145,1.896-0.291l0.147,0.729c-0.439,0.146-1.169,0.438-2.337,0.438c-2.191,0-3.506-1.168-3.066-2.921
						c0.146-1.752,1.605-3.066,3.649-3.066C434.649,136.254,435.087,138.006,434.795,139.028z M429.977,138.883h3.651
						c0.145-0.585-0.147-1.753-1.607-1.607C430.854,137.13,430.122,138.006,429.977,138.883"/>
				</g>
				<g>
					<path fill="#FFFFFF" d="M439.907,136.4c0.146,0,0.293,0,0.438,0l-0.145,1.022c-0.147,0-0.293,0-0.439,0
						c-0.875,0-1.607,0.584-1.897,1.461c0,0.145-0.147,0.291-0.147,0.438l-0.438,2.921h-1.169l0.439-3.797
						c0.146-0.585,0.146-1.168,0.146-1.753h1.169l-0.147,1.168h0.147C438.446,136.838,439.178,136.254,439.907,136.4z"/>
				</g>
				<g>
					<path fill="#FFFFFF" d="M447.355,136.4l-2.337,4.088c-1.167,1.898-1.899,2.921-2.921,3.505c-0.73,0.438-1.46,0.584-1.753,0.729
						l-0.145-0.876c0.438,0,0.729-0.291,1.167-0.583s0.877-0.585,1.17-1.168c0.145-0.146,0.145-0.146,0.145-0.292
						c0,0,0-0.146,0-0.292l-1.898-5.111h1.461l1.168,3.359c0.146,0.438,0.292,0.876,0.292,1.168l0,0
						c0.292-0.438,0.438-0.73,0.585-1.168l1.896-3.359H447.355z"/>
				</g>
			</g>
		</g>
		<g>
			<g>
				<g>
					<path fill="#FFFFFF" d="M92.186,226.799c0,0.292-0.146,0.584-0.146,0.876h-8.178c-0.146,2.482,1.46,3.651,3.651,3.651
						c1.606,0,2.483-0.292,3.359-0.583l0.146,1.168c-0.877,0.291-2.19,0.583-3.943,0.583c-3.651,0-5.403-2.044-5.112-4.966
						c0.292-2.92,2.629-5.403,6.134-5.403C91.748,222.125,92.478,224.9,92.186,226.799z M84.008,226.36h6.134
						c0.146-1.168-0.146-3.066-2.629-3.066C85.468,223.586,84.445,225.192,84.008,226.36"/>
				</g>
				<g>
					<polygon fill="#FFFFFF" points="82.108,218.621 81.963,220.081 76.852,220.081 75.391,232.494 73.347,232.494 74.954,220.081 
						69.842,220.081 70.134,218.621 					"/>
				</g>
				<g>
					<path fill="#FFFFFF" d="M108.25,222.125c1.607,0,3.651,0.876,3.359,4.381l-0.876,5.842h-2.044l0.584-5.549
						c0.146-1.898-0.584-3.066-2.19-3.066c-1.168,0-2.337,0.876-2.629,1.752c-0.146,0.292-0.292,0.584-0.292,0.876l-0.876,6.134
						h-2.044l0.876-5.842c0.146-1.605-0.583-2.774-2.044-2.629c-1.46,0-2.482,0.877-2.775,1.899
						c-0.146,0.292-0.292,0.583-0.292,0.876l-0.877,5.841h-2.044l0.876-7.302c0.146-1.168,0.146-1.898,0.146-2.628h2.044v1.606l0,0
						c0.877-0.876,1.899-1.898,3.943-1.898c1.607,0,2.629,0.876,3.066,2.044l0,0c0.584-0.583,0.877-0.876,1.607-1.46
						C106.206,222.271,107.082,222.125,108.25,222.125z"/>
				</g>
				<g>
					<path fill="#FFFFFF" d="M121.54,222.125c2.774,0,4.673,2.044,4.381,5.112c-0.585,3.651-3.068,5.257-5.842,5.257
						c-1.607,0-2.775-0.583-3.359-1.606l-0.584,5.403h-2.044l1.168-10.954c0.146-1.168,0.146-2.336,0.292-3.359h1.898v1.753l0,0
						C118.181,222.855,119.641,222.125,121.54,222.125z M119.641,231.326c2.19,0,3.651-1.606,4.089-3.942
						c0.146-2.045-0.877-3.651-3.067-3.651c-1.459,0-3.066,0.876-3.358,2.19c-0.146,0.146-0.146,0.583-0.292,0.876l-0.145,1.753
						c0,0.291,0,0.583,0,0.876C117.158,230.45,118.327,231.326,119.641,231.326"/>
				</g>
				<g>
					<polygon fill="#FFFFFF" points="67.505,243.301 67.359,245.053 60.495,244.762 60.057,249.289 66.483,249.289 66.337,250.895 
						60.057,250.895 59.327,255.86 66.337,255.86 66.19,257.467 57.136,257.467 58.597,243.301 					"/>
				</g>
				<g>
					<path fill="#FFFFFF" d="M79.042,247.244l-4.527,4.82l3.359,5.111h-2.337l-1.46-2.336c-0.292-0.584-0.584-1.168-1.168-1.752l0,0
						c-0.583,0.583-0.876,1.167-1.46,1.898l-1.898,2.337h-2.336l4.673-5.112l-3.359-4.966h2.336l1.461,2.192
						c0.292,0.583,0.583,1.168,1.168,1.752l0,0c0.584-0.584,0.876-1.168,1.168-1.607l1.898-2.19L79.042,247.244z"/>
				</g>
				<g>
					<path fill="#FFFFFF" d="M83.862,242.57l-0.876,6.134c0.584-0.584,1.168-0.876,1.752-1.461c0.584-0.291,1.46-0.583,2.336-0.583
						c1.607,0,3.943,0.876,3.651,4.381l-0.876,5.842h-2.191l0.584-5.842c0.146-1.605-0.292-3.066-2.337-3.066
						c-1.46,0-2.629,0.876-3.066,1.898c-0.146,0.292-0.146,0.584-0.292,0.877l-0.876,5.84h-2.19l1.752-14.896L83.862,242.57z"/>
				</g>
				<g>
					<polygon fill="#FFFFFF" points="93.354,257.321 94.522,247.244 96.713,247.244 95.545,257.321 					"/>
				</g>
				<g>
					<path fill="#FFFFFF" d="M95.837,245.638c-0.877,0-1.168-0.585-1.168-1.168c0.145-0.585,0.876-1.168,1.605-1.168
						c0.876,0,1.168,0.583,1.168,1.168C97.297,245.053,96.713,245.638,95.837,245.638z"/>
				</g>
				<g>
					<path fill="#FFFFFF" d="M106.206,246.953c3.066,0,4.673,2.044,4.381,5.111c-0.585,3.651-3.359,5.258-5.842,5.258
						c-1.753,0-3.066-0.585-3.651-1.898l0,0l-0.146,1.606H99.05c0.146-0.583,0.292-1.752,0.583-2.483l1.607-12.121h2.044
						l-0.876,6.133C102.993,247.829,104.599,246.953,106.206,246.953z M104.599,256.007c2.19,0,3.651-1.607,4.089-3.651
						c0.146-2.044-0.877-3.651-3.067-3.651c-1.46,0-3.066,0.876-3.359,2.19c0,0.146-0.146,0.584-0.292,0.877l-0.146,1.752
						c0,0.146,0,0.584,0,0.584C101.824,255.131,102.993,256.007,104.599,256.007"/>
				</g>
				<g>
					<polygon fill="#FFFFFF" points="112.631,257.029 113.946,247.244 115.99,247.244 114.675,257.321 					"/>
				</g>
				<g>
					<path fill="#FFFFFF" d="M131.178,246.953c1.168,0,2.19,0.291,2.775,0.583l-0.876,1.168c-0.584-0.292-1.168-0.584-2.336-0.584
						s-2.045,0.584-2.19,1.46c-0.146,0.877,0.583,1.169,2.044,1.753c1.898,0.583,3.066,1.607,2.628,3.066
						c-0.146,1.753-1.898,3.067-4.673,3.067c-1.167,0-2.337-0.292-3.066-0.584l0.876-1.46c0.584,0.292,1.606,0.584,2.629,0.876
						c1.607,0,2.336-0.584,2.336-1.606c0.146-0.876-0.292-1.461-2.044-1.752c-2.044-0.585-3.068-1.607-2.775-2.775
						C126.651,248.267,128.695,246.953,131.178,246.953z"/>
				</g>
				<g>
					<path fill="#FFFFFF" d="M122.416,244.323l-0.292,2.775h3.066l-0.292,1.459h-3.067l-0.583,5.258
						c-0.146,1.168,0.146,2.044,1.46,2.044c0.583,0,0.876,0,1.167,0l-0.146,1.461c-0.584,0.146-1.168,0.146-1.899,0.292
						c-0.876,0-1.752-0.146-2.19-0.877c-0.583-0.583-0.583-1.459-0.583-2.628l0.583-5.404h-1.898l0.292-1.461h1.898l0.292-2.336
						L122.416,244.323z"/>
				</g>
				<g>
					<path fill="#FFFFFF" d="M114.968,245.346c-0.876,0-1.168-0.583-1.168-1.168c0.146-0.583,0.876-1.168,1.607-1.168
						c0.876,0,1.168,0.585,1.168,1.168C116.575,245.053,115.99,245.638,114.968,245.346z"/>
				</g>
			</g>
		</g>
		<g>
			<g>
				<g>
					<path fill="#FFFFFF" d="M52.755,386.42c2.336,0,3.942,0.584,4.673,0.876l-0.877,2.045c-0.584-0.292-2.044-0.877-4.089-1.168
						c-3.067,0-4.381,1.752-4.527,3.066c-0.146,1.898,0.876,2.775,3.942,3.943c3.651,1.459,5.258,3.067,4.966,5.842
						c-0.292,3.066-3.359,5.84-8.471,5.84c-2.19,0-4.381-0.584-5.403-1.167l0.876-2.191c1.168,0.877,3.067,1.169,4.966,1.169
						c3.066,0,4.819-1.459,5.112-3.359c0.145-1.898-0.877-3.066-3.651-4.089c-3.359-1.168-5.404-2.775-5.112-5.549
						C45.453,388.757,48.374,386.42,52.755,386.42z"/>
				</g>
				<g>
					<path fill="#FFFFFF" d="M65.314,385.398l-1.168,8.908l0,0c0.583-0.876,1.46-1.168,2.19-1.898
						c0.876-0.585,2.044-0.876,3.066-0.876c2.19,0,5.258,1.168,4.819,6.134l-1.168,8.615H70.28l0.876-8.324
						c0.292-2.336-0.584-4.38-3.359-4.38c-1.899,0-3.651,1.168-4.236,2.629c-0.146,0.291-0.291,0.875-0.583,1.168l-1.168,8.762
						h-3.067l2.629-21.322L65.314,385.398z"/>
				</g>
				<g>
					<path fill="#FFFFFF" d="M106.497,391.823c3.944,0,6.426,3.068,5.842,7.303c-0.583,5.11-4.381,7.885-8.178,7.885
						c-2.044,0-3.65-0.875-4.673-2.189l0,0l-0.876,7.887h-2.774l2.044-15.772c0.146-1.898,0.292-3.359,0.292-4.674h2.628
						l-0.146,2.483l0,0C101.97,392.993,103.723,391.97,106.497,391.823z M104.016,404.967c3.066,0,5.11-2.335,5.403-5.549
						c0.292-2.775-1.168-5.403-4.088-5.403c-2.045,0-4.09,1.167-4.82,3.359c-0.146,0.291-0.292,0.876-0.584,1.168l-0.292,2.483
						c0,0.291,0,0.875,0,1.167C100.218,403.652,101.97,404.967,104.016,404.967"/>
				</g>
				<g>
					<path fill="#FFFFFF" d="M86.782,391.97c4.528,0,7.302,3.067,6.865,7.595c-0.584,5.257-4.965,7.886-8.763,7.594
						c-4.381,0.146-7.302-2.774-6.864-7.594C78.458,394.891,82.401,391.823,86.782,391.97z M85.03,405.113
						c2.774,0,5.111-2.336,5.403-5.549c0.292-2.483-0.583-5.549-4.089-5.549c-3.505,0-5.258,3.066-5.549,5.549
						C80.503,402.777,82.255,405.113,85.03,405.113"/>
				</g>
			</g>
		</g>
		<g>
			<g>
				<g>
					<path fill="#FFFFFF" d="M42.678,490.109c1.461,0.291,3.068,1.168,2.775,3.066c-0.146,1.168-0.876,1.897-1.607,2.629
						c-1.168,0.876-3.066,1.168-5.549,1.168c-1.46,0-2.482,0-3.066-0.146l1.606-12.56c0.876-0.146,2.336-0.293,3.651-0.146
						c2.044,0,3.359,0.29,4.09,0.875c0.876,0.585,1.168,1.169,1.168,2.337C45.453,488.503,44.285,489.67,42.678,490.109
						L42.678,490.109z M39.027,495.805c2.045,0,4.089-0.584,4.236-2.483c0.146-1.752-1.607-2.337-3.651-2.481h-1.753l-0.583,4.818
						C37.567,495.805,38.151,495.95,39.027,495.805 M38.443,485.582l-0.585,4.088h1.899c2.19,0,3.651-0.875,3.651-2.189
						c0.292-1.461-1.168-2.191-3.067-2.044C39.465,485.289,38.882,485.289,38.443,485.582"/>
				</g>
				<g>
					<path fill="#FFFFFF" d="M53.485,487.626c0.292,0,0.292,0,0.583,0.147l-0.145,1.604c-0.146,0-0.585,0-0.585-0.146
						c-1.46,0-2.629,0.877-3.066,2.191c-0.146,0.146-0.146,0.583-0.146,0.875l-0.584,4.821h-2.044l0.876-6.136
						c0.146-1.167,0.146-2.044,0.292-2.773h1.753l-0.146,1.898h0.146C51.002,488.355,52.317,487.626,53.485,487.626z"/>
				</g>
				<g>
					<polygon fill="#FFFFFF" points="55.237,497.12 56.405,487.626 58.305,487.918 57.136,497.12 					"/>
				</g>
				<g>
					<path fill="#FFFFFF" d="M64.438,484.997l-0.292,2.629h3.066l-0.146,1.169H64l-0.584,4.964c-0.145,1.169,0.292,1.754,1.46,1.899
						c0.585,0,0.876,0,1.168,0l-0.146,1.169c-0.584,0.146-1.168,0.146-1.898,0.293c-0.876,0-1.753-0.147-2.044-0.585
						c-0.584-0.585-0.584-1.462-0.584-2.337l0.584-4.966h-1.753l0.146-1.169h1.753l0.145-2.189L64.438,484.997z"/>
				</g>
				<g>
					<path fill="#FFFFFF" d="M57.429,486.166c-0.877,0-1.168-0.584-1.168-1.169c0.145-0.585,0.876-1.167,1.46-0.875
						c0.877,0,1.168,0.583,1.168,1.167C58.888,485.582,58.305,486.166,57.429,486.166z"/>
				</g>
				<g>
					<polygon fill="#FFFFFF" points="68.235,496.827 69.257,487.918 71.302,487.918 70.28,497.12 					"/>
				</g>
				<g>
					<path fill="#FFFFFF" d="M70.425,486.166c-0.876,0-1.168-0.584-1.168-1.169c0.146-0.585,0.877-1.167,1.461-0.875
						c0.876,0,1.168,0.583,1.168,1.167C71.74,485.874,71.156,486.166,70.425,486.166z"/>
				</g>
				<g>
					<path fill="#FFFFFF" d="M78.166,487.626c1.168,0,2.044,0.147,2.629,0.585l-0.877,1.167c-0.583-0.292-1.168-0.583-2.19-0.583
						c-1.168,0-2.044,0.583-2.044,1.168c-0.146,0.877,0.583,1.169,2.044,1.606c1.899,0.585,2.775,1.46,2.629,2.774
						c-0.146,1.606-1.898,2.776-4.527,2.776c-1.168,0-2.337-0.147-3.067-0.585l0.877-1.17c0.583,0.293,1.605,0.585,2.482,0.585
						c1.46,0,2.337-0.585,2.337-1.46c0.145-0.877-0.292-1.169-1.899-1.606c-1.898-0.585-2.774-1.606-2.629-2.629
						C74.077,488.795,75.684,487.626,78.166,487.626z"/>
				</g>
				<g>
					<path fill="#FFFFFF" d="M86.344,483.391l-0.584,5.842c0.584-0.584,1.168-0.877,1.753-1.169c0.583-0.583,1.461-0.583,2.19-0.583
						c1.607,0,3.651,0.875,3.359,3.943l-0.584,5.403h-2.19l0.584-5.258c0.292-1.46-0.292-2.774-2.337-2.629
						c-1.168,0-2.482,0.877-2.775,1.752c-0.146,0.147-0.146,0.585-0.292,0.877l-0.583,5.403h-2.044l1.606-13.58L86.344,483.391z"/>
				</g>
				<g>
					<path fill="#FFFFFF" d="M61.81,517.564c0.876,0.875,1.606,1.46,2.337,2.189H61.81c-0.292-0.292-0.876-0.875-1.168-1.459
						c-1.606,1.167-3.067,1.459-4.819,1.606c-3.066,0-4.673-1.606-4.381-3.358c0.146-1.754,1.606-3.066,3.651-3.651l0,0
						c-0.584-0.877-1.168-1.899-0.877-2.629c0.146-1.606,1.753-3.359,4.382-3.359c1.898,0,3.358,1.168,3.066,2.63
						c-0.292,1.459-1.168,2.336-3.943,3.358l0,0c1.168,1.167,2.482,2.629,3.358,3.651c0.877-0.877,1.461-2.191,2.045-3.651h1.898
						C64,514.789,63.124,516.396,61.81,517.564z M56.114,518.879c1.459,0,2.483-0.584,3.359-1.169
						c-0.876-0.875-2.337-2.337-3.651-4.089c-0.876,0.585-2.19,1.168-2.336,2.629C53.193,517.564,54.361,518.732,56.114,518.879
						 M58.012,508.071c-1.168,0-2.044,0.877-2.19,1.899c-0.146,0.877,0.292,1.606,0.876,2.336c1.753-0.877,2.775-1.459,2.775-2.481
						C59.619,508.803,59.327,507.779,58.012,508.071"/>
				</g>
				<g>
					<path fill="#FFFFFF" d="M46.768,533.191c3.359,0,5.111,1.897,4.819,4.674c-0.584,3.358-3.36,4.818-6.134,4.818
						c-3.067,0-5.112-1.752-4.819-4.674C41.072,535.236,43.7,533.191,46.768,533.191z M45.746,541.661
						c1.898,0,3.65-1.46,3.942-3.651c0.146-1.606-0.583-3.65-2.774-3.65c-2.336,0-3.651,1.752-3.943,3.65
						C42.678,540.055,43.7,541.516,45.746,541.661"/>
				</g>
				<g>
					<path fill="#FFFFFF" d="M35.668,529.686c1.607,0,2.629,0.292,3.359,0.585l-0.876,1.167c-0.583-0.292-1.46-0.583-2.775-0.583
						c-2.19,0-3.066,1.168-3.066,1.897c-0.146,1.169,0.876,1.899,2.775,2.484c2.483,0.875,3.651,1.896,3.359,3.65
						c-0.146,2.045-2.19,3.651-5.842,3.651c-1.607,0-3.066-0.292-3.651-0.877l0.876-1.46c0.877,0.583,2.045,0.875,3.359,0.875
						c2.045,0,3.36-0.875,3.36-2.189c0-1.169-0.584-1.898-2.629-2.483c-2.336-0.875-3.943-1.899-3.651-3.651
						C30.557,531.292,32.748,529.686,35.668,529.686z"/>
				</g>
				<g>
					<path fill="#FFFFFF" d="M64.146,533.481l-0.876,6.72c-0.146,0.875-0.146,1.752-0.146,2.482h-1.899v-1.607l0,0
						c-0.584,0.877-1.898,1.752-3.942,1.752c-1.753,0-3.651-0.875-3.359-4.088l0.583-5.259h2.044l-0.584,4.966
						c-0.146,1.754,0.292,3.068,2.191,2.776c1.46,0,2.482-0.877,2.775-1.606c0.145-0.293,0.292-0.585,0.292-0.877l0.584-5.549
						L64.146,533.481z"/>
				</g>
				<g>
					<path fill="#FFFFFF" d="M70.28,530.708l-0.292,2.629h3.066l-0.146,1.167h-3.066l-0.585,4.966
						c-0.146,1.169,0.146,1.754,1.461,1.899c0.584,0,0.876,0,1.168,0l-0.146,1.169c-0.583,0.146-1.168,0.146-1.898,0.29
						c-0.876,0-1.753-0.145-2.044-0.582c-0.584-0.585-0.584-1.462-0.584-2.337l0.584-4.966h-1.753l0.146-1.169h1.753l0.146-2.189
						L70.28,530.708z"/>
				</g>
				<g>
					<path fill="#FFFFFF" d="M77.582,529.101l-0.583,5.843c0.583-0.584,1.168-0.877,1.752-1.169c0.584-0.583,1.46-0.583,2.19-0.583
						c1.606,0,3.651,0.875,3.36,3.941l-0.585,5.405h-2.19l0.583-5.258c0.292-1.462-0.291-2.774-2.336-2.629
						c-1.168,0-2.482,0.877-2.774,1.752c-0.146,0.147-0.146,0.585-0.292,0.877l-0.584,5.403h-2.044l1.607-13.583H77.582z"/>
				</g>
				<g>
					<path fill="#FFFFFF" d="M60.788,560.207c0,0.292-0.146,0.585-0.146,0.877H52.9c-0.145,2.191,1.461,3.359,3.36,3.359
						c1.46,0,2.337-0.293,3.066-0.585l0.146,1.169c-0.876,0.146-2.044,0.585-3.651,0.585c-3.359,0-5.258-1.899-4.965-4.528
						c0.292-2.774,2.482-4.966,5.841-4.966C60.349,555.974,61.079,558.747,60.788,560.207z M53.047,559.917h5.841
						c0.146-1.17-0.146-2.629-2.483-2.629C54.507,557.288,53.339,558.747,53.047,559.917"/>
				</g>
				<g>
					<path fill="#FFFFFF" d="M50.856,552.614l-5.842,12.851H42.97l-1.168-6.718c-0.292-1.752-0.583-3.066-0.583-4.235l0,0
						c-0.584,1.169-0.877,2.483-1.753,4.235l-3.066,6.718h-2.045l-2.482-12.851h2.19l1.168,6.57
						c0.292,1.607,0.584,3.359,0.584,4.528c0.584-1.169,1.168-2.773,1.753-4.528l2.774-6.425h2.044l1.168,6.572
						c0.292,1.607,0.584,3.066,0.584,4.381l0,0c0.583-1.459,1.168-2.773,1.752-4.528l2.775-6.425L50.856,552.614z"/>
				</g>
				<g>
					<path fill="#FFFFFF" d="M75.83,553.489l-0.292,2.629h3.066l-0.145,1.17h-3.067l-0.584,4.966
						c-0.146,1.167,0.146,1.752,1.46,1.896c0.584,0,0.877,0,1.168,0l-0.146,1.17c-0.584,0.145-1.169,0.145-1.899,0.292
						c-0.876,0-1.752-0.147-2.044-0.585c-0.584-0.584-0.584-1.459-0.584-2.336l0.584-4.966h-1.753l0.146-1.168h1.753l0.146-2.191
						L75.83,553.489z"/>
				</g>
				<g>
					<path fill="#FFFFFF" d="M67.359,555.974c1.168,0,2.044,0.145,2.629,0.584l-0.877,1.168c-0.292-0.293-1.167-0.585-2.19-0.585
						c-1.168,0-2.044,0.585-2.044,1.169c-0.146,0.875,0.585,1.168,2.044,1.607c1.899,0.582,2.775,1.46,2.629,2.774
						c-0.146,1.606-1.898,2.773-4.527,2.773c-1.168,0-2.337-0.145-3.067-0.584l0.876-1.168c0.583,0.293,1.605,0.585,2.482,0.585
						c1.46,0,2.337-0.585,2.337-1.462c0.146-0.875-0.292-1.167-1.899-1.604c-1.898-0.585-2.774-1.607-2.628-2.629
						C63.416,557.141,65.022,555.974,67.359,555.974z"/>
				</g>
				<g>
					<polygon fill="#FFFFFF" points="38.882,588.247 39.758,579.192 41.802,578.9 40.926,588.395 					"/>
				</g>
				<g>
					<path fill="#FFFFFF" d="M38.443,575.396l-5.842,12.851h-2.19l-1.168-6.718c-0.292-1.752-0.584-3.066-0.584-4.233l0,0
						c-0.584,1.167-0.876,2.481-1.752,4.233l-3.067,6.718h-2.044l-2.483-12.851h2.19l1.168,6.572
						c0.292,1.604,0.584,3.358,0.584,4.526c0.584-1.168,1.168-2.774,1.752-4.526l3.067-6.428h2.044l1.168,6.573
						c0.292,1.606,0.584,3.066,0.584,4.381c0.584-1.46,1.167-2.774,1.752-4.526l2.775-6.428L38.443,575.396z"/>
				</g>
				<g>
					<path fill="#FFFFFF" d="M41.072,577.588c-0.877,0-1.168-0.585-1.168-1.17c0.145-0.584,0.876-1.167,1.459-0.877
						c0.877,0,1.168,0.585,1.168,1.17S41.802,577.44,41.072,577.588z"/>
				</g>
				<g>
					<polygon fill="#FFFFFF" points="47.936,574.812 46.183,588.395 44.139,588.395 45.746,574.812 					"/>
				</g>
				<g>
					<path fill="#FFFFFF" d="M59.619,585.91c-0.146,0.877-0.146,1.754-0.146,2.337h-1.899v-1.605l0,0
						c-0.876,0.875-2.19,1.897-3.942,1.753c-2.629,0-4.527-1.899-4.236-4.674c0.292-3.066,2.775-4.966,5.55-4.966
						c1.752,0,2.774,0.585,3.359,1.46l0,0l0.583-5.403h2.045L59.619,585.91z M57.574,584.45l0.146-1.606c0-0.146,0-0.583,0-0.583
						c-0.146-1.169-1.168-2.046-2.774-1.898c-2.044,0-3.359,1.606-3.651,3.358c-0.146,1.899,0.583,3.358,2.774,3.358
						c1.46,0,2.775-0.877,3.067-2.044C57.72,584.888,57.72,584.743,57.574,584.45"/>
				</g>
				<g>
					<polygon fill="#FFFFFF" points="66.337,574.812 64.73,588.247 62.832,588.247 64.292,574.666 					"/>
				</g>
				<g>
					<polygon fill="#FFFFFF" points="68.089,588.247 69.257,579.192 71.302,578.9 70.134,588.247 					"/>
				</g>
				<g>
					<path fill="#FFFFFF" d="M70.425,577.44c-0.876,0-1.168-0.585-1.168-1.167c0.146-0.585,0.877-1.17,1.461-0.877
						c0.876,0,1.168,0.584,1.168,1.167C71.74,577.148,71.156,577.44,70.425,577.44z"/>
				</g>
				<g>
					<path fill="#FFFFFF" d="M79.334,574.52c0.876,0,1.168,0.146,1.752,0.146l-0.583,1.168c-0.292-0.146-0.585-0.293-1.168-0.293
						c-1.753,0-2.336,1.17-2.483,2.63l-0.146,0.584h2.629l-0.146,1.168H76.56l-0.876,7.887h-2.044l0.876-7.887h-1.753l0.146-1.168
						h1.607v-0.438c0.146-1.169,0.583-2.483,1.752-3.358C77.29,574.812,78.312,574.52,79.334,574.52z"/>
				</g>
				<g>
					<path fill="#FFFFFF" d="M89.996,583.136c0,0.293-0.146,0.585-0.146,0.877h-7.886c-0.146,2.189,1.459,3.359,3.359,3.359
						c1.459,0,2.336-0.293,3.066-0.585l0.146,1.17c-0.876,0.145-2.044,0.582-3.651,0.582c-3.359,0-5.257-1.897-4.966-4.526
						c0.292-2.775,2.483-4.965,5.842-4.965C89.411,578.9,89.996,581.384,89.996,583.136z M82.108,582.698h5.842
						c0.146-1.169-0.146-2.629-2.483-2.629C83.277,580.069,82.401,581.529,82.108,582.698"/>
				</g>
			</g>
		</g>
	</g>
	<g>
		<polygon fill="#405E5E" points="183.023,606.357 181.27,617.602 187.987,617.309 187.987,618.771 179.372,618.771 
			180.979,606.357 		"/>
		<polygon fill="#405E5E" points="190.033,618.771 191.347,609.861 193.392,609.716 192.223,618.771 		"/>
		<path fill="#405E5E" d="M201.424,605.48c0.876,0,1.168,0.147,1.753,0.147l-0.585,1.167c-0.292-0.146-0.583-0.292-1.168-0.292
			c-1.752,0-2.337,1.169-2.483,2.629l-0.146,0.584h2.629l-0.146,1.168h-2.629l-0.876,7.595h-2.044l0.876-7.595h-1.607l0.146-1.168
			h1.607l0.146-0.584c0.292-1.17,0.584-2.337,1.752-3.066C199.525,605.628,200.401,605.48,201.424,605.48z"/>
		<path fill="#405E5E" d="M192.516,608.401c-0.877,0-1.168-0.584-1.168-1.169c0.146-0.583,0.876-0.875,1.46-0.875
			c0.877,0,1.168,0.583,1.168,1.167C193.83,607.817,193.246,608.109,192.516,608.401z"/>
		<path fill="#405E5E" d="M206.243,607.232l-0.292,2.483h3.066l-0.145,1.168h-3.213l-0.584,4.82
			c-0.146,1.167,0.146,1.752,1.461,1.752c0.583,0,0.876,0,1.168,0l-0.146,1.167c-0.584,0.147-1.168,0.147-1.899,0.293
			c-0.876,0-1.752-0.146-2.044-0.583c-0.584-0.585-0.584-1.169-0.584-2.337l0.584-4.82h-1.752l0.145-1.167h1.753l0.292-2.191
			L206.243,607.232z"/>
	</g>
</g>
<g id="Layer_6">
</g>
<g id="Layer_2">
</g>
<g>
	<circle fill="#4A8080" cx="386.31" cy="495.512" r="22.49"/>
	<g>
		<path fill="#FFFFFF" d="M391.421,496.098c-1.604,1.897-4.818,5.11-7.447,5.11c-2.045,0-3.066-2.483-3.066-4.235
			c0-4.381,4.381-8.617,6.572-8.617c0.583,0,1.606,0.147,1.606,1.022c0,1.754-3.506,4.966-5.112,5.987
			c-0.293,1.462,0.146,2.337,1.898,2.337c1.899,0,3.651-1.897,5.111-2.919L391.421,496.098z M387.917,486.166
			c0-1.461,1.752-2.775,3.066-2.775c0.585,0,1.169,0.584,1.169,1.169c0,1.46-1.314,3.214-2.921,3.214
			C388.502,487.773,387.917,487.041,387.917,486.166z"/>
	</g>
</g>
<g>
	<polygon fill="#99C9C9" points="244.944,403.069 242.022,417.089 322.929,417.089 324.827,402.632 	"/>
	<polygon fill="#99C9C9" points="245.966,392.116 243.045,406.136 323.95,406.136 325.85,391.678 	"/>
	<polygon fill="#4A8080" points="324.243,402.777 325.558,409.35 323.66,423.659 322.198,416.942 	"/>
	<polygon fill="#4A8080" points="322.198,416.942 323.66,423.659 243.483,423.807 242.022,417.089 	"/>
	<polygon fill="#4A8080" points="325.12,391.678 326.435,398.396 324.683,412.854 323.221,406.136 	"/>
	<polygon fill="#4A8080" points="323.221,406.136 324.683,412.854 244.359,412.854 243.045,406.136 	"/>
	<polygon fill="#4A8080" points="326.142,380.725 327.456,387.296 325.558,401.9 324.243,395.183 	"/>
	<polygon fill="#4A8080" points="324.243,395.183 325.558,401.9 245.528,401.9 244.067,395.183 	"/>
	<polygon fill="#99C9C9" points="246.988,379.703 244.067,395.183 324.243,395.183 326.287,378.827 	"/>
</g>
<g>
	<path fill="#FFFFFF" d="M184.191,368.166c1.314-0.292,2.629,0.876,2.482,2.337c-0.146,1.752-2.629,2.336-3.651,0.876
		C182,370.21,182.73,368.457,184.191,368.166L184.191,368.166z"/>
	<path fill="#FFFFFF" d="M181.416,373.569c1.022-0.876,2.629-0.583,3.797-0.73c1.022-0.146,2.336,0.146,2.92,1.022
		c0.73,1.168,0.877,2.629,1.46,4.088c0.292,1.168,0.876,2.337,0.584,3.505c-0.584,0.146-1.168,0.146-1.46-0.438
		c-0.584-1.606-1.022-3.359-1.607-4.965c-0.146-0.292-0.291-0.438-0.583-0.585c0.73,3.36,1.898,6.573,2.774,9.785
		c-0.876,0-1.605,0-2.336,0c-0.145,2.337,0,4.673,0,7.01c0,0.585-0.292,1.168-0.876,1.168c-0.583,0-1.022-0.583-0.876-1.022
		c0-2.337,0-4.673,0-7.01c-0.146,0-0.438,0-0.584,0c0,2.336,0,4.819,0,7.156c-0.146,1.168-1.752,1.022-1.898,0
		c0-2.336,0-4.819,0-7.156c-0.876,0-1.607,0-2.483,0c0.731-3.213,1.607-6.425,2.337-9.639c-0.146,0.146-0.292,0.146-0.438,0.146
		c-0.585,1.753-0.877,3.505-1.607,5.258c-0.146,0.876-1.607,0.729-1.607-0.146c0.146-1.314,0.585-2.629,1.022-3.797
		C180.394,375.905,180.54,374.591,181.416,373.569L181.416,373.569z"/>
</g>
<g>
	<path fill="#FFFFFF" d="M193.65,339.795c0.585-1.022-0.438-1.607-0.438-1.607l-3.506-2.483c-0.292-0.145-1.607-1.022-2.189-0.145
		c-0.584,0.73-0.439,1.46,0.145,1.898l2.337,1.606c0.147,0,0.147,0.146,0,0.292l-1.46,1.899c0,0.146-0.147,0.292-0.147,0.292
		c-1.314,2.628,0.73,3.65,1.314,3.796c0.147,0,0.292,0,0.439,0c0.73,0,3.212,0,5.548,0c2.774,0,2.629-1.606,2.629-1.606v-4.965
		c0,0,0,0,0-0.146c0-0.146-0.145-1.314-1.314-1.314c-0.877,0-1.022,0.73-1.022,1.022c0,0.146,0,0.292,0,0.438v2.044
		c0,0.146-0.146,0.146-0.146,0.146h-3.213c-0.147,0-0.147,0,0-0.146C193.213,340.379,193.505,340.088,193.65,339.795z"/>
	<circle fill="#FFFFFF" cx="201.828" cy="343.154" r="2.483"/>
	<path fill="#FFFFFF" d="M204.312,347.098c0-0.584-0.438-1.022-1.022-1.022h-15.042c-0.585,0-1.022,0.438-1.022,1.022
		c0,0.583,0.438,1.022,1.022,1.022h15.042C203.874,348.266,204.312,347.681,204.312,347.098z"/>
</g>
<g>
	<path fill="#FFFFFF" d="M391.386,364.735c1.604-0.584,3.212,1.168,2.481,2.629c-0.438,1.46-2.629,1.898-3.504,0.583
		C389.339,367.072,390.071,365.027,391.386,364.735L391.386,364.735z"/>
	<path fill="#FFFFFF" d="M388.172,369.555c1.314-0.584,2.921-0.292,4.381-0.292c1.17,0,2.629-0.146,3.651,0.73
		c0.877,0.585,0.877,1.607,0.877,2.629c0,1.899,0,4.09,0,5.988c0,0.438-0.147,1.168-0.731,1.168
		c-0.583,0.146-1.168-0.583-1.022-1.168c0-1.898,0-3.797,0-5.841c-0.146,0-0.583,0-0.583,0c0,5.549,0,11.1,0,16.648
		c0.146,1.314-2.191,1.606-2.337,0.292c0-3.36,0-6.718,0-10.077c-0.146,0-0.439,0-0.584,0c0,2.921,0,5.841,0,8.617
		c0,0.583,0,1.168-0.293,1.898c-0.729,0.584-2.191,0.292-2.191-0.876c0-5.549,0-11.1,0-16.649c-0.145,0-0.438,0-0.582,0
		c0,1.899,0,3.651,0,5.404c0,0.583-0.293,1.606-1.022,1.313c-0.439,0-0.731-0.583-0.731-0.876c0-2.337,0-4.673,0-7.01
		C386.857,370.869,387.295,369.992,388.172,369.555L388.172,369.555z"/>
</g>
<g>
	<g>
		<path fill="#FFFFFF" d="M408.399,349.765l-2.045,0.73l-2.481-5.988h-6.28v-1.168h4.381v-1.898h-4.673l-0.147-3.797
			c1.022,0,1.899-0.876,1.899-2.044c0-1.168-0.877-2.044-1.899-2.044c-0.875,0-1.604,0.729-1.897,1.46h-0.146v0.292
			c0,0.146,0,0.146,0,0.292c0,0.146,0,0.292,0,0.438l0.584,10.077l6.865,0.146l2.481,6.425l3.651-1.167L408.399,349.765z"/>
		<path fill="#FFFFFF" d="M394.379,350.203c-1.167-1.169-1.752-2.629-1.898-4.235c0-1.607,0.584-3.066,1.606-4.235l-1.752-1.607
			c-3.214,3.359-3.066,8.763,0.292,11.829c1.607,1.607,3.797,2.337,5.841,2.337c2.191,0,4.381-0.876,5.988-2.483l-1.752-1.606
			C400.513,352.394,396.716,352.394,394.379,350.203z"/>
	</g>
</g>
<g>
	<polygon fill="#99C9C9" points="385.726,192.188 382.806,206.208 463.712,206.061 465.61,191.603 	"/>
	<polygon fill="#99C9C9" points="386.895,181.234 383.828,195.254 464.733,195.108 466.633,180.65 	"/>
	<polygon fill="#4A8080" points="465.026,191.749 466.341,198.321 464.589,212.633 462.981,205.915 	"/>
	<polygon fill="#4A8080" points="462.981,205.915 464.589,212.633 384.266,212.925 382.806,206.208 	"/>
	<polygon fill="#4A8080" points="465.903,180.65 467.363,188.829 466.925,204.747 464.004,195.108 	"/>
	<polygon fill="#4A8080" points="464.004,195.108 466.925,201.825 385.288,201.972 383.828,195.254 	"/>
	<polygon fill="#4A8080" points="466.925,169.843 468.24,176.269 466.341,190.873 465.026,184.155 	"/>
	<polygon fill="#4A8080" points="465.026,184.155 466.341,190.873 386.31,191.019 384.851,184.302 	"/>
	<polygon fill="#99C9C9" points="388.646,169.551 384.851,184.302 465.026,184.155 466.925,169.843 	"/>
</g>
<g>
	<polygon fill="#99C9C9" points="171.047,192.188 168.127,206.208 249.033,206.061 250.932,191.603 	"/>
	<polygon fill="#99C9C9" points="172.216,181.234 169.149,195.254 250.055,195.108 251.954,180.65 	"/>
	<polygon fill="#4A8080" points="250.347,191.749 251.662,198.321 249.909,212.633 248.303,205.915 	"/>
	<polygon fill="#4A8080" points="248.303,205.915 249.909,212.633 169.586,212.925 168.127,206.208 	"/>
	<polygon fill="#4A8080" points="251.223,180.65 252.684,188.829 252.245,204.747 249.325,195.108 	"/>
	<polygon fill="#4A8080" points="249.325,195.108 252.245,201.825 170.609,201.972 169.149,195.254 	"/>
	<polygon fill="#4A8080" points="252.245,169.843 253.56,176.269 251.662,190.873 250.347,184.155 	"/>
	<polygon fill="#4A8080" points="250.347,184.155 251.662,190.873 171.632,191.019 170.171,184.302 	"/>
	<polygon fill="#99C9C9" points="173.969,169.551 170.171,184.302 250.347,184.155 252.245,169.843 	"/>
</g>
<g>
	<polygon fill="#405E5E" points="616.323,348.158 617.493,352.539 612.965,387.442 611.795,382.916 	"/>
	<polygon fill="#405E5E" points="611.795,382.916 612.965,387.442 563.457,387.442 562.288,383.062 	"/>
	<polygon fill="#C1DDDD" points="616.323,348.158 611.795,382.916 562.288,383.062 566.962,348.158 	"/>
	<polygon fill="#336666" points="586.824,371.086 587.991,362.908 589.891,362.762 588.721,371.232 	"/>
	<polygon fill="#336666" points="580.106,359.549 578.645,369.918 584.925,369.918 584.779,371.232 576.893,371.232 
		578.207,359.549 	"/>
	<path fill="#336666" d="M597.338,358.819c0.729,0,1.169,0.146,1.606,0.146l-0.438,1.168c-0.292-0.146-0.584-0.292-1.169-0.292
		c-1.606,0-2.189,1.168-2.337,2.483l-0.145,0.438h2.481l-0.146,1.168h-2.483l-0.875,7.156h-1.899l0.877-7.156h-1.461l0.146-1.168
		h1.46l0.146-0.438c0.292-1.168,0.584-2.19,1.606-2.921C595.586,359.11,596.461,358.819,597.338,358.819z"/>
	<path fill="#336666" d="M601.719,360.28l-0.292,2.336h2.776l-0.147,1.167h-2.774l-0.585,4.528
		c-0.145,1.022,0.147,1.606,1.315,1.752c0.438,0,0.877,0,1.169,0l-0.147,1.168c-0.438,0.146-1.021,0.146-1.752,0.292
		c-0.877,0-1.606-0.146-1.899-0.584c-0.438-0.438-0.438-1.168-0.438-2.19l0.585-4.527h-1.606l0.145-1.168h1.607l0.292-2.044
		L601.719,360.28z"/>
	<path fill="#336666" d="M589.014,361.302c-0.73,0-1.022-0.438-1.022-1.022c0.147-0.584,0.729-0.877,1.314-0.877
		c0.729,0,1.022,0.438,1.022,1.022C590.328,361.01,589.743,361.447,589.014,361.302z"/>
</g>
</svg>
