<?xml version="1.0" encoding="utf-8"?>
<!-- Generator: Adobe Illustrator 18.1.1, SVG Export Plug-In . SVG Version: 6.00 Build 0)  -->
<svg version="1.1" id="Livello_1" xmlns="http://www.w3.org/2000/svg" xmlns:xlink="http://www.w3.org/1999/xlink" x="0px" y="0px"
	 viewBox="0 0 841.9 595.3" enable-background="new 0 0 841.9 595.3" xml:space="preserve">
<g id="Layer_8">
	<g>
		<polygon fill="#C1DDDD" points="628.6,66.5 575.5,452 502.6,451.3 493.8,514.7 274.1,512 283.1,446.1 212.9,445.2 257.2,124.6 
			411.2,126.5 414.9,99.9 361.8,99.3 366.6,63.4 		"/>
	</g>
</g>
<polygon fill="#405E5E" points="320.4,250.7 521.2,250.7 515.2,295.3 313.9,294.7 "/>
<g id="Layer_9">
	<polygon fill="#405E5E" points="326.4,444.4 327.5,448.8 326.1,458.4 325.1,453.9 	"/>
	<polygon fill="#405E5E" points="325.1,453.9 326.1,458.4 292.6,458.5 291.6,453.9 	"/>
	<polygon fill="#405E5E" points="326.7,437.1 327.7,441.7 326.4,451.2 325.3,446.5 	"/>
	<polygon fill="#405E5E" points="325.3,446.5 326.4,451.2 292.9,451.2 291.8,446.7 	"/>
	<polygon fill="#405E5E" points="326.9,429.8 327.9,434.4 326.7,444 325.7,439.4 	"/>
	<polygon fill="#405E5E" points="325.7,439.4 326.7,444 293.1,444 292.1,439.4 	"/>
	<polygon fill="#405E5E" points="430.4,444.3 431.4,448.8 430.1,458.6 429,454 	"/>
	<polygon fill="#405E5E" points="429,454 430.1,458.6 360.8,458.7 359.8,454.1 	"/>
	<polygon fill="#405E5E" points="431,436.7 432,441.3 430.7,451.1 429.7,446.5 	"/>
	<polygon fill="#405E5E" points="429.7,446.5 430.7,451.1 361.4,451.2 360.5,446.6 	"/>
	<polygon fill="#405E5E" points="431.7,429.2 432.6,433.7 431.4,443.6 430.4,439 	"/>
	<polygon fill="#405E5E" points="430.4,439 431.4,443.6 362.2,443.8 361.1,439.2 	"/>
</g>
<g id="Layer_7">
	<g>
		<g>
			<g enable-background="new    ">
				<g>
					<polygon fill="#8F9A9E" points="414.9,99.9 415.5,103.1 362.3,102.5 361.8,99.3 					"/>
				</g>
				<g>
					<polygon fill="#8F9A9E" points="283.1,446.1 283.7,449.4 213.5,448.5 212.9,445.2 					"/>
				</g>
				<g>
					<polygon fill="#8F9A9E" points="575.5,452 576.1,455.4 503.3,454.5 502.6,451.3 					"/>
				</g>
				<g>
					<polygon fill="#9BA8AB" points="628.6,66.5 629.3,69.9 576.1,455.4 575.5,452 					"/>
				</g>
				<g>
					<polygon fill="#9BA8AB" points="502.6,451.3 503.3,454.5 494.4,518 493.8,514.7 					"/>
				</g>
				<g>
					<polygon fill="#8F9A9E" points="493.8,514.7 494.4,518 274.5,515.3 274.1,512 					"/>
				</g>
			</g>
		</g>
	</g>
</g>
<g id="Layer_4">
	<polygon fill="#4A8080" points="620.5,69.9 621.4,73.2 617.5,97.1 616.8,93.8 	"/>
	<polygon fill="#4A8080" points="616.8,93.8 617.5,97.1 371.1,94.7 370.4,91.4 	"/>
	<polygon fill="#4A8080" points="585.1,350.7 585.7,354 572.9,450 572.2,446.7 	"/>
	<polygon fill="#4A8080" points="572.2,446.7 572.9,450 504.3,450.1 503.7,446.8 	"/>
	<polygon fill="#4A8080" points="617.1,98.4 618,101.7 599.9,236.2 599.2,233 	"/>
	<polygon fill="#4A8080" points="599.2,233 599.9,236.2 531.4,236.4 530.8,233 	"/>
	<polygon fill="#4A8080" points="594.1,279.8 594.9,283.1 586,350 585.3,346.7 	"/>
	<polygon fill="#4A8080" points="585.3,346.7 586,350 517.5,350.2 516.8,346.7 	"/>
	<polygon fill="#4A8080" points="599.2,240.1 599.9,243.4 595.4,276.9 594.7,273.6 	"/>
	<polygon fill="#4A8080" points="594.7,273.6 595.4,276.9 526.9,277.1 526.2,273.8 	"/>
	<polygon fill="#4A8080" points="325.7,127.5 326.4,130.7 308.9,262.1 308.3,258.8 	"/>
	<polygon fill="#4A8080" points="308.3,258.8 308.9,262.1 242.3,262.3 241.5,259.1 	"/>
	<polygon fill="#4A8080" points="307.5,262.5 308.1,265.9 297.7,344.1 296.9,340.8 	"/>
	<polygon fill="#4A8080" points="296.9,340.8 297.7,344.1 231,344.2 230.4,341 	"/>
	<polygon fill="#4A8080" points="296.5,344.4 297.2,347.7 284.5,443.3 283.7,440 	"/>
	<polygon fill="#4A8080" points="283.7,440 284.5,443.3 217.8,443.4 217.1,440.2 	"/>
	<polygon fill="#4A8080" points="543.6,102.3 544.4,105.6 541.1,128.8 540.5,125.6 	"/>
	<polygon fill="#4A8080" points="540.5,125.6 541.1,128.8 464.2,129 463.5,125.8 	"/>
	<polygon fill="#4A8080" points="494.2,462.6 494.9,466 488.9,511.1 488,507.6 	"/>
	<polygon fill="#4A8080" points="488,507.6 488.9,511.1 284.4,508.6 283.7,505.3 	"/>
	<polygon fill="#4A8080" points="533.1,153.6 534,157 522.1,245.8 521.2,242.5 	"/>
	<polygon fill="#4A8080" points="521.2,242.5 522.1,245.8 320.4,246.3 319.8,243 	"/>
	<polygon fill="#4A8080" points="464.9,247.9 467.5,254.5 462.7,290.5 460.1,283.8 	"/>
	<polygon fill="#4A8080" points="460.1,283.8 462.7,290.5 364.3,290.7 361.7,284.1 	"/>
	<polygon fill="#4A8080" points="512.5,298.5 513.3,301.7 496.9,424.2 496.1,421 	"/>
	<polygon fill="#4A8080" points="496.1,421 496.9,424.2 295.3,424.6 294.7,421.4 	"/>
</g>
<g id="Layer_5">
	<polygon fill="#80BCBC" points="620.5,69.9 616.8,93.8 370.4,91.4 374.1,67.6 	"/>
	<polygon fill="#80BCBC" points="585.1,350.7 572.2,446.7 503.7,446.8 516.6,350.8 	"/>
	<polygon fill="#80BCBC" points="617.1,98.4 599.2,233 530.8,233 548.6,98.6 	"/>
	<polygon fill="#80BCBC" points="594.1,279.8 585.3,346.7 516.8,346.7 525.8,280 	"/>
	<polygon fill="#80BCBC" points="599.2,240.1 594.7,273.6 526.2,273.8 530.6,240.2 	"/>
	<polygon fill="#80BCBC" points="325.7,127.5 308.3,258.8 241.5,259.1 259.1,127.6 	"/>
	<polygon fill="#80BCBC" points="307.5,262.5 296.9,340.8 230.4,341 240.7,262.7 	"/>
	<polygon fill="#80BCBC" points="296.5,344.4 283.7,440 217.1,440.2 229.8,344.6 	"/>
	<polygon fill="#80BCBC" points="543.6,102.3 540.5,125.6 463.5,125.8 466.7,102.5 	"/>
	<polygon fill="#80BCBC" points="494.2,462.6 488,507.6 283.7,505.3 292.5,463.1 	"/>
	<polygon fill="#80BCBC" points="533.1,153.6 521.2,242.5 319.8,243 331.5,154.2 	"/>
	<polygon fill="#99C9C9" points="464.9,247.9 460.1,283.8 361.7,284.1 366.5,248.2 	"/>
	<polygon fill="#80BCBC" points="512.5,298.5 496.1,421 294.7,421.4 310.9,298.9 	"/>
</g>
<g id="Layer_3">
	<g id="nopointer-test_2_">
		<g>
			<g>
				<g>
					<path fill="#FFFFFF" d="M486.8,81c-0.1,0.6-0.1,1.2-0.1,1.7h-1.4v-0.8h-0.1c-0.6,0.6-1.4,1.1-2.5,1.1c-1.7,0-2.5-1.1-2.3-2.1
						c0.2-1.7,2.1-2.7,5.2-2.7c0,0,0,0,0.1,0V78c0.1-0.6,0-1.6-1.7-1.6c-0.8,0-1.6,0.2-2.3,0.6l-0.2-0.8c0.8-0.4,1.8-0.6,2.9-0.6
						c2.5,0,3,1.5,2.9,3L486.8,81z M485.3,80.3l0.1-1.2c-0.1,0-0.2,0-0.2,0c-1.6,0-3.3,0.4-3.4,1.6c-0.1,0.8,0.6,1.3,1.3,1.2
						c1.1,0,1.9-0.6,2.1-1.2C485.2,80.7,485.3,80.5,485.3,80.3"/>
				</g>
				<g>
					<path fill="#FFFFFF" d="M477.3,72.6c1.4,0,2.3,0.4,2.7,0.4l-0.4,1.1c-0.6-0.2-1.3-0.4-2.3-0.4c-2.7,0-4.7,1.5-5,4.2
						c-0.4,2.5,1.2,4,4,4c1,0,1.8-0.2,2.5-0.4l0.2,1.1c-0.6,0.2-1.7,0.6-3.1,0.6c-3.3,0-5.6-1.7-5.2-4.9
						C471,74.7,473.7,72.8,477.3,72.6z"/>
				</g>
				<g>
					<path fill="#FFFFFF" d="M501.2,78.7c0,0.2-0.1,0.4-0.1,0.6h-5.9c-0.2,1.7,1,2.5,2.5,2.5c1.1,0,1.8-0.2,2.3-0.4l0.1,1
						c-0.6,0.2-1.5,0.4-2.9,0.4c-2.5,0-4-1.4-3.6-3.5c0.4-2.1,1.9-3.8,4.4-3.8C500.9,75.4,501.3,77.4,501.2,78.7z M495.4,78.5h4.4
						c0.2-0.8-0.1-2.1-1.8-2.1C496.3,76.3,495.6,77.6,495.4,78.5"/>
				</g>
				<g>
					<path fill="#FFFFFF" d="M493.4,72.1c0.6,0,1,0.1,1.3,0.2l-0.4,1c-0.2-0.1-0.6-0.2-1-0.2c-1.3,0-1.8,1-1.8,2.1l-0.1,0.4h2.1
						l-0.2,1h-1.9l-0.8,6.1h-1.5l0.8-6.1h-1.2l0.2-1h1.2l0.1-0.4c0.2-1,0.6-1.9,1.3-2.5C491.9,72.2,492.7,72.1,493.4,72.1z"/>
				</g>
			</g>
		</g>
		<g>
			<g>
				<g>
					<path fill="#FFFFFF" d="M549.6,158.6c1.5,0,2.3,0.2,2.7,0.4l-0.4,1c-0.6-0.2-1.3-0.4-2.3-0.4c-2.8,0-4.7,1.3-5,3.8
						c-0.4,2.3,1.3,3.6,4,3.6c1,0,1.9-0.1,2.5-0.4l0.1,1c-0.6,0.2-1.7,0.4-3.2,0.4c-3.3,0-5.7-1.6-5.2-4.6
						C543.3,160.5,546,158.5,549.6,158.6z"/>
				</g>
				<g>
					<path fill="#FFFFFF" d="M561.1,161.2l-0.6,4.7c-0.1,0.6-0.1,1.3-0.1,1.8h-1.4v-1.1l0,0c-0.6,0.6-1.4,1.3-2.9,1.3
						c-1.3,0-2.8-0.6-2.5-2.9l0.4-3.7h1.5l-0.4,3.6c-0.1,1.3,0.2,2.1,1.6,2.1c1.1,0,1.8-0.6,2.1-1.1c0.1-0.2,0.2-0.4,0.2-0.6l0.6-4
						L561.1,161.2z"/>
				</g>
				<g>
					<path fill="#FFFFFF" d="M567.4,161.1c0.2,0,0.4,0,0.4,0.1l-0.1,1.1c-0.1,0-0.4-0.1-0.6-0.1c-1.1,0-1.9,0.6-2.3,1.5
						c-0.1,0.2-0.1,0.4-0.2,0.6l-0.4,3.4h-1.4l0.6-4.5c0.1-0.8,0.1-1.4,0.2-2.1h1.4l-0.1,1.3h0.1C565.3,161.6,566.4,161,567.4,161.1
						z"/>
				</g>
				<g>
					<polygon fill="#FFFFFF" points="568.6,167.8 569.3,161.2 570.9,161.2 570.1,167.6 					"/>
				</g>
				<g>
					<path fill="#FFFFFF" d="M570.1,160.1c-0.6,0-0.8-0.4-0.8-0.8c0.1-0.4,0.6-0.8,1.1-0.8s0.8,0.4,0.8,0.8
						C571.2,159.9,570.8,160.1,570.1,160.1z"/>
				</g>
				<g>
					<path fill="#FFFFFF" d="M577,161c2.5,0,4,1.4,3.6,3.3c-0.4,2.3-2.5,3.4-4.6,3.4c-2.3,0-4-1.3-3.6-3.3
						C572.6,162.3,574.7,161,577,161z M576.2,167c1.5,0,2.7-1.1,2.9-2.5c0.1-1.1-0.4-2.5-2.3-2.5c-1.8,0-2.7,1.3-2.9,2.5
						C573.8,165.8,574.7,167,576.2,167"/>
				</g>
				<g>
					<path fill="#FFFFFF" d="M585.5,161c0.8,0,1.6,0.2,2.1,0.4l-0.6,0.8c-0.4-0.2-0.8-0.4-1.7-0.4c-1,0-1.5,0.4-1.6,1
						c-0.1,0.6,0.4,0.8,1.5,1.1c1.4,0.4,2.1,1,1.9,1.9c-0.1,1.2-1.4,2.1-3.4,2.1c-1,0-1.7-0.1-2.3-0.4l0.6-0.8
						c0.4,0.2,1.2,0.4,1.9,0.4c1.1,0,1.7-0.4,1.8-1c0.1-0.6-0.4-0.8-1.5-1.2c-1.5-0.4-2.1-1.1-2.1-1.8
						C582.6,161.8,583.7,161,585.5,161z"/>
				</g>
				<g>
					<polygon fill="#FFFFFF" points="589.1,167.8 589.9,161.1 591.4,161.1 590.6,167.8 					"/>
				</g>
				<g>
					<path fill="#FFFFFF" d="M606.5,161.1l-2.9,4.7c-1.4,2.3-2.3,3.4-3.4,4.2c-0.8,0.4-1.6,0.8-2.1,0.8l-0.2-1
						c0.4-0.1,1-0.2,1.4-0.6c0.4-0.2,1.1-0.8,1.4-1.4c0.1-0.1,0.2-0.2,0.2-0.4c0-0.1,0-0.1,0-0.4l-2.3-6h1.7l1.4,3.8
						c0.1,0.4,0.2,1,0.4,1.4l0,0c0.2-0.4,0.6-0.8,0.6-1.3l2.1-3.8L606.5,161.1z"/>
				</g>
				<g>
					<path fill="#FFFFFF" d="M596,159.3l-0.2,1.8h2.3l-0.1,0.8h-2.3l-0.4,3.5c-0.1,0.8,0.2,1.3,1.1,1.2c0.4,0,0.8,0,0.8,0l-0.1,0.8
						c-0.4,0.1-0.8,0.1-1.4,0.2c-0.8,0-1.3-0.1-1.6-0.4c-0.4-0.4-0.4-1-0.4-1.7l0.4-3.5h-1.3l0.1-0.8h1.3l0.2-1.6L596,159.3z"/>
				</g>
				<g>
					<path fill="#FFFFFF" d="M590.7,160.1c-0.6,0-0.8-0.4-0.8-0.8c0.1-0.4,0.6-0.8,1.1-0.8s0.8,0.4,0.8,0.8
						C591.8,159.7,591.3,159.9,590.7,160.1z"/>
				</g>
			</g>
		</g>
		<g>
			<g>
				<g>
					<path fill="#FFFFFF" d="M544.8,257.4c-0.1,0.6-0.1,1.2,0,1.6h-1.4v-0.8h-0.1c-0.6,0.6-1.5,1.1-2.8,1c-1.7,0-2.5-1-2.3-1.9
						c0.2-1.6,2.1-2.5,5.4-2.5h0.1v-0.2c0.1-0.6,0-1.5-1.8-1.5c-0.8,0-1.6,0.2-2.3,0.6l-0.2-0.8c0.8-0.4,1.8-0.6,2.9-0.6
						c2.5,0,3.1,1.4,2.9,2.8L544.8,257.4z M543.3,256.8l0.1-1.2c-0.1,0-0.2,0-0.4,0c-1.6,0-3.4,0.4-3.5,1.5
						c-0.1,0.8,0.6,1.2,1.4,1.1c1.1,0,1.9-0.6,2.1-1.1C543.2,257.1,543.2,257,543.3,256.8"/>
				</g>
				<g>
					<polygon fill="#FFFFFF" points="538.4,249.7 538.2,250.7 534.7,250.8 533.6,259.1 532,259 533.1,250.8 529.4,250.8 
						529.7,249.8 					"/>
				</g>
				<g>
					<path fill="#FFFFFF" d="M552.3,252.2c2.1,0,3.5,1.4,3.2,3.3c-0.4,2.3-2.3,3.6-4.2,3.6c-1.2,0-2.1-0.4-2.5-1.1l0,0l-0.4,3.6
						h-1.5l0.8-7.3c0.1-0.8,0.1-1.5,0.2-2.1h1.4v1.2C549.8,252.6,550.9,252.2,552.3,252.2z M551,258.3c1.6,0,2.7-1.1,2.9-2.5
						c0.1-1.3-0.6-2.5-2.3-2.5c-1.1,0-2.1,0.6-2.5,1.5c-0.1,0.1-0.2,0.4-0.2,0.6l-0.1,1.2c0,0.2,0,0.4,0,0.6
						C549.1,257.7,549.9,258.2,551,258.3"/>
				</g>
				<g>
					<path fill="#FFFFFF" d="M564.5,255.3c0,0.2-0.1,0.4-0.1,0.6h-6c-0.1,1.6,1.1,2.3,2.7,2.3c1.1,0,1.8-0.2,2.5-0.4l0.1,0.8
						c-0.6,0.1-1.6,0.4-2.9,0.4c-2.7,0-4-1.4-3.8-3.3c0.2-2.1,1.9-3.6,4.4-3.6C564.1,252.2,564.6,254.1,564.5,255.3z M558.5,255h4.5
						c0.1-0.8-0.1-2.1-1.9-1.9C559.6,252.9,558.7,254.2,558.5,255"/>
				</g>
				<g>
					<path fill="#FFFFFF" d="M575.8,250.4l-0.2,1.9h2.3l-0.2,1h-2.3l-0.4,3.5c-0.1,0.8,0.2,1.3,1.1,1.3c0.4,0,0.8,0,1,0l-0.1,0.8
						c-0.4,0.1-0.8,0.1-1.4,0.2c-0.8,0-1.3-0.1-1.6-0.6c-0.4-0.4-0.4-1-0.4-1.7l0.4-3.6h-1.3l0.2-1h1.3l0.2-1.6L575.8,250.4z"/>
				</g>
				<g>
					<path fill="#FFFFFF" d="M569.3,252.1c0.8,0,1.6,0.2,2.1,0.4l-0.6,0.8c-0.4-0.2-0.8-0.4-1.7-0.4c-1,0-1.5,0.4-1.6,1
						s0.4,0.8,1.5,1.1c1.4,0.4,2.1,1.1,2.1,2.1c-0.1,1.2-1.4,2.1-3.4,2.1c-1,0-1.7-0.1-2.3-0.4l0.6-0.8c0.4,0.2,1.2,0.4,1.9,0.6
						c1.2,0,1.7-0.4,1.8-1s-0.4-1-1.5-1.2c-1.5-0.4-2.1-1.1-2.1-1.9C566.3,253.1,567.5,252.1,569.3,252.1z"/>
				</g>
				<g>
					<path fill="#FFFFFF" d="M583.3,252.1c0.2,0,0.4,0,0.4,0.1l-0.1,1.2c-0.1,0-0.4-0.1-0.6-0.1c-1.1,0-2.1,0.6-2.3,1.5
						c-0.1,0.2-0.1,0.4-0.2,0.6l-0.4,3.5h-1.5l0.6-4.6c0.1-0.8,0.1-1.5,0.2-2.1h1.4l-0.1,1.3h0.1
						C581.3,252.6,582.3,252.2,583.3,252.1z"/>
				</g>
				<g>
					<path fill="#FFFFFF" d="M592.3,252.3l-3,4.8c-1.4,2.3-2.3,3.4-3.4,4.2c-0.8,0.4-1.6,0.8-2.1,0.8l-0.4-1.1
						c0.4-0.1,1-0.2,1.5-0.6c0.4-0.2,1.1-0.8,1.4-1.4c0.1-0.1,0.2-0.2,0.2-0.4s0-0.2,0-0.4l-2.3-6.2h1.7l1.4,4
						c0.1,0.4,0.2,1,0.4,1.4l0,0c0.2-0.4,0.6-0.8,0.6-1.4l2.1-4L592.3,252.3z"/>
				</g>
			</g>
		</g>
		<g id="Assyrian____Reliefs_2_">
			<g>
				<g>
					<path fill="#FFFFFF" d="M529.1,296l3.1,10.8h-1.7l-1-3.4h-4.5l-1.7,3.4h-1.8l5.6-10.7L529.1,296z M525.5,302.2h3.7l-0.8-3.1
						c-0.1-0.8-0.4-1.4-0.4-1.9l0,0c-0.4,0.6-0.6,1.3-0.8,1.9L525.5,302.2"/>
				</g>
				<g>
					<path fill="#FFFFFF" d="M537.6,298.8c1,0,1.7,0.2,2.1,0.6l-0.6,1c-0.4-0.2-1-0.6-1.7-0.4c-1,0-1.6,0.6-1.6,1.1
						c-0.1,0.6,0.4,1,1.6,1.3c1.5,0.4,2.3,1.2,2.1,2.3c-0.1,1.4-1.5,2.3-3.6,2.3c-1,0-1.8-0.2-2.5-0.6l0.6-1.1
						c0.4,0.4,1.3,0.6,2.1,0.6c1.2,0,1.8-0.6,1.8-1.2c0-0.6-0.4-1.1-1.5-1.4c-1.5-0.4-2.3-1.3-2.1-2.1
						C534.3,299.9,535.7,298.8,537.6,298.8z"/>
				</g>
				<g>
					<path fill="#FFFFFF" d="M545,298.8c1,0,1.7,0.2,2.1,0.6l-0.6,1c-0.4-0.2-1-0.6-1.7-0.4c-1,0-1.6,0.6-1.6,1.1
						c-0.1,0.6,0.4,1,1.6,1.3c1.5,0.4,2.3,1.2,2.1,2.3c-0.1,1.4-1.5,2.3-3.6,2.3c-1,0-1.8-0.2-2.5-0.6l0.6-1.1
						c0.4,0.4,1.3,0.6,2.1,0.6c1.2,0,1.8-0.6,1.8-1.2c0-0.6-0.4-1.1-1.5-1.4c-1.5-0.4-2.3-1.3-2.1-2.1
						C541.7,299.9,543,298.8,545,298.8z"/>
				</g>
				<g>
					<path fill="#FFFFFF" d="M556.9,298.9l-3.1,5.6c-1.5,2.7-2.5,4-3.7,4.8c-0.8,0.6-1.7,0.8-2.1,0.8l-0.4-1.2
						c0.4-0.1,1-0.4,1.6-0.8c0.6-0.4,1.2-0.8,1.5-1.6c0.1-0.1,0.2-0.2,0.2-0.4c0-0.1,0-0.2,0-0.4l-2.5-7.1h1.8l1.4,4.5
						c0.1,0.6,0.4,1.2,0.4,1.6l0,0c0.2-0.4,0.4-1.1,0.8-1.6l2.3-4.5h1.8V298.9z"/>
				</g>
				<g>
					<path fill="#FFFFFF" d="M562.3,298.9c0.2,0,0.4,0,0.4,0.1l-0.1,1.3c-0.2,0-0.4-0.1-0.6-0.1c-1.2,0-2.1,0.8-2.5,1.8
						c-0.1,0.2-0.1,0.4-0.2,0.6l-0.6,4h-1.6l0.6-5.2c0.1-0.8,0.2-1.7,0.2-2.3h1.4l-0.1,1.5h0.1C560.1,299.5,561.3,298.8,562.3,298.9
						z"/>
				</g>
				<g>
					<polygon fill="#FFFFFF" points="563.5,306.7 564.4,298.9 566.1,299 565.2,306.6 					"/>
				</g>
				<g>
					<path fill="#FFFFFF" d="M565.4,297.6c-0.6,0-1-0.4-0.8-0.8c0.1-0.6,0.6-0.8,1.2-1c0.6,0,1,0.4,0.8,1
						C566.4,297.2,566.1,297.7,565.4,297.6z"/>
				</g>
				<g>
					<path fill="#FFFFFF" d="M574.4,304.7c-0.1,0.6-0.1,1.3-0.1,1.8h-1.5v-1h-0.1c-0.6,0.6-1.6,1.2-2.9,1.2c-1.8,0-2.7-1.2-2.5-2.3
						c0.2-1.8,2.3-2.9,5.8-2.9c0,0,0,0,0.1,0v-0.1c0.1-0.6,0-1.8-1.8-1.8c-0.8,0-1.7,0.2-2.5,0.6l-0.2-1c0.8-0.4,1.9-0.6,3.1-0.8
						c2.8,0,3.2,1.6,3.1,3.1L574.4,304.7z M572.9,304l0.1-1.3c-0.1,0-0.2,0-0.2,0c-1.7,0-3.6,0.4-3.7,1.7c-0.1,0.8,0.6,1.4,1.4,1.3
						c1.2,0,2.1-0.6,2.3-1.3C572.8,304.3,572.9,304.1,572.9,304"/>
				</g>
				<g>
					<path fill="#FFFFFF" d="M582.2,298.7c1.3,0,3.1,0.6,2.8,3.3l-0.6,4.6h-1.6l0.6-4.4c0.1-1.3-0.2-2.3-1.8-2.3
						c-1.1,0-2.1,0.6-2.3,1.4c-0.1,0.2-0.2,0.4-0.2,0.6l-0.6,4.6h-1.6l0.6-5.6c0.1-0.8,0.1-1.4,0.2-2.1h1.5v1.3l0,0
						C579.6,299.5,580.7,298.8,582.2,298.7z"/>
				</g>
				<g>
					<path fill="#FFFFFF" d="M546,321.6c0,0.4-0.1,0.6-0.2,0.6h-6.3c-0.2,1.9,1.1,2.5,2.7,2.7c1.2,0,1.9-0.2,2.5-0.4l0.1,1
						c-0.6,0.2-1.6,0.6-3.1,0.6c-2.8,0-4.2-1.6-4-3.8c0.4-2.3,2.1-4.2,4.7-4C545.7,317.9,546.1,320.1,546,321.6z M539.6,321.1h4.8
						c0.2-0.8-0.1-2.3-2.1-2.3C540.8,319,539.9,320.2,539.6,321.1"/>
				</g>
				<g>
					<path fill="#FFFFFF" d="M535.7,322.8c0.2,1.5,0.4,2.5,0.6,3h-1.7c-0.1-0.4-0.4-1.3-0.6-2.5c-0.2-1.5-0.8-2.1-2.3-2.1h-1.5
						l-0.6,4.6h-1.6l1.3-10.6c0.8-0.1,2.1-0.2,3.1-0.4c1.7,0,2.8,0.4,3.4,0.8c0.6,0.6,0.8,1.3,0.8,2.1c-0.1,1.4-1.4,2.3-2.8,2.7l0,0
						C535.1,321,535.5,321.8,535.7,322.8z M532.2,320.1c1.7,0,3-0.8,3.1-2.1c0.1-1.4-1-2.1-2.7-2.1c-0.8,0-1.4,0.1-1.6,0.1l-0.4,3.8
						L532.2,320.1"/>
				</g>
				<g>
					<polygon fill="#FFFFFF" points="550.5,314.5 549.1,325.8 547.5,325.8 548.9,314.5 					"/>
				</g>
				<g>
					<polygon fill="#FFFFFF" points="551.9,325.7 552.8,318.1 554.4,318 553.6,325.7 					"/>
				</g>
				<g>
					<path fill="#FFFFFF" d="M553.7,316.8c-0.6,0-1-0.4-0.8-0.8c0.1-0.6,0.6-0.8,1.2-1s1,0.4,0.8,1
						C554.9,316.4,554.3,316.8,553.7,316.8z"/>
				</g>
				<g>
					<path fill="#FFFFFF" d="M570.4,314.3c0.6,0,1.1,0.1,1.4,0.2l-0.4,1.1c-0.2-0.1-0.6-0.2-1-0.2c-1.4,0-1.8,1.1-2.1,2.3l-0.1,0.4
						h2.1l-0.1,1.1h-2.1l-0.8,6.7h-1.6l0.8-6.7h-1.3l0.1-1.1h1.3l0.1-0.4c0.1-1.1,0.6-2.1,1.4-2.7
						C568.8,314.4,569.5,314.3,570.4,314.3z"/>
				</g>
				<g>
					<path fill="#FFFFFF" d="M564.1,321.4c0,0.4-0.1,0.6-0.2,0.6h-6.3c-0.2,1.9,1.1,2.5,2.7,2.7c1.2,0,1.9-0.2,2.5-0.4l0.1,1
						c-0.6,0.2-1.6,0.6-3.1,0.6c-2.8,0-4.2-1.6-4-3.8c0.4-2.3,2.1-4.2,4.7-4C563.7,317.8,564.2,320.1,564.1,321.4z M557.7,321.1h4.8
						c0.2-0.8-0.1-2.3-2.1-2.3C558.8,318.9,557.9,320.2,557.7,321.1"/>
				</g>
				<g>
					<path fill="#FFFFFF" d="M574.6,317.9c1,0,1.7,0.2,2.1,0.6l-0.6,1c-0.4-0.2-1-0.6-1.7-0.4c-1,0-1.6,0.6-1.6,1.1
						c-0.1,0.6,0.4,1,1.6,1.3c1.5,0.4,2.3,1.2,2.1,2.3c-0.1,1.4-1.5,2.3-3.6,2.3c-1,0-1.8-0.2-2.5-0.6l0.6-1.1
						c0.4,0.4,1.3,0.6,2.1,0.6c1.2,0,1.8-0.6,1.8-1.2c0-0.6-0.4-1.1-1.5-1.4c-1.5-0.4-2.3-1.3-2.1-2.1
						C571.5,318.9,572.7,317.8,574.6,317.9z"/>
				</g>
			</g>
		</g>
		<g>
			<g>
				<g>
					<path fill="#FFFFFF" d="M568.6,389.5l-0.4,2.7h3.1l-0.1,1.3h-3.1l-0.6,5c-0.1,1.2,0.2,1.8,1.4,1.8c0.6,0,1,0,1.3-0.1v1.3
						c-0.4,0.1-1.1,0.4-1.9,0.2c-1,0-1.7-0.2-2.1-0.8c-0.6-0.6-0.8-1.4-0.6-2.5l0.6-5.2h-1.8l0.1-1.3h1.8l0.4-2.3L568.6,389.5z"/>
				</g>
				<g>
					<path fill="#FFFFFF" d="M557.9,392c2.9,0,4.8,1.9,4.5,4.8c-0.4,3.3-3.1,5.2-6,5c-1.6,0-2.8-0.6-3.5-1.5l0,0l-0.6,5.2h-2.1
						l1.3-10.3c0.1-1.2,0.2-2.1,0.2-3.1h1.9l-0.1,1.6l0,0C554.5,392.7,556,392,557.9,392z M556.2,400.6c2.3,0,3.7-1.5,4-3.6
						c0.2-1.9-0.8-3.5-3.1-3.4c-1.5,0-3,0.8-3.5,2.1c-0.1,0.2-0.2,0.4-0.4,0.6l-0.2,1.6c0,0.2,0,0.6,0,0.8
						C553.6,399.7,554.6,400.6,556.2,400.6"/>
				</g>
				<g>
					<path fill="#FFFFFF" d="M549.8,392.2l-4,6.7c-1.9,3.2-3.2,4.9-4.8,6c-1.2,0.8-2.1,1.1-2.7,1.1l-0.4-1.5
						c0.6-0.1,1.3-0.4,2.1-0.8c0.6-0.4,1.4-1.1,2.1-1.9c0.1-0.2,0.2-0.4,0.2-0.4c0-0.1,0-0.2-0.1-0.4l-3.3-8.6h2.3l1.9,5.6
						c0.1,0.6,0.4,1.4,0.6,1.9l0,0c0.4-0.6,0.6-1.3,1-2.1l3-5.6L549.8,392.2z"/>
				</g>
				<g>
					<path fill="#FFFFFF" d="M535,392.3h1.9c-0.2,0.6-0.2,1.4-0.4,2.5l-0.6,5.4c-0.4,2.1-1,3.5-2.3,4.2c-1.3,0.8-2.9,1.2-4.4,1.1
						c-1.4,0-2.9-0.4-3.7-0.8l0.6-1.3c0.8,0.4,1.9,0.8,3.3,0.8c2.3,0,4-1,4.2-3.3l0.1-1.1l0,0c-0.8,0.8-2.1,1.6-4,1.6
						c-2.9,0-4.8-2.1-4.4-4.6c0.4-3.2,3.1-5,6-5c2.1,0,3.1,0.8,3.5,1.6l0,0L535,392.3z M533.9,397.7l0.2-1.7c0-0.4,0.1-0.6,0-0.8
						c-0.2-1-1.3-1.8-2.8-1.8c-2.1,0-3.6,1.4-4,3.5c-0.2,1.8,0.8,3.4,3.1,3.3c1.3,0,2.7-0.6,3.2-1.8
						C533.9,398.3,533.9,398,533.9,397.7"/>
				</g>
				<g>
					<polygon fill="#FFFFFF" points="524.1,388.5 523.9,389.9 517.1,390.1 516.6,394.1 523,394.1 522.8,395.6 516.5,395.5 
						515.9,400.3 523,400.3 522.8,401.7 513.6,401.8 515.1,388.7 					"/>
				</g>
			</g>
		</g>
		<g>
			<g>
				<g>
					<polygon fill="#FFFFFF" points="343.3,472 343.1,473.9 335,473.9 334.4,479.2 341.9,479.1 341.6,480.9 334.2,480.9 
						333.4,486.9 341.9,486.9 341.6,488.6 330.8,488.7 332.7,472 					"/>
				</g>
				<g>
					<path fill="#FFFFFF" d="M353.2,476.4c1.9,0,4.9,1.1,4.4,5l-0.8,7.1h-2.5l0.8-6.9c0.2-1.9-0.4-3.5-2.9-3.5
						c-1.7,0-3.1,1.1-3.6,2.3c-0.2,0.2-0.4,0.6-0.4,1l-0.8,7.1h-2.5l1.1-8.8c0.1-1.2,0.2-2.3,0.2-3.2h2.3l-0.1,1.9h0.1
						C349.2,477.6,350.9,476.4,353.2,476.4z"/>
				</g>
				<g>
					<path fill="#FFFFFF" d="M365.8,473.3l-0.4,3.4h3.6l-0.2,1.6h-3.6l-0.8,6.4c-0.1,1.5,0.2,2.3,1.6,2.3c0.6,0,1.2-0.1,1.5-0.2
						l-0.1,1.6c-0.6,0.1-1.3,0.4-2.3,0.4c-1.2,0-2.1-0.4-2.7-1s-0.8-1.7-0.6-3.1l0.8-6.5h-2.1l0.2-1.6h2.1l0.4-2.9L365.8,473.3z"/>
				</g>
				<g>
					<path fill="#FFFFFF" d="M378,476.4c0.4,0,0.4,0,0.8,0.1l-0.2,2.1c-0.2-0.1-0.6-0.1-0.8-0.1c-1.8,0-3.2,1.2-3.7,2.8
						c-0.1,0.4-0.2,0.6-0.4,1l-0.8,6.3h-2.5l1-8.2c0.1-1.4,0.4-2.5,0.4-3.7h2.3l-0.2,2.3h0.1C374.7,477.4,376.3,476.4,378,476.4z"/>
				</g>
				<g>
					<path fill="#FFFFFF" d="M389.9,485.6c-0.1,1.1-0.2,2.1-0.2,2.9h-2.3l-0.1-1.5h-0.1c-1,0.8-2.5,1.7-4.5,1.7
						c-2.8,0-4-1.7-3.8-3.4c0.4-2.9,3.5-4.5,8.8-4.5h0.1v-0.2c0.2-1,0.1-2.8-2.8-2.8c-1.3,0-2.7,0.4-3.7,0.8l-0.4-1.5
						c1.3-0.6,3-1.1,4.7-1.1c4.2,0,5,2.5,4.8,4.9L389.9,485.6z M387.7,484.6l0.2-2.1c-0.1,0-0.4,0-0.4,0c-2.7,0-5.6,0.6-5.9,2.7
						c-0.1,1.4,0.8,2.1,2.1,2.1c1.8,0,3.1-1.1,3.6-2.1C387.6,485,387.7,484.8,387.7,484.6"/>
				</g>
				<g>
					<path fill="#FFFFFF" d="M402.2,476.4c1.9,0,4.8,1.1,4.4,5l-0.8,7.1h-2.5l0.8-6.9c0.2-1.9-0.4-3.5-2.9-3.5
						c-1.7,0-3.1,1.1-3.6,2.3c-0.2,0.2-0.4,0.6-0.4,1l-0.8,7.1h-2.5l1.1-8.8c0.1-1.2,0.2-2.3,0.2-3.2h2.3l-0.1,1.9h0.1
						C398.1,477.5,399.9,476.4,402.2,476.4z"/>
				</g>
				<g>
					<path fill="#FFFFFF" d="M434.8,481.9c-0.1,0.4-0.2,0.8-0.2,1h-9.8c-0.4,2.9,1.7,4.2,4.2,4.2c1.8,0,3-0.4,4-0.6l0.4,1.6
						c-1,0.4-2.5,0.8-4.8,0.8c-4.2,0-6.5-2.5-6.1-6c0.4-3.5,3.3-6.4,7.4-6.4C434.3,476.4,435.1,479.6,434.8,481.9z M425,481.4h7.4
						c0.2-1.4-0.2-3.5-3.1-3.4C426.8,477.8,425.4,479.8,425,481.4"/>
				</g>
				<g>
					<path fill="#FFFFFF" d="M417.7,476.4c1.5,0,2.8,0.4,3.4,0.6l-0.8,1.6c-0.6-0.4-1.5-0.6-2.9-0.6c-3.2,0-5.2,2.1-5.6,4.5
						c-0.4,2.8,1.5,4.4,4.2,4.5c1.4,0,2.5-0.4,3.2-0.6l0.2,1.6c-0.8,0.2-2.3,0.6-4.2,0.6c-4.2,0-6.6-2.5-6.2-6.1
						C410,479,413.1,476.4,417.7,476.4z"/>
				</g>
			</g>
		</g>
		<g>
			<g>
				<g>
					<polygon fill="#FFFFFF" points="346.1,351.3 345.9,353 338.3,353 337.6,358.2 344.7,358.2 344.4,359.9 337.3,359.9 
						336.6,367.2 334.1,367.2 336.1,351.3 					"/>
				</g>
				<g>
					<path fill="#FFFFFF" d="M363.4,355.4c3.8,0,6.1,2.3,5.7,5.9c-0.6,4.2-4.2,6.1-7.4,6.1c-3.6,0-6.1-2.3-5.7-5.9
						C356.6,357.6,359.7,355.4,363.4,355.4z M362.2,365.8c2.3,0,4.2-1.8,4.6-4.4c0.2-1.9-0.6-4.4-3.4-4.4c-2.9,0-4.4,2.3-4.7,4.4
						C358.4,363.9,359.7,365.8,362.2,365.8"/>
				</g>
				<g>
					<path fill="#FFFFFF" d="M354.7,355.3c0.4,0,0.4,0,0.6,0.1l-0.2,1.9c-0.2-0.1-0.6-0.1-0.8-0.1c-1.7,0-3,1.2-3.6,2.7
						c-0.1,0.4-0.2,0.6-0.4,1l-0.8,6.1h-2.3l1-7.9c0.1-1.4,0.4-2.5,0.4-3.5h2.1l-0.2,2.3h0.1C351.5,356.4,353,355.4,354.7,355.3z"/>
				</g>
				<g>
					<path fill="#FFFFFF" d="M379.5,355.4c1.8,0,4.6,1,4.2,4.9l-0.8,6.9h-2.5l0.8-6.6c0.2-1.8-0.4-3.4-2.7-3.4c-1.6,0-3,1.1-3.5,2.1
						c-0.1,0.2-0.4,0.6-0.4,1l-0.8,6.9h-2.5l1.1-8.4c0.1-1.2,0.2-2.1,0.2-3.1h2.1l-0.1,1.9h0.1C375.7,356.4,377.4,355.4,379.5,355.4
						z"/>
				</g>
				<g>
					<path fill="#FFFFFF" d="M391.4,352.3l-0.4,3.3h3.4l-0.2,1.6h-3.4l-0.8,6.1c-0.1,1.4,0.2,2.3,1.5,2.3c0.6,0,1.1-0.1,1.4-0.2v1.6
						c-0.6,0.1-1.3,0.4-2.3,0.4c-1.1,0-1.9-0.4-2.5-0.8c-0.6-0.6-0.8-1.7-0.6-3l0.8-6.2h-2.1l0.2-1.6h2.1l0.4-2.7L391.4,352.3z"/>
				</g>
				<g>
					<polygon fill="#FFFFFF" points="417.4,351.1 415.5,367 413.1,366.9 414,359.5 405,359.6 404.2,367 401.7,367 403.7,351.1 
						406.1,351.1 405.2,357.7 414.2,357.7 415,350.9 					"/>
				</g>
				<g>
					<path fill="#FFFFFF" d="M429.3,364.2c-0.2,1-0.2,1.9-0.1,2.8h-2.3v-1.5h-0.1c-0.8,0.8-2.3,1.7-4.2,1.7c-2.7,0-3.8-1.6-3.7-3.3
						c0.4-2.7,3.3-4.2,8.4-4.2h0.1v-0.2c0.2-1,0-2.7-2.7-2.7c-1.3,0-2.5,0.4-3.6,0.8l-0.4-1.4c1.2-0.6,2.9-1,4.5-1
						c4,0,4.7,2.5,4.5,4.7L429.3,364.2z M427,363l0.2-1.9c-0.1,0-0.4,0-0.4,0c-2.5,0-5.2,0.6-5.6,2.5c-0.1,1.4,0.8,2.1,2.1,2.1
						c1.7,0,3-1,3.4-1.9C426.9,363.4,427,363.2,427,363"/>
				</g>
				<g>
					<polygon fill="#FFFFFF" points="437.2,350.1 435.2,366.9 432.8,366.9 434.8,350.1 					"/>
				</g>
				<g>
					<polygon fill="#FFFFFF" points="443.7,350.1 441.6,366.9 439.3,366.9 441.3,350.1 					"/>
				</g>
			</g>
		</g>
		<g>
			<g>
				<g>
					<path fill="#FFFFFF" d="M406.5,250.9c1.2,0,1.9,0.2,2.5,0.6l-0.5,0.9c-0.4-0.2-1.1-0.4-2.1-0.4c-1.5,0-2.3,0.8-2.3,1.4
						c-0.1,0.8,0.6,1.4,2.1,1.8c1.8,0.6,2.8,1.5,2.5,2.9c-0.1,1.5-1.7,2.8-4.4,2.8c-1.1,0-2.3-0.4-2.8-0.6l0.6-1
						c0.6,0.4,1.5,0.6,2.5,0.6c1.5,0,2.5-0.6,2.5-1.6c0.1-0.8-0.4-1.4-1.9-1.9c-1.7-0.6-2.9-1.4-2.7-2.8
						C402.8,252.1,404.4,250.9,406.5,250.9z"/>
				</g>
				<g>
					<path fill="#FFFFFF" d="M424.7,258.9c-0.1,0.6-0.1,1.2,0,1.6h-1.4v-0.8l0,0c-0.6,0.6-1.4,1.1-2.7,1c-1.6,0-2.5-1-2.3-2.1
						c0.2-1.6,2.1-2.5,5.2-2.5c0,0,0,0,0.1,0V256c0.1-0.6,0-1.6-1.7-1.6c-0.8,0-1.6,0.2-2.3,0.6l-0.2-0.8c0.8-0.4,1.7-0.6,2.8-0.6
						c2.5,0,2.9,1.5,2.7,2.9L424.7,258.9z M423.3,258.3l0.1-1.2c-0.1,0-0.2,0-0.2,0c-1.5,0-3.2,0.4-3.3,1.6
						c-0.1,0.8,0.6,1.2,1.3,1.2c1.1,0,1.8-0.6,2.1-1.2C423.3,258.5,423.3,258.4,423.3,258.3"/>
				</g>
				<g>
					<path fill="#FFFFFF" d="M417.4,256.8c0,0.2-0.1,0.4-0.1,0.6h-5.7c-0.1,1.7,1,2.5,2.5,2.5c1.1,0,1.7-0.2,2.3-0.4l0.1,0.8
						c-0.6,0.2-1.5,0.4-2.8,0.4c-2.5,0-3.8-1.4-3.6-3.4c0.2-2.1,1.9-3.7,4.2-3.7C417.1,253.6,417.5,255.5,417.4,256.8z M411.6,256.5
						h4.2c0.1-0.8-0.1-2.1-1.8-2.1C412.6,254.5,411.9,255.7,411.6,256.5"/>
				</g>
				<g>
					<path fill="#FFFFFF" d="M394.5,269.3c0.8,0.8,1.4,1.8,1.2,3.4c-0.2,1.5-1,2.9-2.1,3.7c-1.2,1-2.9,1.4-5.2,1.4
						c-1.1,0-1.9,0-2.7-0.1l1.1-9.4c1-0.1,2.1-0.2,3.1-0.2C392.2,268,393.6,268.4,394.5,269.3z M388.7,276.7c3.1,0,5-1.5,5.4-4
						c0.4-2.3-1.1-3.7-4.2-3.7c-0.8,0-1.4,0.1-1.7,0.1l-0.8,7.6C387.7,276.9,388.2,276.7,388.7,276.7"/>
				</g>
				<g>
					<path fill="#FFFFFF" d="M401.3,270.7c0.2,0,0.4,0,0.4,0.1l-0.1,1.2c-0.1,0-0.4-0.1-0.6-0.1c-1.1,0-1.9,0.6-2.1,1.6
						c-0.1,0.2-0.1,0.4-0.2,0.6l-0.4,3.6h-1.5l0.6-4.7c0.1-0.8,0.1-1.5,0.2-2.1h1.3l-0.1,1.4h0.1
						C399.5,271.3,400.3,270.7,401.3,270.7z"/>
				</g>
				<g>
					<path fill="#FFFFFF" d="M417.1,270.7h1.3c-0.1,0.6-0.1,1.1-0.4,1.8l-0.6,4c-0.2,1.6-0.8,2.5-1.5,3.2c-0.8,0.6-2.1,0.8-3.1,0.8
						c-1,0-2.1-0.2-2.5-0.6l0.6-1c0.6,0.4,1.3,0.6,2.3,0.6c1.5,0,2.8-0.6,2.9-2.3l0.1-0.8l0,0c-0.6,0.6-1.4,1.2-2.7,1.1
						c-2.1,0-3.3-1.4-3.1-3.3c0.4-2.3,2.3-3.6,4-3.6c1.4,0,2.1,0.6,2.5,1.2l0,0L417.1,270.7z M416.3,274.8l0.1-1.2
						c0-0.2,0-0.4,0-0.6c-0.1-0.8-0.8-1.4-1.9-1.3c-1.4,0-2.5,1-2.8,2.5c-0.1,1.4,0.6,2.5,2.1,2.5c0.8,0,1.8-0.6,2.1-1.3
						C416.2,275.2,416.3,275,416.3,274.8"/>
				</g>
				<g>
					<path fill="#FFFFFF" d="M408.3,276c-0.1,0.6-0.1,1.2,0,1.6h-1.4v-0.8l0,0c-0.6,0.6-1.4,1.1-2.7,1c-1.6,0-2.5-1-2.3-2.1
						c0.2-1.6,2.1-2.5,5.2-2.5c0,0,0,0,0.1,0v-0.1c0.1-0.6,0-1.6-1.7-1.6c-0.8,0-1.6,0.2-2.3,0.6l-0.2-0.8c0.8-0.4,1.7-0.6,2.8-0.6
						c2.5,0,3,1.5,2.7,2.9L408.3,276z M407.1,275.4l0.1-1.2c-0.1,0-0.2,0-0.2,0c-1.5,0-3.2,0.4-3.3,1.6c-0.1,0.8,0.6,1.2,1.3,1.2
						c1.1,0,1.8-0.6,2.1-1.2C406.9,275.7,406.9,275.5,407.1,275.4"/>
				</g>
				<g>
					<path fill="#FFFFFF" d="M424.2,270.6c2.3,0,3.7,1.4,3.5,3.5c-0.4,2.5-2.5,3.6-4.5,3.6c-2.3,0-3.7-1.4-3.5-3.5
						C420,271.9,422,270.6,424.2,270.6z M423.4,276.7c1.4,0,2.5-1.1,2.8-2.7c0.1-1.2-0.4-2.7-2.1-2.7s-2.7,1.3-2.9,2.7
						C421.1,275.7,422,276.9,423.4,276.7"/>
				</g>
				<g>
					<path fill="#FFFFFF" d="M434.1,270.6c1.1,0,2.8,0.6,2.5,3l-0.6,4h-1.4l0.4-4c0.1-1.1-0.2-2.1-1.6-2.1c-1,0-1.8,0.6-2.1,1.3
						c-0.1,0.1-0.2,0.4-0.2,0.6l-0.6,4H429l0.6-5c0.1-0.8,0.1-1.3,0.1-1.8h1.3v1.2l0,0C431.7,271.2,432.7,270.6,434.1,270.6z"/>
				</g>
				<g>
					<path fill="#FFFFFF" d="M441.8,270.6c0.8,0,1.5,0.2,1.9,0.4l-0.6,0.8c-0.4-0.2-0.8-0.4-1.6-0.4c-0.8,0-1.4,0.4-1.5,1
						c-0.1,0.6,0.4,0.8,1.5,1.2c1.3,0.4,2.1,1.1,1.9,2.1c-0.1,1.2-1.4,2.1-3.3,2.1c-0.8,0-1.7-0.2-2.3-0.4l0.6-1
						c0.4,0.2,1.1,0.4,1.8,0.6c1.1,0,1.6-0.4,1.6-1.1c0.1-0.6-0.2-1-1.4-1.2c-1.4-0.4-2.1-1.1-1.9-1.9
						C438.9,271.4,440.1,270.6,441.8,270.6z"/>
				</g>
			</g>
		</g>
		<g>
			<g>
				<g>
					<path fill="#FFFFFF" d="M400.4,196.7c-0.1,0.4-0.2,0.8-0.2,1h-8.4c-0.4,2.7,1.5,3.7,3.6,3.7c1.6,0,2.5-0.2,3.4-0.6l0.2,1.4
						c-0.8,0.4-2.3,0.6-4.2,0.6c-3.7,0-5.7-2.3-5.2-5.4c0.4-3.2,2.9-6,6.4-5.9C399.9,191.5,400.6,194.7,400.4,196.7z M391.8,196.2
						h6.4c0.1-1.3-0.2-3.2-2.7-3.3C393.5,193,392.2,194.8,391.8,196.2"/>
				</g>
				<g>
					<path fill="#FFFFFF" d="M386.6,198.6c0.4,2.1,0.6,3.6,0.8,4.2h-2.3c-0.2-0.4-0.4-1.8-0.8-3.7c-0.2-2.1-1.1-3-3.1-2.9h-2.1
						l-0.8,6.7h-2.1l1.8-15.1c1.2-0.2,2.7-0.4,4.2-0.4c2.3,0,3.7,0.4,4.7,1.3c0.8,0.8,1.2,1.7,1.1,3c-0.2,2.1-1.8,3.4-3.6,4v0.1
						C385.8,195.9,386.5,197.1,386.6,198.6z M381.8,194.7c2.3,0,3.8-1.2,4.2-2.9c0.2-1.9-1.2-2.8-3.4-2.8c-1.1,0-1.8,0.1-2.1,0.2
						l-0.6,5.6L381.8,194.7"/>
				</g>
				<g>
					<path fill="#FFFFFF" d="M411.1,200.2c-0.2,1-0.2,1.9-0.1,2.7h-2.1v-1.4h-0.1c-0.8,0.8-2.1,1.6-3.8,1.6c-2.5,0-3.5-1.5-3.3-3.1
						c0.4-2.7,3.1-4.2,7.6-4.2h0.1v-0.2c0.1-0.8,0.1-2.5-2.3-2.5c-1.1,0-2.3,0.4-3.3,0.8l-0.4-1.3c1.1-0.6,2.5-1,4.2-1
						c3.6,0,4.2,2.3,4,4.5L411.1,200.2z M409.2,199l0.2-1.9c-0.1,0-0.2,0-0.4,0c-2.3,0-4.8,0.4-5,2.5c-0.1,1.3,0.8,1.9,1.8,1.9
						c1.6,0,2.7-0.8,3.1-1.9C409,199.5,409.1,199.3,409.2,199"/>
				</g>
				<g>
					<path fill="#FFFFFF" d="M420.9,191.5c0.2,0,0.4,0,0.6,0.1l-0.2,1.9c-0.2-0.1-0.4-0.1-0.8-0.1c-1.5,0-2.7,1.1-3.3,2.5
						c-0.1,0.4-0.2,0.6-0.2,1l-0.8,5.8h-2.1l0.8-7.6c0.1-1.3,0.4-2.3,0.4-3.4h1.9l-0.2,2.1h0.1C418.2,192.5,419.6,191.5,420.9,191.5
						z"/>
				</g>
				<g>
					<polygon fill="#FFFFFF" points="442.1,187.3 440.3,202.7 438.2,202.7 439,195.6 430.8,195.6 430,202.7 427.8,202.7 
						429.6,187.4 431.9,187.4 431.1,193.8 439.2,193.8 440,187.4 					"/>
				</g>
				<g>
					<path fill="#FFFFFF" d="M452.8,200c-0.2,1-0.2,1.9-0.1,2.7h-2.1v-1.4h-0.1c-0.8,0.8-2.1,1.6-3.8,1.6c-2.5,0-3.5-1.5-3.3-3.1
						c0.4-2.7,3.1-4.2,7.6-4.2h0.1v-0.2c0.1-0.8,0.1-2.5-2.3-2.5c-1.1,0-2.3,0.4-3.3,0.8l-0.4-1.3c1.1-0.6,2.5-1,4.2-1
						c3.6,0,4.2,2.3,4,4.5L452.8,200z M450.7,199l0.2-1.9c-0.1,0-0.2,0-0.4,0c-2.3,0-4.8,0.4-5,2.5c-0.1,1.3,0.8,1.9,1.8,1.9
						c1.6,0,2.7-0.8,3.1-1.9C450.7,199.4,450.9,199.2,450.7,199"/>
				</g>
				<g>
					<polygon fill="#FFFFFF" points="460.2,186.5 458.2,202.6 456,202.7 457.9,186.5 					"/>
				</g>
				<g>
					<polygon fill="#FFFFFF" points="465.9,186.5 464.1,202.6 461.8,202.7 463.8,186.5 					"/>
				</g>
			</g>
		</g>
		<g>
			<g>
				<g>
					<path fill="#FFFFFF" d="M490.2,105.2c0.8,0,1.3,0.2,1.5,0.3l-0.3,0.6c-0.3-0.2-0.8-0.3-1.3-0.2c-1.6,0-2.8,0.8-3,2.2
						c-0.2,1.3,0.7,2.2,2.3,2.2c0.5,0,1.1-0.1,1.5-0.3l0.1,0.6c-0.3,0.1-1,0.3-1.9,0.3c-1.9,0-3.2-1-3-2.7
						C486.4,106.4,488,105.2,490.2,105.2z"/>
				</g>
				<g>
					<path fill="#FFFFFF" d="M496.7,106.8l-0.3,2.8c-0.1,0.4-0.1,0.8-0.1,1h-0.8l0.1-0.6l0,0c-0.3,0.3-0.8,0.8-1.7,0.7
						c-0.8,0-1.6-0.3-1.5-1.7l0.3-2.3h0.8l-0.3,2.1c-0.2,0.8,0.2,1.3,1,1.2c0.6,0,1-0.3,1.3-0.7c0.1-0.1,0.1-0.3,0.2-0.3l0.3-2.4
						L496.7,106.8z"/>
				</g>
				<g>
					<path fill="#FFFFFF" d="M503.3,105.7l-0.1,1.1h1.3l-0.1,0.5h-1.3l-0.3,2c-0.1,0.5,0,0.8,0.5,0.8c0.3,0,0.4,0,0.5,0l-0.1,0.5
						c-0.2,0.1-0.4,0.1-0.8,0.1c-0.4,0-0.8-0.2-1-0.3c-0.3-0.3-0.3-0.6-0.3-1l0.3-2.1h-0.8l0.1-0.5h0.8l0.1-1L503.3,105.7z"/>
				</g>
				<g>
					<path fill="#FFFFFF" d="M499.6,106.8c0.5,0,1,0.1,1.2,0.2l-0.3,0.5c-0.2-0.1-0.5-0.3-1-0.2c-0.5,0-0.8,0.3-1,0.6
						c-0.1,0.3,0.2,0.5,0.8,0.6c0.8,0.3,1.2,0.6,1.2,1.1c-0.1,0.7-0.8,1.2-2,1.1c-0.5,0-1-0.1-1.3-0.3l0.3-0.5
						c0.3,0.2,0.7,0.3,1.1,0.3c0.7,0,1-0.3,1-0.6c0.1-0.3-0.2-0.5-0.8-0.7c-0.8-0.2-1.2-0.6-1.2-1.1
						C497.8,107.3,498.5,106.8,499.6,106.8z"/>
				</g>
				<g>
					<path fill="#FFFFFF" d="M507.6,106.8c1.3,0,2.3,0.8,2,2c-0.2,1.5-1.5,2-2.7,2.1c-1.3,0-2.3-0.8-2-2
						C505.1,107.5,506.2,106.8,507.6,106.8z M507.1,110.2c0.8,0,1.6-0.6,1.6-1.5c0.1-0.7-0.3-1.5-1.3-1.5c-1,0-1.6,0.8-1.7,1.5
						C505.6,109.6,506.2,110.3,507.1,110.2"/>
				</g>
				<g>
					<path fill="#FFFFFF" d="M516.3,106.8c0.7,0,1.5,0.3,1.3,1.7l-0.3,2.3h-0.8l0.3-2.2c0.2-0.8-0.3-1.2-1-1.2c-0.5,0-1,0.3-1.2,0.7
						c-0.1,0.1-0.1,0.3-0.2,0.3l-0.2,2.4h-0.8l0.3-2.3c0.1-0.6-0.3-1.1-1-1c-0.5,0-1,0.4-1.2,0.8c-0.1,0.1-0.1,0.3-0.2,0.3l-0.3,2.3
						h-0.8l0.3-2.8c0.1-0.4,0.1-0.8,0.1-1h0.8l-0.1,0.6l0,0c0.3-0.3,0.8-0.8,1.6-0.7c0.7,0,1.1,0.3,1.3,0.8l0,0
						c0.2-0.2,0.4-0.3,0.6-0.5C515.5,106.8,515.9,106.7,516.3,106.8z"/>
				</g>
				<g>
					<path fill="#FFFFFF" d="M483.8,115l-0.4,3.5c-0.2,1.5-1.1,1.9-2.3,1.9c-0.3,0-0.7-0.1-1-0.1l0.3-0.6c0.2,0.1,0.4,0.1,0.7,0.2
						c0.8,0,1.3-0.3,1.3-1.3l0.4-3.5L483.8,115z"/>
				</g>
				<g>
					<path fill="#FFFFFF" d="M501.2,118.2c0,0.2-0.1,0.3-0.1,0.3h-3.4c-0.1,1,0.6,1.3,1.5,1.3c0.6,0,1-0.1,1.3-0.2l0.1,0.5
						c-0.3,0.1-0.8,0.3-1.7,0.3c-1.5,0-2.4-0.8-2.1-2c0.1-1.2,1.2-2.1,2.5-2.1C501,116.3,501.3,117.5,501.2,118.2z M497.8,118.1h2.5
						c0.1-0.4-0.1-1.2-1.1-1.1C498.4,116.9,498,117.5,497.8,118.1"/>
				</g>
				<g>
					<path fill="#FFFFFF" d="M496.6,116.5l-2,3.8h-0.8l-0.5-1.9c-0.1-0.4-0.3-0.8-0.3-1.3l0,0c-0.2,0.4-0.3,0.8-0.6,1.3l-1,1.9h-0.8
						l-1-3.8h1l0.3,2c0.1,0.4,0.2,0.8,0.3,1.3l0,0c0.2-0.4,0.4-0.8,0.6-1.2l1-2h0.8l0.5,2c0.1,0.5,0.3,0.8,0.3,1.3l0,0
						c0.2-0.4,0.3-0.8,0.5-1.2l1-2L496.6,116.5z"/>
				</g>
				<g>
					<path fill="#FFFFFF" d="M488.8,118.2c0,0.2-0.1,0.3-0.1,0.3h-3.4c-0.1,1,0.6,1.3,1.5,1.3c0.6,0,1-0.1,1.3-0.2l0.1,0.5
						c-0.3,0.1-0.8,0.3-1.6,0.3c-1.5,0-2.4-0.8-2.1-2c0.1-1.2,1.1-2.1,2.5-2.1C488.6,116.4,488.9,117.5,488.8,118.2z M485.4,118.1
						h2.5c0.1-0.4-0.1-1.2-1.1-1.1C486,116.9,485.6,117.6,485.4,118.1"/>
				</g>
				<g>
					<polygon fill="#FFFFFF" points="503.6,114.6 503,120.3 502.1,120.4 502.8,114.6 					"/>
				</g>
				<g>
					<polygon fill="#FFFFFF" points="506,114.6 505.3,120.3 504.5,120.3 505.1,114.8 					"/>
				</g>
				<g>
					<path fill="#FFFFFF" d="M510.9,118.2c0,0.2-0.1,0.3-0.1,0.3h-3.4c-0.1,1,0.6,1.3,1.5,1.3c0.6,0,1-0.1,1.3-0.2l0.1,0.5
						c-0.3,0.1-0.8,0.3-1.6,0.3c-1.5,0-2.4-0.8-2.1-2c0.1-1.2,1.1-2.1,2.5-2.1C510.8,116.3,511.1,117.5,510.9,118.2z M507.6,118.1
						h2.5c0.1-0.4-0.1-1.2-1.1-1.1C508.2,116.9,507.7,117.5,507.6,118.1"/>
				</g>
				<g>
					<path fill="#FFFFFF" d="M514.4,116.4c0.1,0,0.2,0,0.3,0l-0.1,0.7c-0.1,0-0.2,0-0.3,0c-0.6,0-1.1,0.4-1.3,1
						c0,0.1-0.1,0.2-0.1,0.3l-0.3,2h-0.8l0.3-2.6c0.1-0.4,0.1-0.8,0.1-1.2h0.8l-0.1,0.8h0.1C513.4,116.7,513.9,116.3,514.4,116.4z"
						/>
				</g>
				<g>
					<path fill="#FFFFFF" d="M519.5,116.4l-1.6,2.8c-0.8,1.3-1.3,2-2,2.4c-0.5,0.3-1,0.4-1.2,0.5l-0.1-0.6c0.3,0,0.5-0.2,0.8-0.4
						c0.3-0.2,0.6-0.4,0.8-0.8c0.1-0.1,0.1-0.1,0.1-0.2c0,0,0-0.1,0-0.2l-1.3-3.5h1l0.8,2.3c0.1,0.3,0.2,0.6,0.2,0.8l0,0
						c0.2-0.3,0.3-0.5,0.4-0.8l1.3-2.3L519.5,116.4z"/>
				</g>
			</g>
		</g>
		<g>
			<g>
				<g>
					<path fill="#FFFFFF" d="M276.3,178.3c0,0.2-0.1,0.4-0.1,0.6h-5.6c-0.1,1.7,1,2.5,2.5,2.5c1.1,0,1.7-0.2,2.3-0.4l0.1,0.8
						c-0.6,0.2-1.5,0.4-2.7,0.4c-2.5,0-3.7-1.4-3.5-3.4c0.2-2,1.8-3.7,4.2-3.7C276,175.1,276.5,177,276.3,178.3z M270.7,178h4.2
						c0.1-0.8-0.1-2.1-1.8-2.1C271.7,176.1,271,177.2,270.7,178"/>
				</g>
				<g>
					<polygon fill="#FFFFFF" points="269.4,172.7 269.3,173.7 265.8,173.7 264.8,182.2 263.4,182.2 264.5,173.7 261,173.7 
						261.2,172.7 					"/>
				</g>
				<g>
					<path fill="#FFFFFF" d="M287.3,175.1c1.1,0,2.5,0.6,2.3,3l-0.6,4h-1.4l0.4-3.8c0.1-1.3-0.4-2.1-1.5-2.1c-0.8,0-1.6,0.6-1.8,1.2
						c-0.1,0.2-0.2,0.4-0.2,0.6l-0.6,4.2h-1.4l0.6-4c0.1-1.1-0.4-1.9-1.4-1.8c-1,0-1.7,0.6-1.9,1.3c-0.1,0.2-0.2,0.4-0.2,0.6l-0.6,4
						h-1.4l0.6-5c0.1-0.8,0.1-1.3,0.1-1.8h1.4v1.1l0,0c0.6-0.6,1.3-1.3,2.7-1.3c1.1,0,1.8,0.6,2.1,1.4l0,0c0.4-0.4,0.6-0.6,1.1-1
						C285.9,175.2,286.5,175.1,287.3,175.1z"/>
				</g>
				<g>
					<path fill="#FFFFFF" d="M296.4,175.1c1.9,0,3.2,1.4,3,3.5c-0.4,2.5-2.1,3.6-4,3.6c-1.1,0-1.9-0.4-2.3-1.1l-0.4,3.7h-1.4
						l0.8-7.5c0.1-0.8,0.1-1.6,0.2-2.3h1.3v1.2l0,0C294.1,175.6,295.1,175.1,296.4,175.1z M295.1,181.4c1.5,0,2.5-1.1,2.8-2.7
						c0.1-1.4-0.6-2.5-2.1-2.5c-1,0-2.1,0.6-2.3,1.5c-0.1,0.1-0.1,0.4-0.2,0.6l-0.1,1.2c0,0.2,0,0.4,0,0.6
						C293.4,180.8,294.2,181.4,295.1,181.4"/>
				</g>
				<g>
					<polygon fill="#FFFFFF" points="259.4,189.6 259.3,190.8 254.6,190.6 254.3,193.7 258.7,193.7 258.6,194.8 254.3,194.8 
						253.8,198.2 258.6,198.2 258.5,199.3 252.3,199.3 253.3,189.6 					"/>
				</g>
				<g>
					<path fill="#FFFFFF" d="M267.3,192.3l-3.1,3.3l2.3,3.5h-1.6l-1-1.6c-0.2-0.4-0.4-0.8-0.8-1.2l0,0c-0.4,0.4-0.6,0.8-1,1.3
						l-1.3,1.6h-1.6l3.2-3.5l-2.3-3.4h1.6l1,1.5c0.2,0.4,0.4,0.8,0.8,1.2l0,0c0.4-0.4,0.6-0.8,0.8-1.1l1.3-1.5L267.3,192.3z"/>
				</g>
				<g>
					<path fill="#FFFFFF" d="M270.6,189.1l-0.6,4.2c0.4-0.4,0.8-0.6,1.2-1c0.4-0.2,1-0.4,1.6-0.4c1.1,0,2.7,0.6,2.5,3l-0.6,4h-1.5
						l0.4-4c0.1-1.1-0.2-2.1-1.6-2.1c-1,0-1.8,0.6-2.1,1.3c-0.1,0.2-0.1,0.4-0.2,0.6l-0.6,4h-1.5l1.2-10.2L270.6,189.1z"/>
				</g>
				<g>
					<polygon fill="#FFFFFF" points="277.1,199.2 277.9,192.3 279.4,192.3 278.6,199.2 					"/>
				</g>
				<g>
					<path fill="#FFFFFF" d="M278.8,191.2c-0.6,0-0.8-0.4-0.8-0.8c0.1-0.4,0.6-0.8,1.1-0.8c0.6,0,0.8,0.4,0.8,0.8
						C279.8,190.8,279.4,191.2,278.8,191.2z"/>
				</g>
				<g>
					<path fill="#FFFFFF" d="M285.9,192.1c2.1,0,3.2,1.4,3,3.5c-0.4,2.5-2.3,3.6-4,3.6c-1.2,0-2.1-0.4-2.5-1.3l0,0l-0.1,1.1H281
						c0.1-0.4,0.2-1.2,0.4-1.7l1.1-8.3h1.4l-0.6,4.2C283.7,192.7,284.8,192.1,285.9,192.1z M284.8,198.3c1.5,0,2.5-1.1,2.8-2.5
						c0.1-1.4-0.6-2.5-2.1-2.5c-1,0-2.1,0.6-2.3,1.5c0,0.1-0.1,0.4-0.2,0.6l-0.1,1.2c0,0.1,0,0.4,0,0.4
						C282.9,197.7,283.7,198.3,284.8,198.3"/>
				</g>
				<g>
					<polygon fill="#FFFFFF" points="290.3,199 291.2,192.3 292.6,192.3 291.7,199.2 					"/>
				</g>
				<g>
					<path fill="#FFFFFF" d="M303,192.1c0.8,0,1.5,0.2,1.9,0.4l-0.6,0.8c-0.4-0.2-0.8-0.4-1.6-0.4c-0.8,0-1.4,0.4-1.5,1
						c-0.1,0.6,0.4,0.8,1.4,1.2c1.3,0.4,2.1,1.1,1.8,2.1c-0.1,1.2-1.3,2.1-3.2,2.1c-0.8,0-1.6-0.2-2.1-0.4l0.6-1
						c0.4,0.2,1.1,0.4,1.8,0.6c1.1,0,1.6-0.4,1.6-1.1c0.1-0.6-0.2-1-1.4-1.2c-1.4-0.4-2.1-1.1-1.9-1.9
						C299.9,193,301.3,192.1,303,192.1z"/>
				</g>
				<g>
					<path fill="#FFFFFF" d="M297,190.3l-0.2,1.9h2.1l-0.2,1h-2.1l-0.4,3.6c-0.1,0.8,0.1,1.4,1,1.4c0.4,0,0.6,0,0.8,0l-0.1,1
						c-0.4,0.1-0.8,0.1-1.3,0.2c-0.6,0-1.2-0.1-1.5-0.6c-0.4-0.4-0.4-1-0.4-1.8l0.4-3.7h-1.3l0.2-1h1.3l0.2-1.6L297,190.3z"/>
				</g>
				<g>
					<path fill="#FFFFFF" d="M291.9,191c-0.6,0-0.8-0.4-0.8-0.8c0.1-0.4,0.6-0.8,1.1-0.8c0.6,0,0.8,0.4,0.8,0.8
						C293,190.8,292.6,191.2,291.9,191z"/>
				</g>
			</g>
		</g>
		<g>
			<g>
				<g>
					<path fill="#FFFFFF" d="M249.3,287.6c1.6,0,2.7,0.4,3.2,0.6l-0.6,1.4c-0.4-0.2-1.4-0.6-2.8-0.8c-2.1,0-3,1.2-3.1,2.1
						c-0.1,1.3,0.6,1.9,2.7,2.7c2.5,1,3.6,2.1,3.4,4c-0.2,2.1-2.3,4-5.8,4c-1.5,0-3-0.4-3.7-0.8l0.6-1.5c0.8,0.6,2.1,0.8,3.4,0.8
						c2.1,0,3.3-1,3.5-2.3c0.1-1.3-0.6-2.1-2.5-2.8c-2.3-0.8-3.7-1.9-3.5-3.8C244.3,289.2,246.3,287.6,249.3,287.6z"/>
				</g>
				<g>
					<path fill="#FFFFFF" d="M257.9,286.9l-0.8,6.1l0,0c0.4-0.6,1-0.8,1.5-1.3c0.6-0.4,1.4-0.6,2.1-0.6c1.5,0,3.6,0.8,3.3,4.2
						l-0.8,5.9h-1.9l0.6-5.7c0.2-1.6-0.4-3-2.3-3c-1.3,0-2.5,0.8-2.9,1.8c-0.1,0.2-0.2,0.6-0.4,0.8l-0.8,6h-2.1l1.8-14.6
						L257.9,286.9z"/>
				</g>
				<g>
					<path fill="#FFFFFF" d="M286.1,291.3c2.7,0,4.4,2.1,4,5c-0.4,3.5-3,5.4-5.6,5.4c-1.4,0-2.5-0.6-3.2-1.5l0,0l-0.6,5.4h-1.9
						l1.4-10.8c0.1-1.3,0.2-2.3,0.2-3.2h1.8l-0.1,1.7l0,0C283,292.1,284.2,291.4,286.1,291.3z M284.4,300.3c2.1,0,3.5-1.6,3.7-3.8
						c0.2-1.9-0.8-3.7-2.8-3.7c-1.4,0-2.8,0.8-3.3,2.3c-0.1,0.2-0.2,0.6-0.4,0.8l-0.2,1.7c0,0.2,0,0.6,0,0.8
						C281.8,299.4,283,300.3,284.4,300.3"/>
				</g>
				<g>
					<path fill="#FFFFFF" d="M272.6,291.4c3.1,0,5,2.1,4.7,5.2c-0.4,3.6-3.4,5.4-6,5.2c-3,0.1-5-1.9-4.7-5.2
						C266.9,293.4,269.6,291.3,272.6,291.4z M271.4,300.4c1.9,0,3.5-1.6,3.7-3.8c0.2-1.7-0.4-3.8-2.8-3.8s-3.6,2.1-3.8,3.8
						C268.3,298.8,269.5,300.4,271.4,300.4"/>
				</g>
			</g>
		</g>
		<g>
			<g>
				<g>
					<path fill="#FFFFFF" d="M242.4,358.6c1,0.2,2.1,0.8,1.9,2.1c-0.1,0.8-0.6,1.3-1.1,1.8c-0.8,0.6-2.1,0.8-3.8,0.8
						c-1,0-1.7,0-2.1-0.1l1.1-8.6c0.6-0.1,1.6-0.2,2.5-0.1c1.4,0,2.3,0.2,2.8,0.6c0.6,0.4,0.8,0.8,0.8,1.6
						C244.3,357.5,243.5,358.3,242.4,358.6L242.4,358.6z M239.9,362.5c1.4,0,2.8-0.4,2.9-1.7c0.1-1.2-1.1-1.6-2.5-1.7h-1.2l-0.4,3.3
						C238.9,362.5,239.3,362.6,239.9,362.5 M239.5,355.5l-0.4,2.8h1.3c1.5,0,2.5-0.6,2.5-1.5c0.2-1-0.8-1.5-2.1-1.4
						C240.2,355.3,239.8,355.3,239.5,355.5"/>
				</g>
				<g>
					<path fill="#FFFFFF" d="M249.8,356.9c0.2,0,0.2,0,0.4,0.1l-0.1,1.1c-0.1,0-0.4,0-0.4-0.1c-1,0-1.8,0.6-2.1,1.5
						c-0.1,0.1-0.1,0.4-0.1,0.6l-0.4,3.3h-1.4l0.6-4.2c0.1-0.8,0.1-1.4,0.2-1.9h1.2l-0.1,1.3h0.1C248.1,357.4,249,356.9,249.8,356.9
						z"/>
				</g>
				<g>
					<polygon fill="#FFFFFF" points="251,363.4 251.8,356.9 253.1,357.1 252.3,363.4 					"/>
				</g>
				<g>
					<path fill="#FFFFFF" d="M257.3,355.1l-0.2,1.8h2.1l-0.1,0.8h-2.1l-0.4,3.4c-0.1,0.8,0.2,1.2,1,1.3c0.4,0,0.6,0,0.8,0l-0.1,0.8
						c-0.4,0.1-0.8,0.1-1.3,0.2c-0.6,0-1.2-0.1-1.4-0.4c-0.4-0.4-0.4-1-0.4-1.6l0.4-3.4h-1.2l0.1-0.8h1.2l0.1-1.5L257.3,355.1z"/>
				</g>
				<g>
					<path fill="#FFFFFF" d="M252.5,355.9c-0.6,0-0.8-0.4-0.8-0.8c0.1-0.4,0.6-0.8,1-0.6c0.6,0,0.8,0.4,0.8,0.8
						C253.5,355.5,253.1,355.9,252.5,355.9z"/>
				</g>
				<g>
					<polygon fill="#FFFFFF" points="259.9,363.2 260.6,357.1 262,357.1 261.3,363.4 					"/>
				</g>
				<g>
					<path fill="#FFFFFF" d="M261.4,355.9c-0.6,0-0.8-0.4-0.8-0.8c0.1-0.4,0.6-0.8,1-0.6c0.6,0,0.8,0.4,0.8,0.8
						C262.3,355.7,261.9,355.9,261.4,355.9z"/>
				</g>
				<g>
					<path fill="#FFFFFF" d="M266.7,356.9c0.8,0,1.4,0.1,1.8,0.4l-0.6,0.8c-0.4-0.2-0.8-0.4-1.5-0.4c-0.8,0-1.4,0.4-1.4,0.8
						c-0.1,0.6,0.4,0.8,1.4,1.1c1.3,0.4,1.9,1,1.8,1.9c-0.1,1.1-1.3,1.9-3.1,1.9c-0.8,0-1.6-0.1-2.1-0.4l0.6-0.8
						c0.4,0.2,1.1,0.4,1.7,0.4c1,0,1.6-0.4,1.6-1c0.1-0.6-0.2-0.8-1.3-1.1c-1.3-0.4-1.9-1.1-1.8-1.8
						C263.9,357.7,265,356.9,266.7,356.9z"/>
				</g>
				<g>
					<path fill="#FFFFFF" d="M272.3,354l-0.4,4c0.4-0.4,0.8-0.6,1.2-0.8c0.4-0.4,1-0.4,1.5-0.4c1.1,0,2.5,0.6,2.3,2.7l-0.4,3.7H275
						l0.4-3.6c0.2-1-0.2-1.9-1.6-1.8c-0.8,0-1.7,0.6-1.9,1.2c-0.1,0.1-0.1,0.4-0.2,0.6l-0.4,3.7h-1.4l1.1-9.3L272.3,354z"/>
				</g>
				<g>
					<path fill="#FFFFFF" d="M255.5,377.4c0.6,0.6,1.1,1,1.6,1.5h-1.6c-0.2-0.2-0.6-0.6-0.8-1c-1.1,0.8-2.1,1-3.3,1.1
						c-2.1,0-3.2-1.1-3-2.3c0.1-1.2,1.1-2.1,2.5-2.5l0,0c-0.4-0.6-0.8-1.3-0.6-1.8c0.1-1.1,1.2-2.3,3-2.3c1.3,0,2.3,0.8,2.1,1.8
						c-0.2,1-0.8,1.6-2.7,2.3l0,0c0.8,0.8,1.7,1.8,2.3,2.5c0.6-0.6,1-1.5,1.4-2.5h1.3C257,375.5,256.4,376.6,255.5,377.4z
						 M251.6,378.3c1,0,1.7-0.4,2.3-0.8c-0.6-0.6-1.6-1.6-2.5-2.8c-0.6,0.4-1.5,0.8-1.6,1.8C249.6,377.4,250.4,378.2,251.6,378.3
						 M252.9,370.9c-0.8,0-1.4,0.6-1.5,1.3c-0.1,0.6,0.2,1.1,0.6,1.6c1.2-0.6,1.9-1,1.9-1.7C254,371.4,253.8,370.7,252.9,370.9"/>
				</g>
				<g>
					<path fill="#FFFFFF" d="M245.2,388.1c2.3,0,3.5,1.3,3.3,3.2c-0.4,2.3-2.3,3.3-4.2,3.3c-2.1,0-3.5-1.2-3.3-3.2
						C241.3,389.5,243.1,388.1,245.2,388.1z M244.5,393.9c1.3,0,2.5-1,2.7-2.5c0.1-1.1-0.4-2.5-1.9-2.5c-1.6,0-2.5,1.2-2.7,2.5
						C242.4,392.8,243.1,393.8,244.5,393.9"/>
				</g>
				<g>
					<path fill="#FFFFFF" d="M237.6,385.7c1.1,0,1.8,0.2,2.3,0.4l-0.6,0.8c-0.4-0.2-1-0.4-1.9-0.4c-1.5,0-2.1,0.8-2.1,1.3
						c-0.1,0.8,0.6,1.3,1.9,1.7c1.7,0.6,2.5,1.3,2.3,2.5c-0.1,1.4-1.5,2.5-4,2.5c-1.1,0-2.1-0.2-2.5-0.6l0.6-1
						c0.6,0.4,1.4,0.6,2.3,0.6c1.4,0,2.3-0.6,2.3-1.5c0-0.8-0.4-1.3-1.8-1.7c-1.6-0.6-2.7-1.3-2.5-2.5
						C234.1,386.8,235.6,385.7,237.6,385.7z"/>
				</g>
				<g>
					<path fill="#FFFFFF" d="M257.1,388.3l-0.6,4.6c-0.1,0.6-0.1,1.2-0.1,1.7h-1.3v-1.1l0,0c-0.4,0.6-1.3,1.2-2.7,1.2
						c-1.2,0-2.5-0.6-2.3-2.8l0.4-3.6h1.4l-0.4,3.4c-0.1,1.2,0.2,2.1,1.5,1.9c1,0,1.7-0.6,1.9-1.1c0.1-0.2,0.2-0.4,0.2-0.6l0.4-3.8
						L257.1,388.3z"/>
				</g>
				<g>
					<path fill="#FFFFFF" d="M261.3,386.4l-0.2,1.8h2.1l-0.1,0.8h-2.1l-0.4,3.4c-0.1,0.8,0.1,1.2,1,1.3c0.4,0,0.6,0,0.8,0l-0.1,0.8
						c-0.4,0.1-0.8,0.1-1.3,0.2c-0.6,0-1.2-0.1-1.4-0.4c-0.4-0.4-0.4-1-0.4-1.6l0.4-3.4h-1.2l0.1-0.8h1.2l0.1-1.5L261.3,386.4z"/>
				</g>
				<g>
					<path fill="#FFFFFF" d="M266.3,385.3l-0.4,4c0.4-0.4,0.8-0.6,1.2-0.8c0.4-0.4,1-0.4,1.5-0.4c1.1,0,2.5,0.6,2.3,2.7l-0.4,3.7
						H269l0.4-3.6c0.2-1-0.2-1.9-1.6-1.8c-0.8,0-1.7,0.6-1.9,1.2c-0.1,0.1-0.1,0.4-0.2,0.6l-0.4,3.7h-1.4l1.1-9.3L266.3,385.3z"/>
				</g>
				<g>
					<path fill="#FFFFFF" d="M254.8,406.6c0,0.2-0.1,0.4-0.1,0.6h-5.3c-0.1,1.5,1,2.3,2.3,2.3c1,0,1.6-0.2,2.1-0.4l0.1,0.8
						c-0.6,0.1-1.4,0.4-2.5,0.4c-2.3,0-3.6-1.3-3.4-3.1c0.2-1.9,1.7-3.4,4-3.4C254.5,403.7,255,405.6,254.8,406.6z M249.5,406.4h4
						c0.1-0.8-0.1-1.8-1.7-1.8C250.5,404.6,249.7,405.6,249.5,406.4"/>
				</g>
				<g>
					<path fill="#FFFFFF" d="M248,401.4l-4,8.8h-1.4l-0.8-4.6c-0.2-1.2-0.4-2.1-0.4-2.9l0,0c-0.4,0.8-0.6,1.7-1.2,2.9l-2.1,4.6h-1.4
						l-1.7-8.8h1.5l0.8,4.5c0.2,1.1,0.4,2.3,0.4,3.1c0.4-0.8,0.8-1.9,1.2-3.1l1.9-4.4h1.4l0.8,4.5c0.2,1.1,0.4,2.1,0.4,3l0,0
						c0.4-1,0.8-1.9,1.2-3.1l1.9-4.4L248,401.4z"/>
				</g>
				<g>
					<path fill="#FFFFFF" d="M265.1,402l-0.2,1.8h2.1l-0.1,0.8h-2.1l-0.4,3.4c-0.1,0.8,0.1,1.2,1,1.3c0.4,0,0.6,0,0.8,0l-0.1,0.8
						c-0.4,0.1-0.8,0.1-1.3,0.2c-0.6,0-1.2-0.1-1.4-0.4c-0.4-0.4-0.4-1-0.4-1.6l0.4-3.4h-1.2l0.1-0.8h1.2l0.1-1.5L265.1,402z"/>
				</g>
				<g>
					<path fill="#FFFFFF" d="M259.3,403.7c0.8,0,1.4,0.1,1.8,0.4l-0.6,0.8c-0.2-0.2-0.8-0.4-1.5-0.4c-0.8,0-1.4,0.4-1.4,0.8
						c-0.1,0.6,0.4,0.8,1.4,1.1c1.3,0.4,1.9,1,1.8,1.9c-0.1,1.1-1.3,1.9-3.1,1.9c-0.8,0-1.6-0.1-2.1-0.4l0.6-0.8
						c0.4,0.2,1.1,0.4,1.7,0.4c1,0,1.6-0.4,1.6-1c0.1-0.6-0.2-0.8-1.3-1.1c-1.3-0.4-1.9-1.1-1.8-1.8
						C256.6,404.5,257.7,403.7,259.3,403.7z"/>
				</g>
				<g>
					<polygon fill="#FFFFFF" points="239.8,425.8 240.4,419.6 241.8,419.4 241.2,425.9 					"/>
				</g>
				<g>
					<path fill="#FFFFFF" d="M239.5,417l-4,8.8H234l-0.8-4.6c-0.2-1.2-0.4-2.1-0.4-2.9l0,0c-0.4,0.8-0.6,1.7-1.2,2.9l-2.1,4.6h-1.4
						l-1.7-8.8h1.5l0.8,4.5c0.2,1.1,0.4,2.3,0.4,3.1c0.4-0.8,0.8-1.9,1.2-3.1l2.1-4.4h1.4l0.8,4.5c0.2,1.1,0.4,2.1,0.4,3
						c0.4-1,0.8-1.9,1.2-3.1l1.9-4.4L239.5,417z"/>
				</g>
				<g>
					<path fill="#FFFFFF" d="M241.3,418.5c-0.6,0-0.8-0.4-0.8-0.8c0.1-0.4,0.6-0.8,1-0.6c0.6,0,0.8,0.4,0.8,0.8
						C242.3,418.3,241.8,418.4,241.3,418.5z"/>
				</g>
				<g>
					<polygon fill="#FFFFFF" points="246,416.6 244.8,425.9 243.4,425.9 244.5,416.6 					"/>
				</g>
				<g>
					<path fill="#FFFFFF" d="M254,424.2c-0.1,0.6-0.1,1.2-0.1,1.6h-1.3v-1.1l0,0c-0.6,0.6-1.5,1.3-2.7,1.2c-1.8,0-3.1-1.3-2.9-3.2
						c0.2-2.1,1.9-3.4,3.8-3.4c1.2,0,1.9,0.4,2.3,1l0,0l0.4-3.7h1.4L254,424.2z M252.6,423.2l0.1-1.1c0-0.1,0-0.4,0-0.4
						c-0.1-0.8-0.8-1.4-1.9-1.3c-1.4,0-2.3,1.1-2.5,2.3c-0.1,1.3,0.4,2.3,1.9,2.3c1,0,1.9-0.6,2.1-1.4
						C252.7,423.5,252.7,423.4,252.6,423.2"/>
				</g>
				<g>
					<polygon fill="#FFFFFF" points="258.6,416.6 257.5,425.8 256.2,425.8 257.2,416.5 					"/>
				</g>
				<g>
					<polygon fill="#FFFFFF" points="259.8,425.8 260.6,419.6 262,419.4 261.2,425.8 					"/>
				</g>
				<g>
					<path fill="#FFFFFF" d="M261.4,418.4c-0.6,0-0.8-0.4-0.8-0.8c0.1-0.4,0.6-0.8,1-0.6c0.6,0,0.8,0.4,0.8,0.8
						C262.3,418.2,261.9,418.4,261.4,418.4z"/>
				</g>
				<g>
					<path fill="#FFFFFF" d="M267.5,416.4c0.6,0,0.8,0.1,1.2,0.1l-0.4,0.8c-0.2-0.1-0.4-0.2-0.8-0.2c-1.2,0-1.6,0.8-1.7,1.8
						l-0.1,0.4h1.8l-0.1,0.8h-1.8l-0.6,5.4h-1.4l0.6-5.4H263l0.1-0.8h1.1V419c0.1-0.8,0.4-1.7,1.2-2.3
						C266.1,416.6,266.8,416.4,267.5,416.4z"/>
				</g>
				<g>
					<path fill="#FFFFFF" d="M274.8,422.3c0,0.2-0.1,0.4-0.1,0.6h-5.4c-0.1,1.5,1,2.3,2.3,2.3c1,0,1.6-0.2,2.1-0.4l0.1,0.8
						c-0.6,0.1-1.4,0.4-2.5,0.4c-2.3,0-3.6-1.3-3.4-3.1c0.2-1.9,1.7-3.4,4-3.4C274.4,419.4,274.8,421.1,274.8,422.3z M269.4,422h4
						c0.1-0.8-0.1-1.8-1.7-1.8C270.2,420.2,269.6,421.2,269.4,422"/>
				</g>
			</g>
		</g>
	</g>
	<g>
		<polygon fill="#405E5E" points="338.5,438.2 337.3,445.9 341.9,445.7 341.9,446.7 336,446.7 337.1,438.2 		"/>
		<polygon fill="#405E5E" points="343.3,446.7 344.2,440.6 345.6,440.5 344.8,446.7 		"/>
		<path fill="#405E5E" d="M351.1,437.6c0.6,0,0.8,0.1,1.2,0.1l-0.4,0.8c-0.2-0.1-0.4-0.2-0.8-0.2c-1.2,0-1.6,0.8-1.7,1.8l-0.1,0.4
			h1.8l-0.1,0.8h-1.8l-0.6,5.2h-1.4l0.6-5.2h-1.1l0.1-0.8h1.1l0.1-0.4c0.2-0.8,0.4-1.6,1.2-2.1C349.8,437.7,350.4,437.6,351.1,437.6
			z"/>
		<path fill="#405E5E" d="M345,439.6c-0.6,0-0.8-0.4-0.8-0.8c0.1-0.4,0.6-0.6,1-0.6c0.6,0,0.8,0.4,0.8,0.8
			C345.9,439.2,345.5,439.4,345,439.6z"/>
		<path fill="#405E5E" d="M354.4,438.8l-0.2,1.7h2.1l-0.1,0.8H354l-0.4,3.3c-0.1,0.8,0.1,1.2,1,1.2c0.4,0,0.6,0,0.8,0l-0.1,0.8
			c-0.4,0.1-0.8,0.1-1.3,0.2c-0.6,0-1.2-0.1-1.4-0.4c-0.4-0.4-0.4-0.8-0.4-1.6l0.4-3.3h-1.2l0.1-0.8h1.2l0.2-1.5L354.4,438.8z"/>
	</g>
</g>
<g id="Layer_6">
</g>
<g id="Layer_2">
</g>
<g>
	<circle fill="#4A8080" cx="477.7" cy="362.3" r="15.4"/>
	<g>
		<path fill="#FFFFFF" d="M481.2,362.7c-1.1,1.3-3.3,3.5-5.1,3.5c-1.4,0-2.1-1.7-2.1-2.9c0-3,3-5.9,4.5-5.9c0.4,0,1.1,0.1,1.1,0.7
			c0,1.2-2.4,3.4-3.5,4.1c-0.2,1,0.1,1.6,1.3,1.6c1.3,0,2.5-1.3,3.5-2L481.2,362.7z M478.8,355.9c0-1,1.2-1.9,2.1-1.9
			c0.4,0,0.8,0.4,0.8,0.8c0,1-0.9,2.2-2,2.2C479.2,357,478.8,356.5,478.8,355.9z"/>
	</g>
</g>
<g>
	<polygon fill="#99C9C9" points="380.9,299 378.9,308.6 434.3,308.6 435.6,298.7 	"/>
	<polygon fill="#99C9C9" points="381.6,291.5 379.6,301.1 435,301.1 436.3,291.2 	"/>
	<polygon fill="#4A8080" points="435.2,298.8 436.1,303.3 434.8,313.1 433.8,308.5 	"/>
	<polygon fill="#4A8080" points="433.8,308.5 434.8,313.1 379.9,313.2 378.9,308.6 	"/>
	<polygon fill="#4A8080" points="435.8,291.2 436.7,295.8 435.5,305.7 434.5,301.1 	"/>
	<polygon fill="#4A8080" points="434.5,301.1 435.5,305.7 380.5,305.7 379.6,301.1 	"/>
	<polygon fill="#4A8080" points="436.5,283.7 437.4,288.2 436.1,298.2 435.2,293.6 	"/>
	<polygon fill="#4A8080" points="435.2,293.6 436.1,298.2 381.3,298.2 380.3,293.6 	"/>
	<polygon fill="#99C9C9" points="382.3,283 380.3,293.6 435.2,293.6 436.6,282.4 	"/>
</g>
<g>
	<path fill="#FFFFFF" d="M339.3,275.1c0.9-0.2,1.8,0.6,1.7,1.6c-0.1,1.2-1.8,1.6-2.5,0.6C337.8,276.5,338.3,275.3,339.3,275.1
		L339.3,275.1z"/>
	<path fill="#FFFFFF" d="M337.4,278.8c0.7-0.6,1.8-0.4,2.6-0.5c0.7-0.1,1.6,0.1,2,0.7c0.5,0.8,0.6,1.8,1,2.8
		c0.2,0.8,0.6,1.6,0.4,2.4c-0.4,0.1-0.8,0.1-1-0.3c-0.4-1.1-0.7-2.3-1.1-3.4c-0.1-0.2-0.2-0.3-0.4-0.4c0.5,2.3,1.3,4.5,1.9,6.7
		c-0.6,0-1.1,0-1.6,0c-0.1,1.6,0,3.2,0,4.8c0,0.4-0.2,0.8-0.6,0.8c-0.4,0-0.7-0.4-0.6-0.7c0-1.6,0-3.2,0-4.8c-0.1,0-0.3,0-0.4,0
		c0,1.6,0,3.3,0,4.9c-0.1,0.8-1.2,0.7-1.3,0c0-1.6,0-3.3,0-4.9c-0.6,0-1.1,0-1.7,0c0.5-2.2,1.1-4.4,1.6-6.6
		c-0.1,0.1-0.2,0.1-0.3,0.1c-0.4,1.2-0.6,2.4-1.1,3.6c-0.1,0.6-1.1,0.5-1.1-0.1c0.1-0.9,0.4-1.8,0.7-2.6
		C336.7,280.4,336.8,279.5,337.4,278.8L337.4,278.8z"/>
</g>
<g>
	<path fill="#FFFFFF" d="M486.7,274.9c1.1-0.4,2.2,0.8,1.7,1.8c-0.3,1-1.8,1.3-2.4,0.4C485.3,276.5,485.8,275.1,486.7,274.9
		L486.7,274.9z"/>
	<path fill="#FFFFFF" d="M484.5,278.2c0.9-0.4,2-0.2,3-0.2c0.8,0,1.8-0.1,2.5,0.5c0.6,0.4,0.6,1.1,0.6,1.8c0,1.3,0,2.8,0,4.1
		c0,0.3-0.1,0.8-0.5,0.8c-0.4,0.1-0.8-0.4-0.7-0.8c0-1.3,0-2.6,0-4c-0.1,0-0.4,0-0.4,0c0,3.8,0,7.6,0,11.4c0.1,0.9-1.5,1.1-1.6,0.2
		c0-2.3,0-4.6,0-6.9c-0.1,0-0.3,0-0.4,0c0,2,0,4,0,5.9c0,0.4,0,0.8-0.2,1.3c-0.5,0.4-1.5,0.2-1.5-0.6c0-3.8,0-7.6,0-11.4
		c-0.1,0-0.3,0-0.4,0c0,1.3,0,2.5,0,3.7c0,0.4-0.2,1.1-0.7,0.9c-0.3,0-0.5-0.4-0.5-0.6c0-1.6,0-3.2,0-4.8
		C483.6,279.1,483.9,278.5,484.5,278.2L484.5,278.2z"/>
</g>
<g>
	<g>
		<path fill="#FFFFFF" d="M482,258.9c0.4-0.7-0.3-1.1-0.3-1.1l-2.4-1.7c-0.2-0.1-1.1-0.7-1.5-0.1c-0.4,0.5-0.3,1,0.1,1.3l1.6,1.1
			c0.1,0,0.1,0.1,0,0.2l-1,1.3c0,0.1-0.1,0.2-0.1,0.2c-0.9,1.8,0.5,2.5,0.9,2.6c0.1,0,0.2,0,0.3,0c0.5,0,2.2,0,3.8,0
			c1.9,0,1.8-1.1,1.8-1.1v-3.4c0,0,0,0,0-0.1s-0.1-0.9-0.9-0.9c-0.6,0-0.7,0.5-0.7,0.7c0,0.1,0,0.2,0,0.3v1.4c0,0.1-0.1,0.1-0.1,0.1
			h-2.2c-0.1,0-0.1,0,0-0.1C481.7,259.3,481.9,259.1,482,258.9z"/>
		<circle fill="#FFFFFF" cx="487.6" cy="261.2" r="1.7"/>
		<path fill="#FFFFFF" d="M489.3,263.9c0-0.4-0.3-0.7-0.7-0.7h-10.3c-0.4,0-0.7,0.3-0.7,0.7c0,0.4,0.3,0.7,0.7,0.7h10.3
			C489,264.7,489.3,264.3,489.3,263.9z"/>
	</g>
	<g>
		<path fill="#FFFFFF" d="M504.2,264.6l-1.4,0.5l-1.7-4.1h-4.3v-0.8h3v-1.3h-3.2l-0.1-2.6c0.7,0,1.3-0.6,1.3-1.4
			c0-0.8-0.6-1.4-1.3-1.4c-0.6,0-1.1,0.5-1.3,1h-0.1v0.2c0,0.1,0,0.1,0,0.2c0,0.1,0,0.2,0,0.3l0.4,6.9l4.7,0.1l1.7,4.4l2.5-0.8
			L504.2,264.6z"/>
		<path fill="#FFFFFF" d="M494.6,264.9c-0.8-0.8-1.2-1.8-1.3-2.9c0-1.1,0.4-2.1,1.1-2.9l-1.2-1.1c-2.2,2.3-2.1,6,0.2,8.1
			c1.1,1.1,2.6,1.6,4,1.6c1.5,0,3-0.6,4.1-1.7l-1.2-1.1C498.8,266.4,496.2,266.4,494.6,264.9z"/>
	</g>
</g>
<g>
	<polygon fill="#99C9C9" points="477.3,154.6 475.3,164.2 530.7,164.1 532,154.2 	"/>
	<polygon fill="#99C9C9" points="478.1,147.1 476,156.7 531.4,156.6 532.7,146.7 	"/>
	<polygon fill="#4A8080" points="531.6,154.3 532.5,158.8 531.3,168.6 530.2,164 	"/>
	<polygon fill="#4A8080" points="530.2,164 531.3,168.6 476.3,168.8 475.3,164.2 	"/>
	<polygon fill="#4A8080" points="532.2,146.7 533.2,152.3 532.9,163.2 530.9,156.6 	"/>
	<polygon fill="#4A8080" points="530.9,156.6 532.9,161.2 477,161.3 476,156.7 	"/>
	<polygon fill="#4A8080" points="532.9,139.3 533.8,143.7 532.5,153.7 531.6,149.1 	"/>
	<polygon fill="#4A8080" points="531.6,149.1 532.5,153.7 477.7,153.8 476.7,149.2 	"/>
	<polygon fill="#99C9C9" points="479.3,139.1 476.7,149.2 531.6,149.1 532.9,139.3 	"/>
</g>
<g>
	<polygon fill="#99C9C9" points="330.3,154.6 328.3,164.2 383.7,164.1 385,154.2 	"/>
	<polygon fill="#99C9C9" points="331.1,147.1 329,156.7 384.4,156.6 385.7,146.7 	"/>
	<polygon fill="#4A8080" points="384.6,154.3 385.5,158.8 384.3,168.6 383.2,164 	"/>
	<polygon fill="#4A8080" points="383.2,164 384.3,168.6 329.3,168.8 328.3,164.2 	"/>
	<polygon fill="#4A8080" points="385.2,146.7 386.2,152.3 385.9,163.2 383.9,156.6 	"/>
	<polygon fill="#4A8080" points="383.9,156.6 385.9,161.2 330,161.3 329,156.7 	"/>
	<polygon fill="#4A8080" points="385.9,139.3 386.8,143.7 385.5,153.7 384.6,149.1 	"/>
	<polygon fill="#4A8080" points="384.6,149.1 385.5,153.7 330.7,153.8 329.7,149.2 	"/>
	<polygon fill="#99C9C9" points="332.3,139.1 329.7,149.2 384.6,149.1 385.9,139.3 	"/>
</g>
<g>
	<polygon fill="#405E5E" points="635.2,261.4 636,264.4 632.9,288.3 632.1,285.2 	"/>
	<polygon fill="#405E5E" points="632.1,285.2 632.9,288.3 599,288.3 598.2,285.3 	"/>
	<polygon fill="#C1DDDD" points="635.2,261.4 632.1,285.2 598.2,285.3 601.4,261.4 	"/>
	<polygon fill="#336666" points="615,277.1 615.8,271.5 617.1,271.4 616.3,277.2 	"/>
	<polygon fill="#336666" points="610.4,269.2 609.4,276.3 613.7,276.3 613.6,277.2 608.2,277.2 609.1,269.2 	"/>
	<path fill="#336666" d="M622.2,268.7c0.5,0,0.8,0.1,1.1,0.1l-0.3,0.8c-0.2-0.1-0.4-0.2-0.8-0.2c-1.1,0-1.5,0.8-1.6,1.7l-0.1,0.3
		h1.7l-0.1,0.8h-1.7l-0.6,4.9h-1.3l0.6-4.9h-1l0.1-0.8h1l0.1-0.3c0.2-0.8,0.4-1.5,1.1-2C621,268.9,621.6,268.7,622.2,268.7z"/>
	<path fill="#336666" d="M625.2,269.7l-0.2,1.6h1.9l-0.1,0.8h-1.9l-0.4,3.1c-0.1,0.7,0.1,1.1,0.9,1.2c0.3,0,0.6,0,0.8,0l-0.1,0.8
		c-0.3,0.1-0.7,0.1-1.2,0.2c-0.6,0-1.1-0.1-1.3-0.4c-0.3-0.3-0.3-0.8-0.3-1.5l0.4-3.1h-1.1l0.1-0.8h1.1l0.2-1.4L625.2,269.7z"/>
	<path fill="#336666" d="M616.5,270.4c-0.5,0-0.7-0.3-0.7-0.7c0.1-0.4,0.5-0.6,0.9-0.6c0.5,0,0.7,0.3,0.7,0.7S617,270.5,616.5,270.4
		z"/>
</g>
</svg>
