<?xml version="1.0" encoding="utf-8"?>
<!-- Generator: Adobe Illustrator 16.0.0, SVG Export Plug-In . SVG Version: 6.00 Build 0)  -->
<!DOCTYPE svg PUBLIC "-//W3C//DTD SVG 1.1//EN" "http://www.w3.org/Graphics/SVG/1.1/DTD/svg11.dtd">
<svg version="1.1" id="Layer_1" xmlns="http://www.w3.org/2000/svg" xmlns:xlink="http://www.w3.org/1999/xlink" x="0px" y="0px"
	 width="612px" height="792px" viewBox="0 0 612 792" enable-background="new 0 0 612 792" xml:space="preserve">
<g>
	<g enable-background="new    ">
		<g>
			<polygon fill="#8C9E9E" points="383.137,263.624 384.123,267.99 213.992,268.412 213.287,264.046 			"/>
		</g>
		<g>
			<polygon fill="#8C9E9E" points="213.287,264.046 213.992,268.412 200.189,383.898 199.345,379.532 			"/>
		</g>
		<g>
			<polygon fill="#8C9E9E" points="570.872,86.451 571.859,90.676 536.79,383.054 535.945,378.688 			"/>
		</g>
		<g>
			<polygon fill="#8C9E9E" points="535.945,378.688 536.79,383.054 370.321,383.476 369.334,379.11 			"/>
		</g>
		<g>
			<polygon fill="#8C9E9E" points="350.182,529.523 351.026,533.891 179.909,534.173 178.923,529.946 			"/>
		</g>
		<g>
			<polygon fill="#8C9E9E" points="178.923,529.946 179.909,534.173 165.543,654.306 164.698,649.94 			"/>
		</g>
		<g>
			<polygon fill="#8C9E9E" points="535.945,378.688 536.79,383.054 504.398,653.603 503.411,649.235 			"/>
		</g>
		<g>
			<polygon fill="#8C9E9E" points="503.411,649.235 504.398,653.603 336.66,654.023 335.814,649.658 			"/>
		</g>
		<g>
			<polygon fill="#8C9E9E" points="498.059,695.008 498.904,699.375 2.736,700.5 1.75,696.135 			"/>
		</g>
		<g>
			<polygon fill="#8C9E9E" points="503.411,649.235 504.398,653.603 498.904,699.375 498.059,695.008 			"/>
		</g>
	</g>
</g>
<g>
	<polygon fill="#C1DDDD" points="570.872,86.451 535.945,378.688 369.334,379.11 383.137,263.624 213.287,264.046 199.345,379.532 
		535.945,378.688 503.411,649.235 335.814,649.658 350.182,529.523 178.923,529.946 164.698,649.94 503.411,649.235 
		498.059,695.008 1.75,696.135 74.703,87.437 	"/>
</g>
<g id="template" display="none">
	<g id="_x35_TJfyZ.tif" display="inline">
	</g>
</g>
<g id="base" display="none">
	<g display="inline">
		<g>
			<g enable-background="new    ">
				<g>
					<rect x="155.448" y="183.789" fill="#405E5E" width="271.881" height="419.449"/>
				</g>
				<g>
					<rect x="291.389" y="47.849" fill="#405E5E" width="0" height="271.881"/>
				</g>
			</g>
		</g>
	</g>
</g>
<polygon fill="#405E5E" points="558.76,95.464 546.085,190.107 72.732,191.233 85.407,96.591 "/>
<polygon fill="#405E5E" points="558.76,95.464 559.747,99.831 547.07,194.473 546.085,190.107 "/>
<polygon fill="#405E5E" points="546.085,190.107 547.07,194.473 73.858,195.74 72.732,191.233 "/>
<polygon fill="#405E5E" points="544.678,196.163 536.931,255.314 440.739,255.455 448.627,196.445 "/>
<polygon fill="#405E5E" points="544.678,196.163 545.663,200.528 537.775,259.54 536.931,255.314 "/>
<polygon fill="#405E5E" points="536.931,255.314 537.775,259.54 441.725,259.821 440.739,255.455 "/>
<polygon fill="#405E5E" points="536.65,260.103 523.129,361.365 427.078,361.646 440.457,260.244 "/>
<polygon fill="#405E5E" points="536.65,260.103 537.636,264.328 524.115,365.73 523.129,361.365 "/>
<polygon fill="#405E5E" points="523.129,361.365 524.115,365.73 427.923,366.013 427.078,361.646 "/>
<polygon fill="#405E5E" points="197.091,253.765 198.217,257.99 180.613,389.532 179.627,385.166 "/>
<polygon fill="#405E5E" points="197.091,253.765 179.627,385.166 238.215,385.026 232.019,430.657 37.522,431.078 61.042,253.906 
	"/>
<polygon fill="#405E5E" points="238.215,385.026 239.06,389.391 233.004,435.022 232.019,430.657 "/>
<polygon fill="#405E5E" points="232.019,430.657 233.004,435.022 38.368,435.445 37.522,431.078 "/>
<polygon fill="#405E5E" points="522.003,365.167 513.271,430.798 236.384,431.362 242.44,385.448 377.926,385.166 380.602,365.59 
	"/>
<polygon fill="#405E5E" points="522.003,365.167 522.988,369.534 514.256,435.022 513.271,430.798 "/>
<polygon fill="#405E5E" points="513.271,430.798 514.256,435.022 237.37,435.728 236.384,431.362 "/>
<polygon fill="#405E5E" points="367.504,478.822 368.349,483.189 363.139,522.201 362.294,517.836 "/>
<polygon fill="#405E5E" points="362.294,517.836 363.139,522.201 170.614,522.623 169.768,518.258 "/>
<polygon fill="#405E5E" points="169.768,518.258 170.614,522.623 152.587,659.798 151.459,655.573 "/>
<polygon fill="#405E5E" points="421.867,478.682 394.403,685.008 92.308,685.713 119.63,479.387 174.557,479.246 367.504,478.822 
	362.294,517.836 169.768,518.258 151.459,655.573 343.984,655.011 362.294,517.836 367.504,478.822 "/>
<polygon fill="#405E5E" points="421.867,478.682 422.853,482.906 395.391,689.232 394.403,685.008 "/>
<polygon fill="#405E5E" points="394.403,685.008 395.391,689.232 93.294,690.078 92.308,685.713 "/>
<polygon fill="#405E5E" points="198.5,436.432 199.485,440.938 194.556,477.837 193.57,473.472 "/>
<polygon fill="#405E5E" points="193.57,473.472 194.556,477.837 112.307,477.979 111.321,473.611 "/>
<polygon fill="#405E5E" points="111.321,473.611 112.307,477.979 83.999,689.232 83.153,684.867 "/>
<polygon fill="#405E5E" points="83.153,684.867 83.999,689.232 9.636,689.375 8.651,685.008 "/>
<polygon fill="#405E5E" points="394.686,436.713 395.53,441.22 390.741,477.132 389.756,472.767 "/>
<polygon fill="#405E5E" points="389.756,472.767 390.741,477.132 342.152,477.274 341.167,472.907 "/>
<polygon fill="#405E5E" points="426.655,475.864 427.641,480.092 396.094,480.231 395.248,475.864 "/>
<polygon fill="#405E5E" points="513.693,436.29 501.299,528.679 419.613,528.82 426.655,475.864 395.248,475.864 400.601,436.572 
	"/>
<polygon fill="#405E5E" points="513.693,436.29 514.679,440.515 502.286,533.046 501.299,528.679 "/>
<polygon fill="#405E5E" points="501.299,528.679 502.286,533.046 420.458,533.186 419.613,528.82 "/>
<polygon fill="#405E5E" points="500.454,536.144 501.581,540.368 498.904,560.508 497.919,556.143 "/>
<polygon fill="#405E5E" points="497.919,556.143 498.904,560.508 417.643,560.649 416.655,556.425 "/>
<polygon fill="#405E5E" points="497.074,561.353 498.059,565.72 492.989,603.887 492.004,599.661 "/>
<polygon fill="#405E5E" points="492.004,599.661 492.989,603.887 411.868,604.169 410.881,599.802 "/>
<polygon fill="#405E5E" points="491.863,605.014 492.989,609.238 482.709,685.431 481.724,681.205 "/>
<polygon fill="#405E5E" points="481.724,681.205 482.709,685.431 401.586,685.713 400.601,681.348 "/>
<polygon fill="#405E5E" points="456.093,355.302 456.629,357.597 454.181,375.957 453.645,373.662 "/>
<polygon fill="#405E5E" points="586.082,356.999 587.069,361.224 539.043,361.365 537.918,356.999 "/>
<polygon fill="#405E5E" points="575.662,458.824 576.647,463.189 572.14,496.991 571.154,492.624 "/>
<polygon fill="#405E5E" points="571.154,492.624 572.14,496.991 523.974,496.991 523.129,492.767 "/>
<polygon fill="#6BAFAD" points="558.76,95.464 546.085,190.107 72.732,191.233 85.407,96.591 "/>
<polygon fill="#6BAFAD" points="544.678,196.163 536.931,255.314 440.739,255.455 448.627,196.445 "/>
<polygon fill="#6BAFAD" points="536.65,260.103 523.129,361.365 427.078,361.646 440.457,260.244 "/>
<polygon fill="#6BAFAD" points="197.091,253.765 179.627,385.166 238.215,385.026 232.019,430.657 37.522,431.078 61.042,253.906 
	"/>
<polygon fill="#6BAFAD" points="522.003,365.167 513.271,430.798 236.384,431.362 242.44,385.448 377.926,385.166 380.602,365.59 
	"/>
<polygon fill="#4A8080" points="421.867,478.682 394.403,685.008 92.308,685.713 119.63,479.387 174.557,479.246 367.504,478.822 
	362.294,517.836 169.768,518.258 151.459,655.573 343.984,655.011 362.294,517.836 367.504,478.822 "/>
<polygon fill="#4A8080" points="513.693,436.29 501.299,528.679 419.613,528.82 426.655,475.864 395.248,475.864 400.601,436.572 
	"/>
<g id="Layer_6" display="none">
	<g display="inline">
		<polygon fill="#405E5E" points="243.117,416.809 240.439,436.928 195.764,437.004 180.463,551.754 139.995,551.83 
			157.973,417.037 		"/>
	</g>
	<g display="inline">
		<polygon fill="#405E5E" points="402.467,508.379 396.959,549.765 352.895,549.842 358.402,508.455 		"/>
	</g>
	<polygon display="inline" fill="#405E5E" points="349.682,416.961 347.004,436.545 320.611,436.621 323.213,417.037 	"/>
	<polygon display="inline" fill="#405E5E" points="407.133,470.97 405.756,481.833 361.615,481.986 363.069,471.047 	"/>
	<polygon display="inline" fill="#405E5E" points="405.297,484.663 402.543,505.472 358.479,505.548 361.233,484.74 	"/>
	<polygon display="inline" fill="#405E5E" points="298.044,427.671 296.973,435.703 258.34,435.78 259.488,427.824 	"/>
	<polygon display="inline" fill="#405E5E" points="298.503,421.475 297.432,429.507 258.799,429.66 259.871,421.628 	"/>
	<polygon display="inline" fill="#405E5E" points="298.886,415.354 297.814,423.387 259.182,423.54 260.33,415.508 	"/>
</g>
<polygon fill="#C1DDDD" points="575.662,458.824 571.154,492.624 523.129,492.767 527.636,458.965 "/>
<polygon fill="#C1DDDD" points="590.59,323.197 586.082,356.999 537.918,356.999 542.423,323.197 "/>
<g>
	<g>
		<path fill="#FFFFFF" d="M224.273,135.321c3.802,0,6.196,2.254,5.633,5.493c-0.422,3.943-4.226,5.775-7.465,5.775
			c-3.662,0-6.197-2.113-5.633-5.493C217.23,137.434,220.469,135.321,224.273,135.321z M222.723,145.039
			c2.253,0,4.225-1.831,4.507-4.225c0.14-1.83-0.705-4.084-3.521-4.225c-2.817-0.141-4.366,2.113-4.647,4.225
			C218.92,143.349,220.329,145.039,222.723,145.039"/>
	</g>
	<g>
		<path fill="#FFFFFF" d="M216.808,131.377l-7.183,14.928h-2.535l-1.268-7.886c-0.423-1.972-0.423-3.38-0.564-4.93
			c-0.563,1.409-1.267,3.099-2.112,4.93l-3.662,7.886h-2.535l-2.816-14.928h2.535l1.268,7.606c0.281,1.83,0.563,3.802,0.704,5.21
			c0.423-1.408,1.409-3.38,2.254-5.21l3.521-7.465h2.535l1.267,7.605c0.282,1.831,0.564,3.521,0.564,5.211
			c0.562-1.549,1.408-3.38,2.252-5.211l3.521-7.465L216.808,131.377z"/>
	</g>
	<g>
		<path fill="#FFFFFF" d="M239.764,135.321c0.282,0,0.422,0,0.705,0.141l-0.141,1.832c-0.281,0-0.422-0.141-0.845-0.141
			c-1.69,0-3.098,0.986-3.661,2.394c-0.141,0.282-0.282,0.563-0.282,0.845l-0.845,5.633H232.3l0.986-7.323
			c0.282-1.268,0.282-2.394,0.423-3.38h2.112l-0.141,2.113h0.141C236.384,136.166,238.074,135.18,239.764,135.321z"/>
	</g>
	<g>
		<polygon fill="#FFFFFF" points="245.82,130.391 243.708,146.166 241.314,146.166 243.426,130.391 		"/>
	</g>
	<g>
		<path fill="#FFFFFF" d="M259.764,143.49c-0.142,0.986-0.282,1.971-0.282,2.816h-2.253l0.14-1.83l0,0
			c-0.985,1.126-2.675,2.113-4.788,2.113c-3.24,0-5.494-2.254-4.93-5.493c0.563-3.521,3.521-5.775,6.76-5.775
			c2.112,0,3.24,0.845,3.803,1.69l0,0l0.986-6.337h2.395L259.764,143.49z M257.51,141.658l0.141-1.83c0-0.282,0.141-0.563,0-0.845
			c-0.141-1.268-1.409-2.254-3.24-2.254c-2.535,0-4.225,1.831-4.506,4.225c-0.281,2.112,0.845,3.944,3.521,3.944
			c1.69,0,3.239-0.845,3.943-2.395C257.51,142.363,257.651,142.081,257.51,141.658"/>
	</g>
	<g>
		<path fill="#FFFFFF" d="M292.719,131.096l-7.324,14.928h-2.535l-1.267-7.886c-0.423-1.972-0.423-3.381-0.564-4.93
			c-0.562,1.409-1.268,3.099-2.112,4.93l-3.661,7.886h-2.535l-2.817-14.928h2.535l1.268,7.605c0.282,1.831,0.422,3.802,0.705,5.211
			c0.562-1.409,1.409-3.38,2.253-5.211l3.521-7.465h2.536l1.268,7.606c0.281,1.831,0.563,3.521,0.563,5.211
			c0.563-1.55,1.408-3.38,2.253-5.211l3.521-7.465L292.719,131.096z"/>
	</g>
	<g>
		<polygon fill="#FFFFFF" points="293,146.166 294.269,135.462 296.663,135.462 295.395,146.024 		"/>
	</g>
	<g>
		<path fill="#FFFFFF" d="M295.818,133.49c-0.845,0-1.409-0.422-1.268-1.126c0.141-0.705,0.845-1.127,1.69-1.267
			c0.986,0,1.409,0.422,1.268,1.126C297.367,132.927,296.663,133.631,295.818,133.49z"/>
	</g>
	<g>
		<polygon fill="#FFFFFF" points="303.985,130.391 301.873,146.166 299.48,146.166 301.592,130.391 		"/>
	</g>
	<g>
		<path fill="#FFFFFF" d="M317.93,143.349c-0.143,0.986-0.282,1.972-0.282,2.817h-2.253l0.141-1.831
			c-0.985,1.126-2.676,2.113-4.93,2.113c-3.238,0-5.493-2.254-4.928-5.493c0.562-3.521,3.52-5.775,6.76-5.775
			c2.112,0,3.237,0.845,3.942,1.69l0.985-6.338h2.395L317.93,143.349z M315.675,141.518l0.143-1.831c0-0.281,0.14-0.563,0-0.845
			c-0.143-1.268-1.41-2.254-3.24-2.254c-2.535,0-4.225,1.831-4.507,4.225c-0.28,2.112,0.845,3.943,3.521,3.943
			c1.69,0,3.238-0.845,3.803-2.394C315.535,142.081,315.535,141.8,315.675,141.518"/>
	</g>
	<g>
		<polygon fill="#FFFFFF" points="326.098,130.251 323.984,146.024 321.59,146.024 323.702,130.251 		"/>
	</g>
	<g>
		<polygon fill="#FFFFFF" points="328.069,146.166 329.619,135.321 332.013,135.321 330.604,146.166 		"/>
	</g>
	<g>
		<path fill="#FFFFFF" d="M330.887,133.49c-0.845,0-1.409-0.422-1.268-1.126c0.141-0.705,0.845-1.127,1.69-1.267
			c0.985,0,1.407,0.422,1.268,1.126C332.577,132.927,331.872,133.49,330.887,133.49z"/>
	</g>
	<g>
		<path fill="#FFFFFF" d="M354.406,139.968c-0.142,0.423-0.142,0.705-0.282,0.845h-9.435c-0.283,2.676,1.548,3.662,4.082,3.662
			c1.69,0,2.817-0.282,3.803-0.422l0.282,1.408c-0.985,0.282-2.395,0.705-4.647,0.705c-4.085,0-6.337-2.253-5.915-5.492
			c0.423-3.24,3.24-5.775,7.042-5.775C353.842,134.898,354.547,137.997,354.406,139.968z M344.97,139.546h7.183
			c0.282-1.268-0.141-3.239-2.958-3.239C346.52,136.447,345.252,138.278,344.97,139.546"/>
	</g>
	<g>
		<path fill="#FFFFFF" d="M341.872,129.969c0.845,0,1.55,0.141,1.972,0.282l-0.422,1.408c-0.282-0.14-0.846-0.281-1.55-0.14
			c-2.113,0-2.678,1.409-3.1,3.099l-0.141,0.562h3.24l-0.141,1.409h-3.239l-1.128,9.295h-2.395l1.127-9.295h-1.83l0.141-1.409h1.83
			l0.142-0.562c0.141-1.55,0.846-2.817,2.113-3.803C339.477,130.251,340.744,129.969,341.872,129.969z"/>
	</g>
	<g>
		<path fill="#FFFFFF" d="M390.179,143.208c-0.141,0.985-0.141,1.831-0.141,2.535h-2.255l-0.14-1.409h-0.141
			c-0.845,0.845-2.395,1.69-4.225,1.69c-2.677,0-3.944-1.549-3.662-3.099c0.282-2.535,3.239-3.942,8.45-3.942h0.14v-0.282
			c0.143-0.845,0-2.535-2.675-2.535c-1.268,0-2.535,0.281-3.662,0.705l-0.281-1.268c1.268-0.563,2.815-0.985,4.647-0.985
			c4.083,0,4.788,2.253,4.506,4.366L390.179,143.208z M387.926,142.222l0.141-1.831c-0.141,0-0.283,0-0.423,0
			c-2.535,0-5.353,0.422-5.633,2.395c-0.282,1.268,0.845,1.971,2.112,1.83c1.69,0,2.958-0.845,3.38-1.69
			C387.783,142.645,387.926,142.503,387.926,142.222"/>
	</g>
	<g>
		<path fill="#FFFFFF" d="M373.559,130.814c2.113,0,3.805,0.422,4.508,0.705l-0.703,1.549c-0.987-0.422-2.112-0.562-4.085-0.562
			c-4.507,0-7.747,2.252-8.31,6.056c-0.562,3.803,1.973,6.055,6.338,6.055c1.55,0,2.675-0.14,3.239-0.422l0.562-4.365h-3.802
			l0.14-1.55h6.197l-0.985,7.183c-1.127,0.282-3.38,0.845-5.915,0.845c-2.816,0-5.069-0.562-6.76-1.971
			c-1.409-1.126-2.112-3.239-1.832-5.492C363.139,134.195,367.222,130.814,373.559,130.814z"/>
	</g>
	<g>
		<polygon fill="#FFFFFF" points="398.348,130.11 396.235,145.883 393.841,145.883 395.812,130.11 		"/>
	</g>
	<g>
		<polygon fill="#FFFFFF" points="404.966,130.11 402.854,145.883 400.318,145.883 402.431,130.11 		"/>
	</g>
	<g>
		<path fill="#FFFFFF" d="M418.628,139.828c-0.141,0.423-0.141,0.704-0.282,0.845h-9.436c-0.282,2.675,1.548,3.661,4.085,3.661
			c1.69,0,2.815-0.281,3.803-0.422l0.28,1.409c-0.985,0.281-2.393,0.704-4.508,0.704c-4.082,0-6.337-2.253-5.914-5.492
			c0.422-3.239,3.239-5.775,7.042-5.775C418.065,134.898,418.768,137.856,418.628,139.828z M409.051,139.406h7.183
			c0.282-1.268-0.141-3.24-2.958-3.24C410.74,136.166,409.473,138.138,409.051,139.406"/>
	</g>
	<g>
		<path fill="#FFFFFF" d="M428.205,134.898c0.28,0,0.422,0,0.705,0.141l-0.143,1.831c-0.282,0-0.422-0.141-0.845-0.141
			c-1.69,0-3.098,0.986-3.662,2.394c-0.141,0.282-0.28,0.563-0.28,0.845l-0.846,5.634h-2.395l0.985-7.324
			c0.282-1.268,0.282-2.394,0.423-3.38h2.112l-0.141,2.112h0.141C424.965,135.744,426.515,134.757,428.205,134.898z"/>
	</g>
	<g>
		<path fill="#FFFFFF" d="M442.147,135.04l-4.647,7.746c-2.253,3.662-3.662,5.493-5.492,6.76c-1.408,0.845-2.535,1.126-3.24,1.267
			l-0.422-1.69c0.704-0.141,1.549-0.563,2.254-0.986c0.703-0.423,1.69-1.268,2.393-2.254c0.143-0.14,0.283-0.281,0.283-0.422
			c0-0.14,0-0.281,0-0.562l-3.663-10h2.678l1.97,6.337c0.143,0.705,0.423,1.55,0.564,2.254c0.423-0.564,0.703-1.409,1.126-2.113
			l3.522-6.197L442.147,135.04z"/>
	</g>
</g>
<g>
	<g>
		<path fill="#FFFFFF" d="M475.104,206.443c1.831,0,3.238,0.282,3.803,0.705l-0.705,1.267c-0.845-0.281-1.83-0.563-3.38-0.563
			c-3.802,0-6.619,1.972-7.042,5.211c-0.422,3.239,1.69,5.07,5.492,5.07c1.41,0,2.255-0.141,2.817-0.282l0.563-3.802h-3.238
			l0.28-1.268h5.212l-0.845,6.055c-0.987,0.141-2.817,0.705-5.07,0.705c-2.395,0-4.225-0.423-5.774-1.69
			c-1.127-1.127-1.83-2.676-1.55-4.647C466.09,209.402,469.752,206.443,475.104,206.443z"/>
	</g>
	<g>
		<path fill="#FFFFFF" d="M491.441,210.247l-3.945,6.619c-1.97,3.099-3.098,4.647-4.646,5.775c-1.126,0.704-2.253,0.985-2.676,1.126
			l-0.423-1.409c0.563-0.14,1.268-0.281,1.973-0.845c0.562-0.281,1.408-1.126,1.971-1.831c0.142-0.14,0.282-0.282,0.282-0.422
			s0-0.282,0-0.423l-3.098-8.45h2.253l1.83,5.352c0.142,0.562,0.422,1.408,0.564,1.83c0.28-0.562,0.703-1.268,0.985-1.83
			l2.957-5.352L491.441,210.247z"/>
	</g>
	<g>
		<path fill="#FFFFFF" d="M499.187,209.964c2.817,0,4.647,1.832,4.225,4.507c-0.423,3.239-3.098,4.929-5.774,4.929
			c-1.548,0-2.676-0.563-3.38-1.408l0,0l-0.703,4.93h-2.112l1.268-10c0.28-1.126,0.14-2.112,0.28-2.958h1.832l0.14,1.55l0,0
			C495.946,210.528,497.356,209.964,499.187,209.964z M497.356,218.274c2.252,0,3.662-1.409,3.942-3.662
			c0.141-1.831-0.705-3.38-2.957-3.38c-1.408,0-2.817,0.845-3.381,1.972c-0.14,0.141-0.282,0.423-0.282,0.704l-0.14,1.549
			c0,0.282,0,0.422,0,0.705C494.679,217.429,495.946,218.133,497.356,218.274"/>
	</g>
	<g>
		<path fill="#FFFFFF" d="M510.171,209.964c1.128,0,2.112,0.283,2.678,0.564l-0.705,1.126c-0.423-0.281-1.127-0.562-2.253-0.562
			c-1.268,0-1.972,0.562-2.112,1.268c-0.142,0.704,0.423,1.126,1.971,1.549c1.832,0.563,2.817,1.409,2.677,2.676
			c-0.143,1.549-1.973,2.816-4.647,2.816c-1.268,0-2.395-0.281-3.1-0.704l0.705-1.268c0.562,0.281,1.55,0.563,2.675,0.704
			c1.55,0,2.395-0.564,2.395-1.409c0.141-0.845-0.422-1.268-1.972-1.69c-1.971-0.563-2.815-1.549-2.676-2.535
			C505.946,211.092,507.637,209.964,510.171,209.964z"/>
	</g>
	<g>
		<path fill="#FFFFFF" d="M525.241,210.105l-3.943,6.619c-1.972,3.099-3.1,4.648-4.647,5.774c-1.127,0.704-2.254,0.986-2.677,1.126
			l-0.423-1.408c0.564-0.141,1.268-0.282,1.973-0.845c0.705-0.282,1.409-1.127,1.973-1.831c0.14-0.142,0.282-0.282,0.282-0.423
			c0-0.141,0-0.282,0-0.422l-3.1-8.45h2.254l1.831,5.351c0.14,0.563,0.422,1.409,0.562,1.831l0,0
			c0.282-0.563,0.704-1.268,0.986-1.831l2.958-5.351L525.241,210.105z"/>
	</g>
	<g>
		<path fill="#FFFFFF" d="M477.217,229.259l-6.197,12.816h-2.113l-1.127-6.619c-0.28-1.69-0.422-2.817-0.562-4.225
			c-0.562,1.268-0.985,2.394-1.83,4.225l-3.1,6.619h-2.112l-2.396-12.675h2.113l1.127,6.479c0.282,1.549,0.423,3.239,0.562,4.366
			c0.564-1.268,1.128-2.676,1.832-4.507l3.098-6.337h2.112l1.128,6.479c0.282,1.549,0.422,3.099,0.562,4.366
			c0.564-1.409,1.268-2.817,1.832-4.366l2.957-6.337L477.217,229.259z"/>
	</g>
	<g>
		<path fill="#FFFFFF" d="M497.919,232.921h1.83c-0.141,0.704-0.28,1.408-0.421,2.535l-0.705,5.211
			c-0.281,2.113-0.986,3.38-2.112,4.225c-1.268,0.704-2.957,1.126-4.366,1.126c-1.408,0-2.816-0.282-3.661-0.845l0.703-1.268
			c0.705,0.423,1.832,0.705,3.24,0.705c2.112,0,3.802-0.845,4.084-3.24l0.141-0.986l0,0c-0.845,0.845-1.973,1.55-3.803,1.55
			c-2.817,0-4.647-1.831-4.225-4.366c0.423-3.099,3.098-4.789,5.774-4.789c1.971,0,2.958,0.845,3.38,1.69l0,0L497.919,232.921z
			 M496.934,237.991l0.141-1.69c0-0.282,0.14-0.563,0-0.705c-0.141-0.985-1.128-1.83-2.676-1.69c-1.972,0-3.662,1.268-3.944,3.521
			c-0.141,1.831,0.705,3.38,2.957,3.24c1.268,0,2.535-0.705,3.1-1.69C496.934,238.695,497.074,238.273,496.934,237.991"/>
	</g>
	<g>
		<path fill="#FFFFFF" d="M485.666,239.682c-0.14,0.845-0.14,1.549-0.14,2.112h-1.832v-1.126h-0.141
			c-0.704,0.704-1.972,1.408-3.803,1.268c-2.254,0-3.38-1.409-3.099-2.676c0.282-2.112,2.957-3.38,7.184-3.38h0.141v-0.141
			c0.14-0.704,0-2.112-2.395-2.112c-1.128,0-2.253,0.281-3.098,0.704l-0.283-1.126c0.985-0.422,2.396-0.845,3.943-0.845
			c3.521,0,4.085,1.831,3.804,3.802L485.666,239.682z M483.836,238.836l0.141-1.549c-0.141,0-0.141,0-0.282,0
			c-2.253,0-4.647,0.422-4.788,2.112c-0.142,1.126,0.703,1.69,1.83,1.549c1.55,0,2.535-0.704,2.958-1.549
			C483.694,239.259,483.836,238.978,483.836,238.836"/>
	</g>
	<g>
		<path fill="#FFFFFF" d="M507.919,232.639c3.239,0,5.21,1.831,4.93,4.648c-0.565,3.38-3.522,4.788-6.338,4.929
			c-3.1,0-5.212-1.831-4.789-4.647C502.144,234.329,504.82,232.639,507.919,232.639z M506.934,240.808
			c1.97,0,3.66-1.408,3.942-3.661c0.141-1.55-0.423-3.521-2.957-3.521c-2.396,0-3.663,1.69-4.085,3.662
			C503.554,239.259,504.82,240.949,506.934,240.808"/>
	</g>
	<g>
		<path fill="#FFFFFF" d="M521.861,232.499c1.549,0,3.944,0.704,3.521,3.942l-0.705,5.353h-2.112l0.705-5.211
			c0.14-1.409-0.282-2.676-2.255-2.676c-1.407,0-2.535,0.845-2.957,1.69c-0.141,0.141-0.28,0.422-0.28,0.705l-0.705,5.493h-2.112
			l0.845-6.62c0.141-0.985,0.141-1.69,0.282-2.394h1.83v1.549l0,0C518.48,233.484,520.03,232.499,521.861,232.499z"/>
	</g>
</g>
<g>
	<g>
		<path fill="#FFFFFF" d="M460.175,295.735c1.55,0.281,3.38,1.407,2.957,3.38c-0.282,1.126-0.845,1.971-1.83,2.675
			c-1.268,0.845-3.38,1.268-6.057,1.268c-1.548,0-2.676-0.14-3.38-0.14l1.832-13.239c0.984-0.14,2.534-0.282,4.082-0.282
			c2.113,0,3.522,0.282,4.508,0.986c0.845,0.563,1.268,1.409,1.127,2.394C463.272,294.044,462.005,295.171,460.175,295.735
			L460.175,295.735z M456.231,301.65c2.253,0,4.506-0.705,4.647-2.676c0.141-1.832-1.689-2.535-3.944-2.535h-1.83l-0.705,5.07
			C454.964,301.65,455.527,301.79,456.231,301.65 M455.949,290.805l-0.562,4.366h1.971c2.254,0,3.803-0.845,3.944-2.395
			c0.141-1.549-1.268-2.253-3.38-2.253C456.795,290.664,456.372,290.805,455.949,290.805"/>
	</g>
	<g>
		<path fill="#FFFFFF" d="M472.287,293.059c0.282,0,0.422,0,0.562,0.14l-0.141,1.55c-0.14,0-0.422-0.141-0.704-0.141
			c-1.549,0-2.815,0.986-3.238,2.253c-0.143,0.281-0.143,0.563-0.282,0.845l-0.705,5.07h-2.112l0.845-6.619
			c0.282-1.127,0.282-2.114,0.282-2.958h1.973l-0.143,1.831h0.143C469.329,293.763,470.879,293.059,472.287,293.059z"/>
	</g>
	<g>
		<polygon fill="#FFFFFF" points="473.694,302.917 475.104,293.199 477.217,293.199 475.807,302.917 		"/>
	</g>
	<g>
		<path fill="#FFFFFF" d="M476.229,291.65c-0.703,0-1.268-0.563-1.126-1.126c0.141-0.563,0.846-1.127,1.549-1.127
			c0.845,0,1.268,0.564,1.127,1.127C477.779,291.087,477.217,291.509,476.229,291.65z"/>
	</g>
	<g>
		<path fill="#FFFFFF" d="M483.977,290.524l-0.423,2.816h3.098l-0.28,1.268h-3.1l-0.703,5.211c-0.282,1.126,0.281,1.831,1.408,1.831
			c0.562,0,0.985,0,1.268,0l-0.141,1.268c-0.422,0.14-1.127,0.14-1.972,0.281c-0.987,0-1.831-0.281-2.253-0.704
			c-0.564-0.563-0.705-1.409-0.564-2.535l0.704-5.211h-1.832l0.282-1.268h1.832l0.281-2.253L483.977,290.524z"/>
	</g>
	<g>
		<polygon fill="#FFFFFF" points="487.919,302.917 489.187,293.34 491.299,293.199 490.031,302.776 		"/>
	</g>
	<g>
		<path fill="#FFFFFF" d="M490.313,291.509c-0.704,0-1.267-0.563-1.127-1.126c0.142-0.563,0.845-1.127,1.55-1.127
			c0.845,0,1.268,0.563,1.127,1.127C491.863,291.228,491.299,291.65,490.313,291.509z"/>
	</g>
	<g>
		<path fill="#FFFFFF" d="M498.623,293.059c1.268,0,2.253,0.281,2.817,0.562l-0.704,1.268c-0.423-0.281-1.268-0.562-2.395-0.562
			c-1.268,0-2.113,0.562-2.113,1.408c-0.14,0.846,0.563,1.127,2.113,1.55c1.972,0.563,3.099,1.549,2.816,2.957
			c-0.14,1.69-2.112,2.958-4.93,2.958c-1.268,0-2.535-0.281-3.239-0.704l0.704-1.268c0.563,0.422,1.69,0.704,2.817,0.704
			c1.548,0,2.396-0.704,2.535-1.409c0.141-0.845-0.423-1.268-2.112-1.69c-2.112-0.563-3.1-1.549-2.817-2.675
			C494.257,294.327,496.089,293.059,498.623,293.059z"/>
	</g>
	<g>
		<path fill="#FFFFFF" d="M507.637,288.552l-0.846,6.056l0,0c0.423-0.422,1.128-0.845,1.832-1.268
			c0.703-0.281,1.548-0.563,2.394-0.563c1.689,0,4.084,0.705,3.662,4.226l-0.846,5.774h-2.252l0.702-5.492
			c0.143-1.549-0.28-2.958-2.393-2.817c-1.409,0-2.677,0.846-3.1,1.691c-0.14,0.281-0.28,0.422-0.28,0.845l-0.845,5.774h-2.255
			l1.973-14.225H507.637z"/>
	</g>
	<g>
		<polygon fill="#FFFFFF" points="463.414,327.001 464.682,317.142 466.935,317.142 465.667,326.859 		"/>
	</g>
	<g>
		<path fill="#FFFFFF" d="M463.132,313.48l-6.619,13.521h-2.253l-1.268-7.042c-0.282-1.69-0.423-3.099-0.562-4.366
			c-0.564,1.268-1.128,2.535-1.832,4.366l-3.238,6.901h-2.255l-2.395-13.379h2.255l1.125,6.901c0.282,1.69,0.425,3.38,0.705,4.647
			c0.564-1.267,1.268-2.957,1.973-4.647l3.098-6.76h2.254l1.126,6.901c0.282,1.549,0.422,3.239,0.564,4.647
			c0.562-1.409,1.268-3.099,1.97-4.647l3.1-6.761L463.132,313.48z"/>
	</g>
	<g>
		<path fill="#FFFFFF" d="M465.949,315.592c-0.705,0-1.268-0.562-1.127-1.126c0.142-0.564,0.845-1.127,1.55-1.127
			c0.845,0,1.268,0.563,1.127,1.127C467.499,315.03,466.794,315.592,465.949,315.592z"/>
	</g>
	<g>
		<polygon fill="#FFFFFF" points="473.271,312.776 471.441,326.859 469.329,327.001 471.159,312.776 		"/>
	</g>
	<g>
		<path fill="#FFFFFF" d="M485.948,324.325c-0.142,0.845-0.142,1.831-0.282,2.535h-1.972l0.14-1.689l0,0
			c-0.845,0.986-2.393,1.971-4.365,1.971c-2.957,0-4.93-1.971-4.507-4.929c0.423-3.239,3.1-5.211,6.057-5.211
			c1.831,0,2.958,0.704,3.521,1.549l0,0l0.845-5.773h2.255L485.948,324.325z M483.836,322.775l0.141-1.69
			c0-0.281,0.14-0.562,0-0.704c-0.141-1.126-1.268-2.112-2.958-2.112c-2.254,0-3.802,1.69-4.225,3.803
			c-0.282,1.971,0.703,3.662,3.098,3.521c1.409,0,2.958-0.704,3.522-2.113C483.836,323.338,483.836,323.057,483.836,322.775"/>
	</g>
	<g>
		<polygon fill="#FFFFFF" points="493.271,312.635 491.441,326.859 489.187,326.859 491.019,312.635 		"/>
	</g>
	<g>
		<polygon fill="#FFFFFF" points="495.102,326.859 496.369,317.142 498.623,317.142 497.356,326.859 		"/>
	</g>
	<g>
		<path fill="#FFFFFF" d="M518.764,321.367c0,0.422-0.141,0.562-0.283,0.845h-8.449c-0.282,2.394,1.407,3.239,3.662,3.38
			c1.548,0,2.535-0.282,3.38-0.422l0.141,1.267c-0.846,0.282-2.253,0.564-4.085,0.704c-3.66,0-5.773-1.971-5.351-4.929
			c0.423-2.957,2.815-5.211,6.337-5.352C518.341,316.86,518.903,319.677,518.764,321.367z M510.313,321.085l6.478-0.14
			c0.282-1.127-0.141-2.817-2.676-2.817C511.861,318.127,510.594,319.817,510.313,321.085"/>
	</g>
	<g>
		<path fill="#FFFFFF" d="M507.355,312.494c0.846,0,1.408,0.141,1.83,0.283l-0.422,1.408c-0.282-0.141-0.705-0.282-1.408-0.141
			c-1.832,0-2.535,1.268-2.677,2.816l-0.141,0.564h2.958l-0.282,1.267h-2.958l-1.125,8.45h-2.112l1.125-8.45h-1.689l0.282-1.267
			h1.689l0.141-0.423c0.142-1.409,0.705-2.535,1.832-3.38C505.384,312.776,506.369,312.354,507.355,312.494z"/>
	</g>
	<g>
		<path fill="#FFFFFF" d="M497.778,315.592c-0.704,0-1.268-0.562-1.127-1.126c0.141-0.564,0.845-1.127,1.55-1.127
			c0.845,0,1.268,0.563,1.125,1.127C499.046,315.03,498.623,315.452,497.778,315.592z"/>
	</g>
</g>
<g>
	<g>
		<path fill="#FFFFFF" d="M329.76,396.855c1.972,1.549,2.675,3.662,2.395,6.62c-0.423,3.098-1.973,5.633-4.367,7.322
			c-2.393,1.69-6.197,2.676-10.702,2.676c-2.113,0-3.944,0-5.353-0.28l2.535-18.309c1.83-0.282,4.085-0.422,6.478-0.422
			C324.972,394.461,328.069,395.307,329.76,396.855z M318.07,411.644c6.479-0.141,10.281-2.958,10.984-7.886
			c0.564-4.367-2.112-7.184-8.59-7.184c-1.55,0-2.817,0.141-3.522,0.141l-1.971,14.788
			C315.817,411.503,316.942,411.644,318.07,411.644"/>
	</g>
	<g>
		<polygon fill="#FFFFFF" points="334.829,413.333 336.66,399.953 339.759,399.953 337.927,413.333 		"/>
	</g>
	<g>
		<path fill="#FFFFFF" d="M338.35,397.56c-1.125,0-1.689-0.562-1.689-1.408c0.142-0.845,0.986-1.409,1.972-1.55
			c1.127,0,1.69,0.564,1.69,1.409C340.462,396.855,339.617,397.701,338.35,397.56z"/>
	</g>
	<g>
		<path fill="#FFFFFF" d="M353.139,399.673c2.253,0,5.773,1.126,5.07,5.633l-1.127,8.027h-3.098l0.984-7.604
			c0.282-2.113-0.562-3.943-3.38-3.943c-1.972,0-3.802,1.128-4.365,2.535c-0.142,0.282-0.282,0.703-0.422,1.127l-1.128,8.168h-3.098
			l1.268-9.857c0.141-1.409,0.28-2.535,0.423-3.664h2.675l-0.14,2.255h0.14C348.209,400.799,350.321,399.673,353.139,399.673z"/>
	</g>
	<g>
		<path fill="#FFFFFF" d="M371.166,399.533c4.788,0,7.745,2.815,7.183,6.899c-0.705,4.93-5.212,7.183-9.295,7.183
			c-4.508,0-7.605-2.677-7.183-6.901C362.434,402.208,366.519,399.533,371.166,399.533z M369.334,411.644
			c2.957,0,5.353-2.253,5.774-5.211c0.282-2.254-0.704-5.21-4.365-5.069c-3.662,0.14-5.492,2.675-5.915,5.21
			C364.546,409.53,366.377,411.783,369.334,411.644"/>
	</g>
	<g>
		<path fill="#FFFFFF" d="M407.078,409.953c-0.28,1.127-0.28,2.255-0.14,3.24h-2.817l-0.141-1.69h-0.14
			c-1.128,0.985-2.958,1.971-5.353,1.971c-3.38,0-4.93-1.83-4.647-3.801c0.423-3.24,4.225-5.07,10.562-4.93h0.14v-0.282
			c0.143-1.128,0.143-3.098-3.38-3.098c-1.548,0-3.237,0.42-4.505,0.985l-0.564-1.69c1.55-0.845,3.662-1.125,5.774-1.125
			c5.07,0,6.055,2.815,5.633,5.49L407.078,409.953z M404.403,408.686l0.282-2.253c-0.143,0-0.282,0-0.564,0
			c-3.238,0-6.618,0.563-7.041,3.098c-0.142,1.55,0.985,2.396,2.535,2.396c2.112,0,3.803-0.987,4.365-2.253
			C404.263,409.248,404.403,408.968,404.403,408.686"/>
	</g>
	<g>
		<path fill="#FFFFFF" d="M388.066,399.533c1.689,0,3.098,0.42,3.942,0.702l-0.985,1.69c-0.562-0.423-1.69-0.703-3.24-0.845
			c-1.83,0-2.957,0.845-2.957,1.832c-0.141,1.125,0.845,1.689,2.957,2.252c2.678,0.846,4.226,1.973,3.945,4.083
			c-0.282,2.396-2.817,3.945-6.902,4.085c-1.83,0-3.521-0.421-4.506-0.845l0.985-1.83c0.846,0.562,2.253,0.985,3.803,0.985
			c2.253,0,3.38-0.846,3.521-1.971c0.282-1.128-0.703-1.832-2.815-2.535c-2.817-0.845-4.226-2.114-3.803-3.805
			C382.151,401.223,384.546,399.391,388.066,399.533z"/>
	</g>
	<g>
		<path fill="#FFFFFF" d="M427.5,399.813l-1.268,9.859c-0.14,1.407-0.282,2.535-0.422,3.66h-2.676l0.141-2.253h-0.141
			c-0.986,0.987-2.817,2.535-5.915,2.535c-2.677,0-5.634-1.127-4.93-5.915l0.985-7.747h3.1l-0.987,7.325
			c-0.28,2.534,0.423,4.225,3.24,4.225c1.972,0,3.662-1.127,4.225-2.255c0.282-0.28,0.423-0.845,0.562-1.266l1.128-8.31
			L427.5,399.813z"/>
	</g>
	<g>
		<path fill="#FFFFFF" d="M440.035,399.391c0.282,0,0.562,0,0.845,0.143l-0.282,2.252c-0.28-0.142-0.562-0.142-0.985-0.142
			c-2.112,0-3.942,1.409-4.507,3.239c-0.141,0.282-0.281,0.705-0.281,1.128l-0.986,7.042h-2.958l1.128-9.295
			c0.14-1.55,0.422-2.959,0.422-4.225h2.676l-0.281,2.675h0.141C435.95,400.518,437.923,399.391,440.035,399.391z"/>
	</g>
	<g>
		<path fill="#FFFFFF" d="M449.05,399.249c1.689,0,3.098,0.424,3.942,0.704l-0.985,1.69c-0.564-0.421-1.69-0.705-3.239-0.845
			c-1.832,0-2.958,0.845-2.958,1.832c-0.142,1.127,0.845,1.689,2.958,2.252c2.675,0.846,4.084,1.973,3.942,4.085
			c-0.28,2.395-2.815,3.942-6.9,4.085c-1.832,0-3.522-0.425-4.507-0.845l0.984-1.832c0.846,0.562,2.255,0.986,3.803,0.986
			c2.255,0,3.382-0.845,3.522-1.972c0.282-1.127-0.705-1.832-2.817-2.535c-2.817-0.845-4.085-2.112-3.803-3.803
			C442.992,401.223,445.527,399.391,449.05,399.249z"/>
	</g>
</g>
<g>
	<g enable-background="new    ">
		<g>
			<path fill="#FFFFFF" d="M84.843,306.015c2.253,0,3.944,0.282,4.789,0.705l-0.845,1.549c-0.986-0.423-2.254-0.704-4.225-0.563
				c-4.789,0-8.168,2.394-8.732,6.337c-0.422,3.944,2.113,6.337,6.761,6.196c1.69,0,2.816-0.14,3.52-0.422l0.563-4.647l-3.943,0.141
				l0.141-1.549l6.479-0.141l-0.986,7.464c-1.126,0.282-3.521,0.845-6.196,0.845c-2.958,0-5.352-0.562-7.042-1.971
				c-1.549-1.268-2.254-3.38-1.972-5.774C73.858,309.396,78.225,306.015,84.843,306.015z"/>
		</g>
		<g>
			<path fill="#FFFFFF" d="M104.138,315.592c-0.14,0.423-0.14,0.705-0.281,0.986h-9.858c-0.281,2.676,1.831,3.802,4.366,3.802
				c1.831,0,2.958-0.281,3.943-0.704l0.281,1.549c-0.986,0.281-2.535,0.704-4.789,0.704c-4.366,0-6.619-2.252-6.196-5.773
				c0.423-3.38,3.38-6.056,7.464-6.056C103.715,310.241,104.561,313.48,104.138,315.592z M94.42,315.03h7.465
				c0.281-1.268-0.141-3.381-3.099-3.381C96.11,311.649,94.843,313.621,94.42,315.03"/>
		</g>
	</g>
	<g>
		<path fill="#FFFFFF" d="M113.997,310.241c4.084,0,6.479,2.394,5.916,5.774c-0.563,4.084-4.507,6.056-7.887,6.056
			c-3.803,0-6.479-2.254-5.915-5.774C106.814,312.494,110.194,310.241,113.997,310.241z M112.589,320.522
			c2.394,0,4.506-1.832,4.788-4.366c0.282-1.831-0.704-4.366-3.661-4.366c-3.099,0-4.647,2.253-4.929,4.366
			C108.645,318.691,110.054,320.522,112.589,320.522"/>
	</g>
	<g>
		<polygon fill="#FFFFFF" points="127.376,305.17 125.124,321.79 122.587,321.79 124.841,305.17 		"/>
	</g>
	<g enable-background="new    ">
		<g>
			<path fill="#FFFFFF" d="M136.954,310.241c4.083,0,6.479,2.394,5.915,5.774c-0.562,4.084-4.506,6.056-7.886,6.056
				c-3.803,0-6.479-2.254-5.916-5.774C129.63,312.354,133.151,310.241,136.954,310.241z M135.545,320.381
				c2.395,0,4.507-1.831,4.789-4.366c0.281-1.831-0.704-4.366-3.662-4.366c-2.958,0-4.648,2.253-4.93,4.366
				C131.461,318.691,133.01,320.381,135.545,320.381"/>
		</g>
		<g>
			<path fill="#FFFFFF" d="M156.812,310.381h2.253c-0.14,0.845-0.281,1.69-0.563,3.099l-0.845,6.479
				c-0.282,2.535-1.127,4.225-2.676,5.07c-1.549,1.127-3.661,1.268-5.352,1.409c-1.69,0-3.521-0.422-4.506-0.845l0.845-1.55
				c0.845,0.563,2.254,0.846,3.944,0.846c2.676,0,4.789-1.127,5.07-3.943l0.281-1.268c-0.985,0.985-2.535,1.83-4.788,1.971
				c-3.521,0-5.633-2.394-5.211-5.492c0.562-3.803,3.943-6.056,7.182-6.056c2.394,0,3.662,1.126,4.225,1.831L156.812,310.381z
				 M155.544,316.86l0.282-1.971c0-0.281,0.141-0.704,0-0.986c-0.282-1.268-1.409-2.112-3.38-2.253
				c-2.395,0-4.366,1.691-4.647,4.226c-0.282,2.253,0.985,4.084,3.662,4.084c1.55,0,3.099-0.704,3.802-2.112
				C155.403,317.564,155.544,317.142,155.544,316.86"/>
		</g>
	</g>
	<g>
		<path fill="#FFFFFF" d="M174.557,310.381l-4.929,8.028c-2.254,3.943-3.944,5.915-5.775,7.042c-1.408,0.986-2.675,1.268-3.38,1.268
			l-0.423-1.69c0.705-0.141,1.55-0.563,2.395-0.986c0.845-0.422,1.83-1.268,2.394-2.253c0.142-0.141,0.282-0.422,0.282-0.422
			c0-0.141,0-0.282-0.14-0.563l-3.803-10.422h2.816l2.253,6.62c0.141,0.704,0.563,1.69,0.563,2.394l0,0
			c0.422-0.704,0.705-1.549,1.268-2.394l3.662-6.76L174.557,310.381z"/>
	</g>
	<g>
		<path fill="#FFFFFF" d="M124.419,346.999c0.845,0.986,1.831,1.69,2.817,2.817h-3.099c-0.422-0.422-0.845-0.986-1.69-1.55
			c-1.972,1.268-3.802,1.831-5.916,1.831c-3.802,0-5.773-2.112-5.492-4.366c0.282-2.113,2.112-3.663,4.366-4.647l0,0
			c-0.845-1.127-1.409-2.113-1.126-3.38c0.281-1.831,2.112-3.943,5.493-3.802c2.394,0,4.225,1.268,3.802,3.38
			c-0.141,1.69-1.549,2.958-4.789,4.225l0,0c1.55,1.409,3.099,3.239,4.225,4.366c1.127-0.986,1.831-2.676,2.536-4.647h2.253
			C127.095,343.619,125.968,345.591,124.419,346.999z M117.095,348.548c1.69,0,3.24-0.563,4.225-1.549
			c-0.985-1.126-2.958-2.957-4.929-4.93c-1.127,0.423-2.676,1.55-2.958,3.099C113.434,347.141,114.841,348.548,117.095,348.548
			 M119.49,335.31c-1.69,0-2.676,1.127-2.817,2.254c-0.142,1.126,0.422,1.971,1.127,2.816c2.112-0.985,3.38-1.69,3.662-2.958
			C121.743,336.296,121.039,335.169,119.49,335.31"/>
	</g>
	<g>
		<path fill="#FFFFFF" d="M85.83,362.069l-0.845,15.633h-2.535l0.423-6.901c0.141-2.113,0.281-4.789,0.563-6.761h-0.141
			c-0.845,1.832-2.112,3.804-3.24,5.916l-4.506,7.605h-1.971l-2.254-7.465c-0.705-2.252-1.127-4.365-1.409-6.056
			c-0.281,1.973-0.845,4.507-1.267,7.042l-1.409,6.76h-2.394l3.521-15.773h3.239L74,369.674c0.562,1.972,0.985,3.662,1.268,5.353
			h0.14c0.705-1.55,1.69-3.38,2.817-5.211l4.506-7.605L85.83,362.069z"/>
	</g>
	<g>
		<polygon fill="#FFFFFF" points="88.787,377.842 90.337,366.435 92.872,366.435 91.322,377.842 		"/>
	</g>
	<g>
		<path fill="#FFFFFF" d="M91.744,364.604c-0.845,0-1.407-0.564-1.267-1.126c0.141-0.705,0.705-1.268,1.831-1.268
			c0.986,0,1.409,0.563,1.409,1.268C93.576,364.04,92.73,364.604,91.744,364.604z"/>
	</g>
	<g>
		<path fill="#FFFFFF" d="M104.138,366.294c1.973,0,4.789,0.845,4.366,4.789l-0.845,6.62h-2.535l0.845-6.479
			c0.141-1.831-0.423-3.38-2.816-3.38c-1.69,0-3.24,0.985-3.663,1.971c-0.141,0.281-0.281,0.564-0.422,0.986l-0.845,6.76h-2.535
			l1.126-8.31c0.282-1.126,0.282-2.113,0.282-2.958h2.252v1.831l0,0C100.054,367.139,101.885,366.294,104.138,366.294z"/>
	</g>
	<g>
		<path fill="#FFFFFF" d="M123.996,371.505c-0.141,0.423-0.141,0.704-0.281,0.986h-9.858c-0.282,2.816,1.83,3.802,4.366,3.802
			c1.831,0,2.958-0.282,3.943-0.705l0.282,1.55c-0.986,0.281-2.535,0.704-4.789,0.704c-4.366,0-6.62-2.253-6.197-5.773
			c0.564-3.38,3.38-6.056,7.465-6.056C123.433,366.153,124.419,369.393,123.996,371.505z M114.138,370.941h7.465
			c0.281-1.268-0.141-3.38-3.099-3.38C115.969,367.562,114.419,369.534,114.138,370.941"/>
	</g>
	<g>
		<path fill="#FFFFFF" d="M146.249,375.026c-0.141,0.985-0.141,1.971-0.141,2.676h-2.253l-0.141-1.409h-0.14
			c-0.986,0.845-2.536,1.69-4.507,1.69c-2.816,0-4.085-1.55-3.803-3.24c0.423-2.675,3.521-4.083,8.873-4.225h0.141v-0.282
			c0.141-0.986,0-2.535-2.817-2.676c-1.268,0-2.675,0.282-3.803,0.845l-0.422-1.408c1.268-0.563,3.099-0.986,4.789-0.986
			c4.366,0,5.07,2.394,4.789,4.506L146.249,375.026z M143.713,373.899l0.282-1.971c-0.141,0-0.282,0-0.422,0
			c-2.676,0-5.634,0.422-5.916,2.535c-0.281,1.268,0.845,1.971,2.253,1.971c1.832,0,3.099-0.845,3.663-1.83
			C143.713,374.321,143.854,374.181,143.713,373.899"/>
	</g>
	<g>
		<path fill="#FFFFFF" d="M134.136,366.153c0.282,0,0.563,0,0.705,0.141l-0.282,1.972c-0.281,0-0.562-0.141-0.845-0.141
			c-1.831,0-3.239,1.126-3.803,2.676c-0.14,0.281-0.281,0.562-0.281,0.985l-0.845,5.916h-2.535l0.986-7.746
			c0.281-1.268,0.281-2.395,0.422-3.521h2.253l-0.14,2.253h0.14C130.756,367.139,132.446,366.153,134.136,366.153z"/>
	</g>
	<g>
		<polygon fill="#FFFFFF" points="154.839,361.083 152.445,377.561 149.911,377.561 152.163,361.083 		"/>
	</g>
	<g>
		<path fill="#FFFFFF" d="M162.727,366.013c1.409,0,2.676,0.281,3.38,0.704l-0.704,1.409c-0.564-0.281-1.409-0.563-2.817-0.704
			c-1.549,0-2.535,0.704-2.535,1.549c-0.141,0.986,0.705,1.409,2.395,1.831c2.252,0.704,3.52,1.83,3.239,3.38
			c-0.281,1.971-2.394,3.38-5.775,3.38c-1.549,0-2.958-0.282-3.802-0.845l0.845-1.55c0.705,0.422,1.973,0.845,3.24,0.845
			c1.832,0,2.816-0.704,2.958-1.69c0.141-0.985-0.563-1.549-2.395-2.112c-2.394-0.704-3.52-1.83-3.239-3.239
			C157.516,367.562,159.628,366.013,162.727,366.013z"/>
	</g>
</g>
<g>
	<g>
		<polygon fill="#FFFFFF" points="453.414,454.6 453.274,455.867 448.627,455.867 447.077,466.992 445.104,466.992 446.654,456.007 
			442.007,456.007 442.007,454.6 		"/>
	</g>
	<g>
		<path fill="#FFFFFF" d="M463.132,461.922c0,0.282-0.14,0.564-0.282,0.705h-7.745c-0.282,2.112,1.408,2.957,3.38,3.098
			c1.408,0,2.395-0.28,3.098-0.423l0.143,1.128c-0.705,0.14-1.973,0.562-3.803,0.422c-3.38,0-5.212-1.83-4.93-4.365
			c0.422-2.677,2.535-4.789,5.774-4.789C462.569,457.837,463.272,460.232,463.132,461.922z M455.387,461.642h5.915
			c0.28-0.987-0.142-2.677-2.395-2.535C456.795,458.965,455.527,460.374,455.387,461.642"/>
	</g>
	<g>
		<path fill="#FFFFFF" d="M478.342,457.837c1.409,0,3.522,0.846,3.1,3.805l-0.705,5.21h-1.972l0.704-4.93
			c0.141-1.689-0.422-2.675-1.972-2.675c-1.126,0-2.112,0.704-2.535,1.407c-0.141,0.282-0.28,0.564-0.28,0.846l-0.705,5.492h-1.972
			l0.704-5.21c0.141-1.408-0.422-2.396-1.972-2.396c-1.268,0-2.253,0.846-2.676,1.55c-0.14,0.282-0.282,0.563-0.282,0.705
			l-0.703,5.351h-1.972l0.985-6.338c0.142-0.845,0.142-1.689,0.282-2.395h1.689v1.409h0.141c0.704-0.845,1.832-1.689,3.662-1.55
			c1.55,0,2.535,0.705,2.957,1.831l0,0c0.423-0.423,0.985-0.846,1.408-1.268C476.512,457.979,477.356,457.837,478.342,457.837z"/>
	</g>
	<g>
		<path fill="#FFFFFF" d="M491.019,457.837c2.675,0,4.506,1.832,4.083,4.367c-0.423,3.098-3.098,4.788-5.633,4.788
			c-1.407,0-2.675-0.562-3.239-1.408l0,0l-0.563,4.788h-1.972l1.268-9.718c0.282-1.127,0.142-1.972,0.282-2.817h1.83v1.55
			C487.779,458.402,489.328,457.697,491.019,457.837z M489.328,465.725c2.113,0,3.521-1.408,3.803-3.38
			c0.141-1.69-0.704-3.38-2.817-3.238c-1.407,0-2.817,0.845-3.239,1.971c-0.141,0.142-0.28,0.423-0.28,0.705l-0.143,1.55
			c0,0.28,0,0.422,0,0.702C486.651,464.88,487.919,465.725,489.328,465.725"/>
	</g>
	<g>
		<path fill="#FFFFFF" d="M450.175,480.092l-4.365,4.364l3.38,4.647h-2.254l-1.408-1.972c-0.282-0.562-0.562-0.985-0.985-1.548l0,0
			c-0.423,0.562-0.987,0.985-1.268,1.548l-1.832,1.972h-2.253l4.508-4.507l-3.24-4.365h2.253l1.409,1.83
			c0.281,0.564,0.563,0.987,0.985,1.55l0,0c0.423-0.562,0.987-0.985,1.268-1.55l1.832-1.97H450.175z"/>
	</g>
	<g>
		<polygon fill="#FFFFFF" points="439.189,476.569 439.05,477.837 432.712,477.837 432.147,481.922 438.205,481.781 
			438.062,483.049 432.008,483.189 431.444,487.555 438.205,487.555 437.923,488.964 429.19,488.964 430.88,476.569 		"/>
	</g>
	<g>
		<path fill="#FFFFFF" d="M454.682,475.864l-0.704,5.494l0,0c0.422-0.422,0.986-0.845,1.689-1.127
			c0.705-0.282,1.41-0.562,2.112-0.423c1.55,0,3.663,0.846,3.24,3.803l-0.705,5.21h-1.97l0.702-5.069
			c0.143-1.408-0.28-2.676-2.252-2.676c-1.268,0-2.396,0.705-2.817,1.55c-0.141,0.28-0.28,0.423-0.28,0.703l-0.705,5.353h-1.973
			l1.69-12.957L454.682,475.864z"/>
	</g>
	<g>
		<polygon fill="#FFFFFF" points="463.837,488.964 464.964,479.949 466.935,479.949 465.809,488.821 		"/>
	</g>
	<g>
		<path fill="#FFFFFF" d="M466.09,478.541c-0.705,0-1.126-0.562-0.985-0.984c0.14-0.564,0.704-0.987,1.407-1.128
			c0.705,0,1.128,0.563,0.987,1.128C467.357,477.979,466.935,478.401,466.09,478.541z"/>
	</g>
	<g>
		<path fill="#FFFFFF" d="M476.089,479.809c2.676,0,4.508,1.831,4.085,4.508c-0.423,3.098-3.1,4.647-5.635,4.787
			c-1.548,0-2.815-0.562-3.52-1.689l0,0l-0.282,1.407h-1.69c0.143-0.562,0.282-1.548,0.423-2.252l1.409-10.705h1.971l-0.703,5.494
			l0,0C472.85,480.372,474.259,479.669,476.089,479.809z M474.259,487.696c2.112,0,3.661-1.268,3.803-3.38
			c0.14-1.69-0.705-3.38-2.817-3.24c-1.407,0-2.817,0.705-3.239,1.973c-0.141,0.141-0.141,0.423-0.281,0.703l-0.142,1.55
			c0,0.14,0,0.422,0,0.562C471.864,486.852,472.85,487.696,474.259,487.696"/>
	</g>
	<g>
		<polygon fill="#FFFFFF" points="482.145,488.682 483.271,479.949 485.244,479.949 484.116,488.821 		"/>
	</g>
	<g>
		<path fill="#FFFFFF" d="M491.299,477.414l-0.28,2.535h2.815l-0.28,1.268h-2.817l-0.562,4.789c-0.143,1.126,0.14,1.69,1.268,1.831
			c0.562,0,0.985,0,1.125,0l-0.14,1.267c-0.423,0.141-0.985,0.141-1.831,0.283c-0.986,0-1.689-0.143-1.972-0.705
			c-0.423-0.562-0.562-1.268-0.423-2.395l0.562-4.788h-1.689l0.282-1.268h1.69l0.281-2.112L491.299,477.414z"/>
	</g>
	<g>
		<path fill="#FFFFFF" d="M484.539,478.401c-0.703,0-1.125-0.564-0.985-0.987c0.141-0.562,0.705-0.985,1.408-1.127
			c0.704,0,1.127,0.564,0.986,1.127C485.948,477.979,485.244,478.401,484.539,478.401z"/>
	</g>
	<g>
		<path fill="#FFFFFF" d="M499.608,479.669c1.128,0,2.113,0.28,2.678,0.562l-0.705,1.127c-0.423-0.282-1.127-0.564-2.112-0.422
			c-1.127,0-1.973,0.562-2.112,1.268c-0.143,0.702,0.422,1.125,1.972,1.407c1.83,0.562,2.815,1.408,2.535,2.676
			c-0.142,1.55-1.832,2.677-4.507,2.677c-1.268,0-2.255-0.282-2.958-0.564l0.703-1.126c0.564,0.281,1.55,0.563,2.535,0.703
			c1.409,0,2.254-0.562,2.395-1.268c0.143-0.703-0.282-1.268-1.83-1.548c-1.832-0.564-2.817-1.409-2.535-2.535
			C495.666,480.937,497.214,479.669,499.608,479.669z"/>
	</g>
</g>
<g>
	<g>
		<path fill="#FFFFFF" d="M205.682,492.062l-0.845,14.93h-2.395l0.282-6.479c0.14-2.113,0.281-4.647,0.562-6.479h-0.14
			c-0.845,1.69-1.972,3.663-3.099,5.633l-4.225,7.325h-1.831l-2.112-7.043c-0.563-2.112-1.126-4.084-1.409-5.774l0,0
			c-0.281,1.832-0.704,4.367-1.126,6.62l-1.409,6.478h-2.253l3.24-14.928h3.099l2.252,7.183c0.564,1.83,0.845,3.521,1.268,5.069
			h0.141c0.564-1.407,1.55-3.239,2.676-5.069l4.225-7.325L205.682,492.062z"/>
	</g>
	<g>
		<path fill="#FFFFFF" d="M218.217,504.456c-0.141,0.985-0.141,1.83-0.141,2.535h-2.254l-0.14-1.41h-0.141
			c-0.845,0.846-2.395,1.55-4.225,1.69c-2.676,0-3.943-1.548-3.662-3.098c0.282-2.535,3.24-3.943,8.591-3.943h0.141v-0.282
			c0.141-0.845,0-2.534-2.676-2.534c-1.268,0-2.676,0.282-3.662,0.704l-0.282-1.268c1.268-0.564,2.958-0.986,4.648-0.986
			c4.084,0,4.788,2.254,4.506,4.366L218.217,504.456z M215.963,503.328l0.141-1.83c-0.141,0-0.282,0-0.422,0
			c-2.535,0-5.352,0.423-5.634,2.394c-0.282,1.268,0.845,1.832,2.113,1.832c1.69,0,2.958-0.846,3.38-1.69
			C215.963,503.751,215.963,503.611,215.963,503.328"/>
	</g>
	<g>
		<path fill="#FFFFFF" d="M230.328,495.864c3.24,0,5.352,2.254,4.93,5.492c-0.564,3.803-3.803,5.915-6.901,5.774
			c-1.831,0-3.239-0.704-3.943-1.689l0,0l-0.845,5.774h-2.394l1.549-11.689c0.141-1.408,0.282-2.535,0.422-3.521h2.253l-0.141,1.83
			C226.385,496.709,228.075,496.006,230.328,495.864z M228.215,505.581c2.535,0,4.226-1.689,4.507-4.225
			c0.281-2.112-0.986-4.083-3.521-4.083c-1.69,0-3.38,0.845-3.944,2.535c-0.14,0.28-0.281,0.562-0.281,0.845l-0.141,1.83
			c0,0.282,0,0.563,0,0.845C224.977,504.736,226.525,505.724,228.215,505.581"/>
	</g>
	<g>
		<path fill="#FFFFFF" d="M243.145,495.864c1.408,0,2.535,0.282,3.239,0.704l-0.704,1.408c-0.422-0.28-1.408-0.562-2.676-0.562
			c-1.409,0-2.395,0.704-2.395,1.55c-0.14,0.845,0.564,1.267,2.395,1.83c2.253,0.704,3.38,1.689,3.099,3.239
			c-0.282,1.83-2.254,3.238-5.493,3.238c-1.409,0-2.817-0.28-3.662-0.845l0.704-1.408c0.705,0.423,1.831,0.705,3.099,0.845
			c1.831,0,2.676-0.704,2.817-1.55c0.14-0.985-0.563-1.407-2.253-1.97c-2.254-0.705-3.38-1.832-3.099-3.1
			C238.215,497.273,240.187,495.864,243.145,495.864z"/>
	</g>
	<g>
		<path fill="#FFFFFF" d="M276.805,490.794c0.845,0,1.549,0.141,1.972,0.282l-0.423,1.408c-0.282-0.141-0.845-0.283-1.549-0.141
			c-2.113,0-2.676,1.407-3.099,3.098l-0.141,0.564h3.239l-0.142,1.408h-3.239l-1.126,9.295h-2.395l1.127-9.295H269.2l0.141-1.408
			h1.83l0.141-0.564c0.141-1.55,0.845-2.817,2.112-3.803C274.411,491.076,275.678,490.935,276.805,490.794z"/>
	</g>
	<g>
		<path fill="#FFFFFF" d="M261.595,495.864c3.802,0,6.196,2.254,5.633,5.492c-0.422,3.944-4.226,5.774-7.464,5.774
			c-3.663,0-6.197-2.112-5.634-5.492C254.693,497.977,257.791,496.006,261.595,495.864z M260.186,505.724
			c2.394,0,4.225-1.832,4.647-4.226c0.141-1.832-0.704-4.084-3.521-4.225c-2.816,0-4.366,2.112-4.647,4.225
			C256.383,503.892,257.791,505.724,260.186,505.724"/>
	</g>
	<g>
		<path fill="#FFFFFF" d="M292.86,498.821c1.69,0.282,3.661,1.55,3.239,3.803c-0.281,1.268-0.985,2.254-1.971,3.1
			c-1.409,0.985-3.521,1.407-6.76,1.407c-1.69,0-2.958-0.14-3.662-0.282l1.972-14.787c1.126-0.141,2.816-0.282,4.506-0.423
			c2.394,0,3.944,0.282,4.93,1.128c0.845,0.562,1.408,1.407,1.126,2.675C296.099,496.991,294.691,498.118,292.86,498.821
			L292.86,498.821z M288.353,505.441c2.535,0,4.93-0.705,5.211-2.958c0.282-1.972-1.831-2.817-4.366-2.817h-1.972l-0.845,5.635
			C286.804,505.301,287.508,505.441,288.353,505.441 M287.931,493.329l-0.563,4.789h2.113c2.535,0,4.225-1.127,4.366-2.535
			c0.141-1.691-1.409-2.395-3.803-2.536C288.917,493.188,288.213,493.329,287.931,493.329"/>
	</g>
	<g>
		<path fill="#FFFFFF" d="M306.1,495.864c0.28,0,0.423,0,0.703,0.142l-0.141,1.83c-0.282,0-0.422-0.14-0.845-0.14
			c-1.69,0-3.1,0.985-3.662,2.393c-0.14,0.282-0.282,0.564-0.282,0.845l-0.845,5.635h-2.393l0.985-7.324
			c0.282-1.268,0.282-2.394,0.423-3.38h2.112l-0.14,2.112h0.14C302.86,496.709,304.55,495.724,306.1,495.864z"/>
	</g>
	<g>
		<polygon fill="#FFFFFF" points="307.79,506.709 309.197,496.006 311.732,496.006 310.183,506.709 		"/>
	</g>
	<g>
		<path fill="#FFFFFF" d="M310.605,494.174c-0.846,0-1.408-0.423-1.268-1.127c0.142-0.703,0.845-1.126,1.689-1.268
			c0.987,0,1.41,0.422,1.268,1.127C312.295,493.611,311.592,494.174,310.605,494.174z"/>
	</g>
	<g>
		<path fill="#FFFFFF" d="M319.76,495.864c1.408,0,2.535,0.282,3.24,0.704l-0.705,1.408c-0.423-0.28-1.408-0.562-2.676-0.562
			c-1.409,0-2.395,0.704-2.395,1.55c-0.14,0.845,0.562,1.267,2.395,1.83c2.253,0.704,3.381,1.689,3.098,3.239
			c-0.281,1.83-2.252,3.238-5.492,3.238c-1.407,0-2.817-0.28-3.662-0.845l0.705-1.408c0.704,0.423,1.83,0.705,3.098,0.845
			c1.832,0,2.677-0.704,2.817-1.55c0.14-0.985-0.563-1.407-2.253-1.97c-2.255-0.705-3.38-1.832-3.1-3.1
			C314.972,497.132,316.942,495.864,319.76,495.864z"/>
	</g>
	<g>
		<path fill="#FFFFFF" d="M330.042,492.906l-0.423,3.1h3.521l-0.141,1.408h-3.521l-0.846,5.774c-0.28,1.268,0.282,2.112,1.55,1.971
			c0.705,0,1.128,0,1.408-0.141v1.408c-0.562,0.142-1.268,0.142-2.253,0.282c-1.127,0-1.972-0.282-2.535-0.846
			c-0.562-0.562-0.845-1.55-0.562-2.816l0.845-5.773h-2.112l0.141-1.409h2.112l0.282-2.535L330.042,492.906z"/>
	</g>
	<g>
		<path fill="#FFFFFF" d="M341.59,495.724c3.802,0,6.197,2.253,5.634,5.492c-0.422,3.943-4.225,5.775-7.465,5.775
			c-3.662,0-6.196-2.113-5.634-5.493C334.689,497.836,337.927,495.583,341.59,495.724z M340.182,505.441
			c2.395,0,4.225-1.83,4.647-4.226c0.141-1.83-0.705-4.084-3.521-4.225c-2.815,0-4.365,2.112-4.647,4.225
			C336.379,503.611,337.787,505.581,340.182,505.441"/>
	</g>
	<g>
		<polygon fill="#FFFFFF" points="354.124,490.935 352.012,506.709 349.617,506.709 351.729,490.935 		"/>
	</g>
</g>
<g>
	<g>
		<path fill="#405E5E" d="M438.768,576.282c2.253,0,3.803,1.407,3.38,3.38c-0.282,2.395-2.535,3.38-4.507,3.522
			c-2.113,0-3.803-1.27-3.381-3.382C434.683,577.55,436.515,576.282,438.768,576.282z M437.923,582.197
			c1.407,0,2.675-0.985,2.816-2.535c0.141-1.127-0.422-2.535-2.112-2.395c-1.689,0-2.677,1.268-2.817,2.535
			C435.67,581.07,436.515,582.197,437.923,582.197"/>
	</g>
	<g>
		<path fill="#405E5E" d="M434.402,573.888l-4.367,9.015h-1.55l-0.845-4.647c-0.141-1.128-0.28-1.973-0.28-2.958
			c-0.423,0.845-0.705,1.69-1.268,2.958l-2.255,4.647h-1.548l-1.55-8.873h1.55l0.703,4.506c0.142,1.127,0.282,2.254,0.422,3.1
			c0.423-0.846,0.846-1.973,1.41-3.24l2.112-4.507h1.548l0.845,4.647c0.143,1.127,0.282,2.112,0.282,3.1
			c0.423-0.987,0.846-1.973,1.408-3.24l2.114-4.507H434.402z"/>
	</g>
	<g>
		<path fill="#405E5E" d="M448.062,576.282c0.142,0,0.282,0,0.422,0l-0.14,1.127c-0.141,0-0.282,0-0.423,0
			c-0.986,0-1.832,0.703-2.112,1.548c0,0.143-0.142,0.282-0.142,0.564l-0.563,3.381h-1.407l0.562-4.367
			c0.141-0.703,0.141-1.408,0.141-1.971h1.268l-0.141,1.268h0.141C446.09,576.705,447.077,576.282,448.062,576.282z"/>
	</g>
	<g>
		<path fill="#405E5E" d="M460.175,576.282c0.845,0,1.55,0.141,1.972,0.423l-0.564,0.845c-0.28-0.141-0.845-0.423-1.548-0.282
			c-0.845,0-1.409,0.422-1.55,0.987c-0.14,0.562,0.282,0.845,1.268,0.984c1.268,0.563,1.973,0.985,1.83,1.831
			c-0.28,1.127-1.268,1.972-3.237,1.832c-0.846,0-1.69-0.143-2.113-0.423l0.563-0.845c0.422,0.28,1.127,0.562,1.83,0.422
			c1.127,0,1.689-0.422,1.689-0.986c0.143-0.563-0.28-0.846-1.268-1.126c-1.407-0.282-1.97-0.987-1.97-1.832
			C457.357,577.127,458.484,576.142,460.175,576.282z"/>
	</g>
	<g>
		<path fill="#405E5E" d="M451.865,573.324l-0.846,5.915l0,0c0.282-0.14,0.564-0.422,0.846-0.704l2.677-2.253h1.689l-3.521,2.675
			l3.1,3.803h-1.832l-2.394-3.098l-0.845,0.562l-0.282,2.396h-1.407l1.267-9.577L451.865,573.324z"/>
	</g>
	<g>
		<path fill="#405E5E" d="M466.231,573.324l-0.423,3.943l0,0c0.281-0.28,0.703-0.562,1.268-0.703
			c0.423-0.142,0.985-0.282,1.548-0.423c1.128,0,2.678,0.563,2.396,2.676l-0.563,3.803h-1.409l0.564-3.663
			c0.141-0.984-0.282-1.97-1.689-1.83c-0.987,0-1.832,0.562-2.113,1.128c-0.142,0.14-0.142,0.28-0.282,0.562l-0.562,3.803h-1.409
			l1.268-9.577L466.231,573.324z"/>
	</g>
	<g>
		<path fill="#405E5E" d="M477.074,576.142c2.255,0,3.803,1.408,3.38,3.38c-0.28,2.394-2.534,3.381-4.505,3.521
			c-2.112,0-3.803-1.268-3.38-3.38C472.85,577.409,474.821,576.142,477.074,576.142z M476.229,582.057
			c1.409,0,2.677-0.986,2.817-2.535c0.14-1.127-0.423-2.534-2.112-2.395c-1.69,0-2.676,1.268-2.817,2.535
			C473.837,581.07,474.821,582.057,476.229,582.057"/>
	</g>
	<g>
		<path fill="#405E5E" d="M487.074,576.142c1.973,0,3.239,1.408,2.957,3.238c-0.28,2.255-2.252,3.522-4.225,3.522
			c-1.125,0-1.973-0.282-2.253-0.987l0,0l-0.564,3.521h-1.407l0.845-6.901c0.14-0.846,0.14-1.408,0.14-2.112h1.268l-0.14,1.127
			C484.682,576.564,485.666,576.142,487.074,576.142z M485.666,582.057c1.55,0,2.676-0.986,2.817-2.535
			c0.28-1.267-0.564-2.395-2.112-2.395c-0.987,0-1.973,0.562-2.395,1.408c-0.141,0.142-0.141,0.282-0.141,0.422l-0.142,1.128
			c0,0.14,0,0.282,0,0.422C483.836,581.492,484.682,581.915,485.666,582.057"/>
	</g>
</g>
<g>
	<g>
		<polygon fill="#405E5E" points="561.718,345.45 562.845,337.422 564.675,337.422 563.55,345.45 		"/>
	</g>
	<g>
		<polygon fill="#405E5E" points="555.24,334.183 553.832,344.323 559.888,344.323 559.747,345.591 552,345.591 553.408,334.324 		
			"/>
	</g>
	<g>
		<path fill="#405E5E" d="M563.83,336.014c-0.703,0-0.985-0.422-0.985-0.986c0.141-0.563,0.705-0.845,1.268-0.845
			c0.705,0,0.985,0.422,0.985,0.986C565.098,335.732,564.535,336.155,563.83,336.014z"/>
	</g>
	<g>
		<path fill="#405E5E" d="M576.225,335.028l-0.282,2.253h2.677l-0.142,1.126h-2.676l-0.562,4.366
			c-0.142,0.986,0.141,1.549,1.268,1.549c0.423,0,0.845,0,1.126,0l-0.141,1.127c-0.423,0.141-0.985,0.141-1.69,0.282
			c-0.845,0-1.55-0.141-1.83-0.564c-0.422-0.422-0.422-1.126-0.422-2.112l0.562-4.366h-1.55l0.142-1.126h1.548l0.282-1.972
			L576.225,335.028z"/>
	</g>
	<g>
		<path fill="#405E5E" d="M572,333.479c0.704,0,1.127,0.14,1.55,0.14l-0.423,1.127c-0.282-0.142-0.564-0.282-1.127-0.282
			c-1.55,0-2.113,1.127-2.253,2.395l-0.143,0.422H572l-0.141,1.126h-2.395l-0.845,6.901h-1.831l0.846-6.901h-1.41l0.141-1.126h1.409
			l0.141-0.422c0.282-1.127,0.564-2.112,1.55-2.817C570.168,333.761,571.013,333.479,572,333.479z"/>
	</g>
</g>
<polygon fill="#405E5E" points="546.648,481.217 547.775,473.189 549.605,473.049 548.48,481.217 "/>
<polygon fill="#405E5E" points="540.311,470.092 539.043,479.949 544.958,479.949 544.678,481.217 536.931,481.217 538.48,469.949 
	"/>
<path fill="#405E5E" d="M548.902,471.781c-0.705,0-0.986-0.422-0.986-0.986c0.142-0.563,0.704-0.846,1.267-0.846
	c0.705,0,0.987,0.423,0.987,0.987C550.17,471.359,549.605,471.781,548.902,471.781z"/>
<path fill="#405E5E" d="M557.07,469.104c0.705,0,1.127,0.142,1.55,0.142l-0.423,1.126c-0.282-0.141-0.562-0.28-1.127-0.28
	c-1.548,0-2.112,1.125-2.253,2.393l-0.14,0.423h2.393l-0.141,1.127h-2.395l-0.845,6.902h-1.83l0.845-6.902h-1.408l0.141-1.127h1.408
	l0.142-0.423c0.28-1.125,0.562-2.112,1.548-2.815C555.24,469.387,556.226,469.104,557.07,469.104z"/>
<path fill="#405E5E" d="M561.295,470.654l-0.28,2.253h2.675l-0.14,1.268h-2.677l-0.563,4.366c-0.14,0.985,0.141,1.551,1.268,1.69
	c0.423,0,0.846,0,1.128,0l-0.143,1.127c-0.422,0.141-0.985,0.141-1.689,0.281c-0.846,0-1.549-0.141-1.83-0.563
	c-0.423-0.422-0.563-1.127-0.423-2.112l0.562-4.367h-1.548l0.141-1.125h1.549l0.281-1.973L561.295,470.654z"/>
<polygon fill="#6BAFAD" points="238.716,451.538 236.041,464.385 310.181,464.25 311.921,451.002 "/>
<polygon fill="#6BAFAD" points="239.788,441.498 236.978,454.346 311.117,454.213 312.857,440.965 "/>
<polygon fill="#405E5E" points="311.386,451.135 312.59,457.158 310.984,470.271 309.512,464.115 "/>
<polygon fill="#405E5E" points="309.512,464.115 310.984,470.271 237.378,470.541 236.041,464.385 "/>
<polygon fill="#405E5E" points="312.189,440.965 313.526,448.46 311.386,466.996 310.449,454.213 "/>
<polygon fill="#405E5E" points="310.449,454.213 311.285,460.369 238.315,460.502 236.978,454.346 "/>
<polygon fill="#405E5E" points="313.126,431.061 315.267,440.965 310.984,470.271 311.386,444.178 "/>
<polygon fill="#405E5E" points="311.386,444.178 312.59,450.333 239.251,450.466 237.914,444.311 "/>
<polygon fill="#6BAFAD" points="241.393,430.794 237.914,444.311 311.386,444.178 313.126,431.061 "/>
</svg>
